<svg xmlns="http://www.w3.org/2000/svg" width="640" height="640" baseProfile="full">
  <path d="M160 0h40v40h-40zM200 0h40v40h-40zM240 0h40v40h-40zM280 0h40v40h-40zM320 0h40v40h-40zM360 0h40v40h-40zM400 0h40v40h-40zM80 40h40v40H80zM120 40h40v40h-40zM160 40h40v40h-40z"/>
  <path fill="#757B7C" d="M200 40h40v40h-40zM240 40h40v40h-40zM280 40h40v40h-40zM320 40h40v40h-40zM360 40h40v40h-40z"/>
  <path d="M400 40h40v40h-40zM440 40h40v40h-40zM480 40h40v40h-40zM520 40h40v40h-40zM560 40h40v40h-40zM0 80h40v40H0zM40 80h40v40H40zM80 80h40v40H80z"/>
  <path fill="#757B7C" d="M120 80h40v40h-40zM160 80h40v40h-40zM200 80h40v40h-40zM240 80h40v40h-40zM280 80h40v40h-40zM320 80h40v40h-40zM360 80h40v40h-40zM400 80h40v40h-40z"/>
  <path d="M440 80h40v40h-40zM480 80h40v40h-40z"/>
  <path fill="#463C2F" d="M520 80h40v40h-40z"/>
  <path d="M560 80h40v40h-40zM600 80h40v40h-40zM0 120h40v40H0z"/>
  <path fill="#757B7C" d="M40 120h40v40H40zM80 120h40v40H80z"/>
  <path d="M120 120h40v40h-40zM160 120h40v40h-40zM200 120h40v40h-40zM240 120h40v40h-40zM280 120h40v40h-40zM320 120h40v40h-40zM360 120h40v40h-40z"/>
  <path fill="#757B7C" d="M400 120h40v40h-40zM440 120h40v40h-40zM480 120h40v40h-40z"/>
  <path d="M520 120h40v40h-40z"/>
  <path fill="#463C2F" d="M560 120h40v40h-40z"/>
  <path d="M600 120h40v40h-40zM0 160h40v40H0z"/>
  <path fill="#757B7C" d="M40 160h40v40H40z"/>
  <path d="M80 160h40v40H80zM120 160h40v40h-40zM360 160h40v40h-40z"/>
  <path fill="#757B7C" d="M400 160h40v40h-40zM440 160h40v40h-40zM480 160h40v40h-40zM520 160h40v40h-40z"/>
  <path d="M560 160h40v40h-40zM600 160h40v40h-40zM0 200h40v40H0zM40 200h40v40H40zM80 200h40v40H80zM360 200h40v40h-40z"/>
  <path fill="#463C2F" d="M400 200h40v40h-40zM440 200h40v40h-40z"/>
  <path fill="#757B7C" d="M480 200h40v40h-40zM520 200h40v40h-40z"/>
  <path d="M560 200h40v40h-40zM600 200h40v40h-40zM280 240h40v40h-40zM320 240h40v40h-40zM360 240h40v40h-40z"/>
  <path fill="#463C2F" d="M400 240h40v40h-40zM440 240h40v40h-40z"/>
  <path fill="#757B7C" d="M480 240h40v40h-40zM520 240h40v40h-40zM560 240h40v40h-40z"/>
  <path d="M600 240h40v40h-40zM240 280h40v40h-40zM280 280h40v40h-40z"/>
  <path fill="#463C2F" d="M320 280h40v40h-40zM360 280h40v40h-40z"/>
  <path d="M400 280h40v40h-40zM440 280h40v40h-40zM480 280h40v40h-40zM520 280h40v40h-40z"/>
  <path fill="#757B7C" d="M560 280h40v40h-40z"/>
  <path d="M600 280h40v40h-40zM240 320h40v40h-40z"/>
  <path fill="#463C2F" d="M280 320h40v40h-40zM320 320h40v40h-40zM360 320h40v40h-40z"/>
  <path d="M400 320h40v40h-40zM520 320h40v40h-40z"/>
  <path fill="#757B7C" d="M560 320h40v40h-40z"/>
  <path d="M600 320h40v40h-40zM200 360h40v40h-40zM240 360h40v40h-40z"/>
  <path fill="#463C2F" d="M280 360h40v40h-40zM320 360h40v40h-40z"/>
  <path d="M360 360h40v40h-40zM400 360h40v40h-40zM520 360h40v40h-40z"/>
  <path fill="#757B7C" d="M560 360h40v40h-40z"/>
  <path d="M600 360h40v40h-40zM160 400h40v40h-40zM200 400h40v40h-40z"/>
  <path fill="#463C2F" d="M240 400h40v40h-40z"/>
  <path d="M280 400h40v40h-40zM320 400h40v40h-40zM360 400h40v40h-40zM520 400h40v40h-40z"/>
  <path fill="#757B7C" d="M560 400h40v40h-40z"/>
  <path d="M600 400h40v40h-40zM80 440h40v40H80zM120 440h40v40h-40zM160 440h40v40h-40z"/>
  <path fill="#463C2F" d="M200 440h40v40h-40z"/>
  <path d="M240 440h40v40h-40zM280 440h40v40h-40zM520 440h40v40h-40z"/>
  <path fill="#757B7C" d="M560 440h40v40h-40z"/>
  <path d="M600 440h40v40h-40zM80 480h40v40H80z"/>
  <path fill="#463C2F" d="M120 480h40v40h-40zM160 480h40v40h-40z"/>
  <path d="M200 480h40v40h-40zM240 480h40v40h-40zM520 480h40v40h-40z"/>
  <path fill="#757B7C" d="M560 480h40v40h-40z"/>
  <path d="M600 480h40v40h-40zM0 520h40v40H0zM40 520h40v40H40zM80 520h40v40H80z"/>
  <path fill="#463C2F" d="M120 520h40v40h-40zM160 520h40v40h-40z"/>
  <path d="M200 520h40v40h-40zM480 520h40v40h-40zM520 520h40v40h-40z"/>
  <path fill="#757B7C" d="M560 520h40v40h-40z"/>
  <path d="M600 520h40v40h-40zM0 560h40v40H0z"/>
  <path fill="#463C2F" d="M40 560h40v40H40zM80 560h40v40H80z"/>
  <path d="M120 560h40v40h-40zM160 560h40v40h-40zM200 560h40v40h-40zM440 560h40v40h-40zM480 560h40v40h-40z"/>
  <path fill="#757B7C" d="M520 560h40v40h-40z"/>
  <path d="M560 560h40v40h-40zM600 560h40v40h-40zM0 600h40v40H0zM40 600h40v40H40zM80 600h40v40H80zM120 600h40v40h-40zM440 600h40v40h-40zM480 600h40v40h-40zM520 600h40v40h-40zM560 600h40v40h-40z"/>
</svg>
