<svg xmlns="http://www.w3.org/2000/svg" width="640" height="640" baseProfile="full">
  <path fill="#080808" d="M280 40h40v40h-40zM320 40h40v40h-40zM360 40h40v40h-40zM400 40h40v40h-40zM440 40h40v40h-40zM240 80h40v40h-40z"/>
  <path fill="#70A977" d="M280 80h40v40h-40zM320 80h40v40h-40z"/>
  <path fill="#A8BAA9" d="M360 80h40v40h-40z"/>
  <path fill="#44874B" d="M400 80h40v40h-40z"/>
  <path fill="#080808" d="M440 80h40v40h-40zM200 120h40v40h-40z"/>
  <path fill="#A8BAA9" d="M240 120h40v40h-40zM280 120h40v40h-40zM320 120h40v40h-40z"/>
  <path fill="#44874B" d="M360 120h40v40h-40zM400 120h40v40h-40z"/>
  <path fill="#080808" d="M440 120h40v40h-40zM200 160h40v40h-40z"/>
  <path fill="#5EA165" d="M240 160h40v40h-40zM280 160h40v40h-40z"/>
  <path fill="#A8BAA9" d="M320 160h40v40h-40z"/>
  <path fill="#44874B" d="M360 160h40v40h-40zM400 160h40v40h-40z"/>
  <path fill="#080808" d="M440 160h40v40h-40zM80 200h40v40H80zM120 200h40v40h-40zM160 200h40v40h-40zM200 200h40v40h-40z"/>
  <path fill="#468F4D" d="M240 200h40v40h-40zM280 200h40v40h-40z"/>
  <path fill="#8EA292" d="M320 200h40v40h-40z"/>
  <path fill="#2D7233" d="M360 200h40v40h-40zM400 200h40v40h-40z"/>
  <path fill="#080808" d="M440 200h40v40h-40zM40 240h40v40H40z"/>
  <path fill="#C34544" d="M80 240h40v40H80zM120 240h40v40h-40z"/>
  <path fill="#CE5E5E" d="M160 240h40v40h-40z"/>
  <path fill="#080808" d="M200 240h40v40h-40z"/>
  <path fill="#468F4D" d="M240 240h40v40h-40zM280 240h40v40h-40z"/>
  <path fill="#8EA292" d="M320 240h40v40h-40z"/>
  <path fill="#2D7233" d="M360 240h40v40h-40z"/>
  <path fill="#22672B" d="M400 240h40v40h-40z"/>
  <path fill="#080808" d="M440 240h40v40h-40zM0 280h40v40H0z"/>
  <path fill="#CE5E5E" d="M40 280h40v40H40zM80 280h40v40H80zM120 280h40v40h-40z"/>
  <path fill="#A12B2A" d="M160 280h40v40h-40z"/>
  <path fill="#080808" d="M200 280h40v40h-40z"/>
  <path fill="#3D8543" d="M240 280h40v40h-40zM280 280h40v40h-40z"/>
  <path fill="#849789" d="M320 280h40v40h-40z"/>
  <path fill="#22672B" d="M360 280h40v40h-40zM400 280h40v40h-40z"/>
  <path fill="#080808" d="M440 280h40v40h-40zM0 320h40v40H0z"/>
  <path fill="#B2433C" d="M40 320h40v40H40zM80 320h40v40H80z"/>
  <path fill="#C75455" d="M120 320h40v40h-40z"/>
  <path fill="#9E2727" d="M160 320h40v40h-40z"/>
  <path fill="#080808" d="M200 320h40v40h-40z"/>
  <path fill="#3D8543" d="M240 320h40v40h-40zM280 320h40v40h-40z"/>
  <path fill="#849789" d="M320 320h40v40h-40z"/>
  <path fill="#22672B" d="M360 320h40v40h-40z"/>
  <path fill="#1B5C22" d="M400 320h40v40h-40z"/>
  <path fill="#080808" d="M440 320h40v40h-40zM0 360h40v40H0z"/>
  <path fill="#B2433C" d="M40 360h40v40H40zM80 360h40v40H80z"/>
  <path fill="#C75455" d="M120 360h40v40h-40z"/>
  <path fill="#9E2727" d="M160 360h40v40h-40z"/>
  <path fill="#080808" d="M200 360h40v40h-40z"/>
  <path fill="#33793C" d="M240 360h40v40h-40zM280 360h40v40h-40z"/>
  <path fill="#798F7A" d="M320 360h40v40h-40z"/>
  <path fill="#1B5C22" d="M360 360h40v40h-40zM400 360h40v40h-40z"/>
  <path fill="#080808" d="M440 360h40v40h-40zM0 400h40v40H0z"/>
  <path fill="#A73733" d="M40 400h40v40H40zM80 400h40v40H80z"/>
  <path fill="#C0494F" d="M120 400h40v40h-40z"/>
  <path fill="#94242A" d="M160 400h40v40h-40z"/>
  <path fill="#080808" d="M200 400h40v40h-40z"/>
  <path fill="#33793C" d="M240 400h40v40h-40zM280 400h40v40h-40z"/>
  <path fill="#798F7A" d="M320 400h40v40h-40z"/>
  <path fill="#1B5C22" d="M360 400h40v40h-40z"/>
  <path fill="#15521A" d="M400 400h40v40h-40z"/>
  <path fill="#080808" d="M440 400h40v40h-40zM480 400h40v40h-40zM520 400h40v40h-40zM560 400h40v40h-40zM0 440h40v40H0z"/>
  <path fill="#A73733" d="M40 440h40v40H40zM80 440h40v40H80z"/>
  <path fill="#C0494F" d="M120 440h40v40h-40z"/>
  <path fill="#94242A" d="M160 440h40v40h-40z"/>
  <path fill="#080808" d="M200 440h40v40h-40z"/>
  <path fill="#2A6F31" d="M240 440h40v40h-40zM280 440h40v40h-40z"/>
  <path fill="#6F8472" d="M320 440h40v40h-40z"/>
  <path fill="#15521A" d="M360 440h40v40h-40zM400 440h40v40h-40z"/>
  <path fill="#080808" d="M440 440h40v40h-40z"/>
  <path fill="#2E3F9F" d="M480 440h40v40h-40zM520 440h40v40h-40z"/>
  <path fill="#4652A6" d="M560 440h40v40h-40z"/>
  <path fill="#080808" d="M600 440h40v40h-40zM0 480h40v40H0z"/>
  <path fill="#A12E2E" d="M40 480h40v40H40zM80 480h40v40H80z"/>
  <path fill="#C0494F" d="M120 480h40v40h-40z"/>
  <path fill="#881D25" d="M160 480h40v40h-40z"/>
  <path fill="#080808" d="M200 480h40v40h-40z"/>
  <path fill="#2A6F31" d="M240 480h40v40h-40zM280 480h40v40h-40z"/>
  <path fill="#6F8472" d="M320 480h40v40h-40z"/>
  <path fill="#15521A" d="M360 480h40v40h-40z"/>
  <path fill="#080808" d="M400 480h40v40h-40z"/>
  <path fill="#4652A6" d="M440 480h40v40h-40zM480 480h40v40h-40zM520 480h40v40h-40z"/>
  <path fill="#1A234F" d="M560 480h40v40h-40z"/>
  <path fill="#080808" d="M600 480h40v40h-40zM0 520h40v40H0z"/>
  <path fill="#A12E2E" d="M40 520h40v40H40zM80 520h40v40H80z"/>
  <path fill="#C0494F" d="M120 520h40v40h-40z"/>
  <path fill="#881D25" d="M160 520h40v40h-40z"/>
  <path fill="#080808" d="M200 520h40v40h-40z"/>
  <path fill="#226328" d="M240 520h40v40h-40zM280 520h40v40h-40z"/>
  <path fill="#697568" d="M320 520h40v40h-40z"/>
  <path fill="#0F4914" d="M360 520h40v40h-40z"/>
  <path fill="#080808" d="M400 520h40v40h-40z"/>
  <path fill="#31354C" d="M440 520h40v40h-40zM480 520h40v40h-40z"/>
  <path fill="#4652A6" d="M520 520h40v40h-40z"/>
  <path fill="#1A234F" d="M560 520h40v40h-40z"/>
  <path fill="#080808" d="M600 520h40v40h-40zM0 560h40v40H0z"/>
  <path fill="#9A292C" d="M40 560h40v40H40zM80 560h40v40H80z"/>
  <path fill="#B53A44" d="M120 560h40v40h-40z"/>
  <path fill="#881D25" d="M160 560h40v40h-40z"/>
  <path fill="#080808" d="M200 560h40v40h-40z"/>
  <path fill="#1A5921" d="M240 560h40v40h-40zM280 560h40v40h-40z"/>
  <path fill="#5A715B" d="M320 560h40v40h-40z"/>
  <path fill="#0A3D0E" d="M360 560h40v40h-40z"/>
  <path fill="#080808" d="M400 560h40v40h-40z"/>
  <path fill="#282D44" d="M440 560h40v40h-40zM480 560h40v40h-40z"/>
  <path fill="#303F93" d="M520 560h40v40h-40z"/>
  <path fill="#1A234F" d="M560 560h40v40h-40z"/>
  <path fill="#080808" d="M600 560h40v40h-40zM0 600h40v40H0z"/>
  <path fill="#94242A" d="M40 600h40v40H40zM80 600h40v40H80z"/>
  <path fill="#B53A44" d="M120 600h40v40h-40z"/>
  <path fill="#7C1622" d="M160 600h40v40h-40z"/>
  <path fill="#010101" d="M200 600h40v40h-40z"/>
  <path fill="#1A5921" d="M240 600h40v40h-40zM280 600h40v40h-40z"/>
  <path fill="#5A715B" d="M320 600h40v40h-40z"/>
  <path fill="#0A3D0E" d="M360 600h40v40h-40z"/>
  <path fill="#080808" d="M400 600h40v40h-40z"/>
  <path fill="#242C3F" d="M440 600h40v40h-40zM480 600h40v40h-40z"/>
  <path fill="#303F93" d="M520 600h40v40h-40z"/>
  <path fill="#111741" d="M560 600h40v40h-40z"/>
  <path fill="#080808" d="M600 600h40v40h-40z"/>
</svg>
