<?xml version="1.0" standalone="no"?>
<!DOCTYPE svg PUBLIC "-//W3C//DTD SVG 20010904//EN"
 "http://www.w3.org/TR/2001/REC-SVG-20010904/DTD/svg10.dtd">
<svg version="1.0" xmlns="http://www.w3.org/2000/svg"
 width="1008.000000pt" height="1008.000000pt" viewBox="0 0 1008.000000 1008.000000"
 preserveAspectRatio="xMidYMid meet">
<metadata>
Created by potrace 1.11, written by Peter Selinger 2001-2013
</metadata>
<g transform="translate(0.000000,1008.000000) scale(0.100000,-0.100000)"
fill="#000000" stroke="none">
<path d="M0 5040 l0 -5040 5040 0 5040 0 0 5040 0 5040 -5040 0 -5040 0 0
-5040z m5464 3965 c1043 -93 2004 -566 2730 -1345 585 -627 965 -1442 1076
-2307 103 -800 -18 -1579 -358 -2315 -40 -86 -220 -365 -312 -483 -26 -33 -64
-89 -86 -125 -21 -36 -51 -83 -66 -104 -16 -21 -28 -44 -28 -51 0 -17 -91
-153 -137 -204 l-40 -45 -49 39 c-58 46 -191 164 -248 218 -46 45 -48 39 48
192 34 55 82 134 106 175 24 41 54 87 66 102 34 41 49 123 32 172 -15 46 -47
60 -114 51 -26 -4 -58 0 -85 9 -24 9 -53 16 -65 16 -32 0 -62 -40 -89 -120
-14 -40 -42 -96 -63 -124 -51 -68 -178 -288 -236 -409 -51 -105 -51 -119 0
-131 13 -4 29 -17 35 -29 18 -41 64 -96 111 -136 26 -21 104 -93 174 -160 148
-140 147 -112 5 -235 -94 -83 -302 -246 -312 -246 -4 0 -31 34 -60 76 -88 125
-120 167 -207 270 -46 55 -97 121 -113 149 l-28 49 58 61 c31 33 71 80 88 105
17 25 43 56 58 70 15 14 47 50 70 81 41 55 42 59 44 142 l2 86 -44 29 c-24 17
-49 37 -56 46 -7 8 -47 29 -89 47 -42 17 -102 48 -132 69 -30 20 -79 49 -108
64 -58 30 -176 107 -240 158 -90 71 -101 78 -131 78 -17 0 -31 5 -31 10 0 21
28 76 54 107 l27 31 -30 47 c-17 26 -39 54 -50 61 -12 9 -24 35 -31 72 -6 31
-31 102 -55 158 -64 146 -79 211 -66 287 18 102 45 102 65 0 10 -47 17 -60 38
-71 15 -7 30 -23 33 -35 4 -12 16 -29 27 -38 12 -9 22 -33 25 -60 6 -47 16
-59 50 -59 25 0 32 -22 38 -121 2 -36 20 -118 42 -188 35 -115 40 -125 66
-132 16 -4 54 -32 85 -62 32 -29 67 -59 80 -66 28 -15 52 -8 52 14 0 19 17 19
50 0 35 -20 50 -18 50 4 0 32 17 34 77 6 l58 -26 18 26 c15 19 27 25 59 25 32
0 45 6 72 35 19 20 43 35 56 35 21 0 22 3 16 43 -7 43 -6 44 31 60 21 9 61 30
89 47 29 17 71 34 95 38 l44 8 -30 19 c-25 18 -47 20 -171 20 l-141 0 -68 35
c-54 28 -76 47 -107 90 -53 77 -106 230 -124 365 -26 189 -47 254 -106 321
-17 19 -41 53 -52 74 -26 48 -112 114 -176 135 -61 20 -80 42 -129 148 -47
103 -62 123 -134 182 -30 25 -67 64 -83 86 -33 48 -60 64 -137 78 -65 12 -89
23 -133 61 -17 14 -87 57 -155 94 -176 95 -211 123 -274 221 -30 46 -70 96
-90 112 -20 15 -44 42 -54 58 -10 18 -52 50 -103 80 -81 48 -87 53 -113 113
-15 34 -38 71 -51 81 -25 19 -32 55 -14 66 23 14 9 35 -23 35 -42 0 -70 20
-61 43 3 9 10 17 15 17 19 0 8 30 -16 46 -29 19 -33 44 -7 44 9 0 23 4 31 9
11 7 -1 20 -52 52 -72 46 -81 59 -42 59 14 0 25 3 25 8 0 12 -43 57 -94 97
-71 56 -81 87 -60 189 l17 83 -26 48 c-15 26 -27 50 -27 52 0 3 30 2 68 -1 86
-8 97 -1 83 51 -15 54 -66 110 -144 158 -60 36 -67 43 -73 80 -7 42 -52 178
-86 256 -24 57 -114 139 -153 139 -48 0 -83 27 -111 86 -22 47 -37 62 -94 99
-44 28 -80 61 -101 92 -78 117 -114 130 -168 63 -56 -70 -70 -128 -50 -200 3
-11 -3 -14 -23 -12 -24 3 -28 -1 -38 -40 -6 -24 -16 -57 -21 -75 -9 -29 -6
-38 35 -99 49 -71 54 -88 32 -113 -13 -14 -12 -25 1 -81 9 -41 13 -93 11 -142
-4 -64 -9 -83 -31 -111 -21 -28 -24 -36 -12 -41 22 -8 19 -16 -25 -84 -24 -38
-35 -64 -29 -68 11 -6 8 -44 -6 -76 -5 -14 -2 -18 15 -18 18 0 20 -4 14 -22
-3 -13 -16 -36 -27 -52 -11 -15 -24 -49 -29 -74 -18 -96 -70 -204 -137 -282
-67 -78 -108 -154 -118 -217 -5 -31 -3 -36 8 -25 35 32 39 -15 9 -96 -11 -29
-20 -68 -20 -87 0 -32 2 -35 24 -29 24 6 24 5 15 -36 -5 -23 -23 -71 -39 -107
-37 -81 -37 -93 -5 -93 24 0 25 -2 19 -37 -4 -20 -18 -63 -30 -95 -24 -56 -31
-98 -17 -98 3 0 14 7 24 16 34 31 53 -14 25 -59 -20 -32 -27 -60 -17 -75 7
-12 12 -12 29 -1 12 7 24 11 27 7 3 -3 12 -70 20 -149 8 -79 21 -168 30 -197
15 -51 17 -53 34 -38 10 9 20 16 23 16 3 0 9 -33 12 -72 13 -139 28 -219 57
-305 37 -109 37 -148 0 -221 -16 -32 -32 -80 -36 -106 -6 -37 -17 -58 -44 -86
-20 -21 -62 -84 -95 -141 -96 -169 -135 -225 -173 -243 -18 -9 -43 -32 -55
-51 l-20 -36 -72 7 c-127 11 -209 -19 -376 -141 -47 -34 -106 -73 -130 -85
-25 -13 -81 -49 -126 -81 -44 -33 -105 -72 -134 -88 l-53 -29 -46 22 c-25 11
-68 36 -96 55 -47 32 -56 34 -140 37 -50 1 -101 5 -115 9 -15 3 -33 0 -44 -8
-17 -12 -19 -33 -23 -218 -2 -112 -8 -312 -12 -444 -8 -236 -9 -239 -32 -255
-64 -42 -72 -55 -77 -119 l-5 -63 -37 37 -38 37 39 62 c38 60 51 117 29 131
-5 3 -7 18 -4 33 6 31 -15 66 -172 273 -55 74 -125 170 -154 214 -144 214
-242 332 -294 354 -88 38 -92 37 -128 -21 l-32 -52 -53 109 c-189 394 -319
840 -378 1299 -22 170 -38 548 -31 708 67 1404 823 2668 2036 3403 106 65 380
204 510 260 308 133 713 247 1045 295 282 40 687 51 979 25z m-644 -4945 c6
-11 19 -49 30 -84 22 -71 58 -117 47 -58 -5 24 -3 32 8 32 7 0 17 -5 20 -10 5
-8 11 -7 21 1 7 6 21 9 29 5 13 -5 15 0 9 29 -8 43 1 44 53 6 48 -35 64 -57
132 -179 47 -84 51 -98 51 -157 0 -74 61 -388 84 -433 8 -16 40 -52 70 -78 44
-41 58 -61 79 -121 41 -112 60 -233 59 -372 0 -68 -5 -128 -10 -133 -5 -5 -36
7 -80 32 -61 35 -72 46 -76 73 -3 18 -10 67 -17 109 -9 61 -9 84 1 107 15 38
7 64 -31 96 -23 19 -42 25 -77 25 -48 1 -135 20 -148 33 -13 13 -51 7 -65 -10
-10 -11 -14 -47 -14 -128 l1 -113 -64 24 c-35 14 -120 39 -190 58 -70 18 -143
43 -162 54 -19 11 -58 27 -86 36 -29 9 -59 25 -69 36 -15 17 -15 20 0 51 10
18 42 69 71 113 30 44 54 85 54 92 0 7 20 25 46 41 39 24 44 32 39 53 -20 85
-17 163 10 302 15 79 34 150 41 158 24 28 46 92 65 194 11 56 22 109 25 119 7
23 31 22 44 -3z m-446 -253 c-3 -18 -17 -87 -30 -155 -16 -74 -26 -163 -28
-225 -1 -86 -6 -111 -27 -157 -26 -55 -145 -220 -158 -220 -18 0 -191 130
-191 143 0 23 51 75 141 143 l99 75 0 57 c0 96 80 285 158 374 22 26 43 5 36
-35z m1462 -255 c6 -4 23 -27 39 -52 15 -25 106 -123 203 -217 l175 -173 -6
-197 c-9 -267 -32 -414 -82 -513 -62 -124 -58 -119 -90 -119 -16 -1 -68 13
-115 30 -47 17 -101 35 -120 41 -19 5 -41 15 -47 20 -26 21 -9 300 28 481 18
86 70 262 94 321 8 19 8 19 -24 0 -28 -16 -33 -17 -41 -4 -5 8 -10 27 -10 43
0 15 -13 91 -30 169 -36 172 -37 178 -7 178 12 0 27 -4 33 -8z m1080 -1060
c61 -27 124 -58 139 -70 15 -12 30 -22 34 -22 3 0 12 -4 20 -9 21 -14 -27 -75
-193 -246 l-146 -150 5 105 c3 58 7 180 11 273 3 92 9 167 12 167 4 0 57 -22
118 -48z m-486 -282 l0 -81 -25 18 c-13 10 -25 26 -25 35 0 16 40 108 47 108
2 0 3 -36 3 -80z m811 -1012 c-44 -30 -51 -24 -51 43 l0 62 39 -44 39 -44 -27
-17z"/>
</g>
</svg>
