<?xml version="1.0" encoding="utf-8" ?>
<svg baseProfile="full" height="1200px" version="1.1" width="960px" xmlns="http://www.w3.org/2000/svg" xmlns:ev="http://www.w3.org/2001/xml-events" xmlns:xlink="http://www.w3.org/1999/xlink"><defs /><rect fill="rgb(0,0,0)" height="40px" width="40px" x="520px" y="0px" /><rect fill="rgb(0,0,0)" height="40px" width="40px" x="480px" y="40px" /><rect fill="rgb(168,55,0)" height="40px" width="40px" x="520px" y="40px" /><rect fill="rgb(0,0,0)" height="40px" width="40px" x="560px" y="40px" /><rect fill="rgb(0,0,0)" height="40px" width="40px" x="440px" y="80px" /><rect fill="rgb(136,45,0)" height="40px" width="40px" x="480px" y="80px" /><rect fill="rgb(168,55,0)" height="40px" width="40px" x="520px" y="80px" /><rect fill="rgb(168,55,0)" height="40px" width="40px" x="560px" y="80px" /><rect fill="rgb(0,0,0)" height="40px" width="40px" x="600px" y="80px" /><rect fill="rgb(0,0,0)" height="40px" width="40px" x="400px" y="120px" /><rect fill="rgb(136,45,0)" height="40px" width="40px" x="440px" y="120px" /><rect fill="rgb(153,51,0)" height="40px" width="40px" x="480px" y="120px" /><rect fill="rgb(168,55,0)" height="40px" width="40px" x="520px" y="120px" /><rect fill="rgb(153,51,0)" height="40px" width="40px" x="560px" y="120px" /><rect fill="rgb(153,51,0)" height="40px" width="40px" x="600px" y="120px" /><rect fill="rgb(0,0,0)" height="40px" width="40px" x="640px" y="120px" /><rect fill="rgb(0,0,0)" height="40px" width="40px" x="280px" y="160px" /><rect fill="rgb(0,0,0)" height="40px" width="40px" x="320px" y="160px" /><rect fill="rgb(0,0,0)" height="40px" width="40px" x="360px" y="160px" /><rect fill="rgb(136,45,0)" height="40px" width="40px" x="400px" y="160px" /><rect fill="rgb(153,51,0)" height="40px" width="40px" x="440px" y="160px" /><rect fill="rgb(168,55,0)" height="40px" width="40px" x="480px" y="160px" /><rect fill="rgb(153,51,0)" height="40px" width="40px" x="520px" y="160px" /><rect fill="rgb(136,45,0)" height="40px" width="40px" x="560px" y="160px" /><rect fill="rgb(0,0,0)" height="40px" width="40px" x="600px" y="160px" /><rect fill="rgb(0,0,0)" height="40px" width="40px" x="640px" y="160px" /><rect fill="rgb(0,0,0)" height="40px" width="40px" x="200px" y="200px" /><rect fill="rgb(0,0,0)" height="40px" width="40px" x="240px" y="200px" /><rect fill="rgb(143,152,163)" height="40px" width="40px" x="280px" y="200px" /><rect fill="rgb(143,152,163)" height="40px" width="40px" x="320px" y="200px" /><rect fill="rgb(159,168,179)" height="40px" width="40px" x="360px" y="200px" /><rect fill="rgb(159,168,179)" height="40px" width="40px" x="400px" y="200px" /><rect fill="rgb(136,45,0)" height="40px" width="40px" x="440px" y="200px" /><rect fill="rgb(168,55,0)" height="40px" width="40px" x="480px" y="200px" /><rect fill="rgb(136,45,0)" height="40px" width="40px" x="520px" y="200px" /><rect fill="rgb(159,168,179)" height="40px" width="40px" x="560px" y="200px" /><rect fill="rgb(159,168,179)" height="40px" width="40px" x="600px" y="200px" /><rect fill="rgb(159,168,179)" height="40px" width="40px" x="640px" y="200px" /><rect fill="rgb(0,0,0)" height="40px" width="40px" x="680px" y="200px" /><rect fill="rgb(0,0,0)" height="40px" width="40px" x="720px" y="200px" /><rect fill="rgb(0,0,0)" height="40px" width="40px" x="160px" y="240px" /><rect fill="rgb(143,152,163)" height="40px" width="40px" x="200px" y="240px" /><rect fill="rgb(143,152,163)" height="40px" width="40px" x="240px" y="240px" /><rect fill="rgb(159,168,179)" height="40px" width="40px" x="280px" y="240px" /><rect fill="rgb(159,168,179)" height="40px" width="40px" x="320px" y="240px" /><rect fill="rgb(159,168,179)" height="40px" width="40px" x="360px" y="240px" /><rect fill="rgb(159,168,179)" height="40px" width="40px" x="400px" y="240px" /><rect fill="rgb(136,45,0)" height="40px" width="40px" x="440px" y="240px" /><rect fill="rgb(153,51,0)" height="40px" width="40px" x="480px" y="240px" /><rect fill="rgb(136,45,0)" height="40px" width="40px" x="520px" y="240px" /><rect fill="rgb(181,174,195)" height="40px" width="40px" x="560px" y="240px" /><rect fill="rgb(181,174,195)" height="40px" width="40px" x="600px" y="240px" /><rect fill="rgb(181,174,195)" height="40px" width="40px" x="640px" y="240px" /><rect fill="rgb(159,168,179)" height="40px" width="40px" x="680px" y="240px" /><rect fill="rgb(159,168,179)" height="40px" width="40px" x="720px" y="240px" /><rect fill="rgb(0,0,0)" height="40px" width="40px" x="760px" y="240px" /><rect fill="rgb(0,0,0)" height="40px" width="40px" x="120px" y="280px" /><rect fill="rgb(143,152,163)" height="40px" width="40px" x="160px" y="280px" /><rect fill="rgb(143,152,163)" height="40px" width="40px" x="200px" y="280px" /><rect fill="rgb(159,168,179)" height="40px" width="40px" x="240px" y="280px" /><rect fill="rgb(159,168,179)" height="40px" width="40px" x="280px" y="280px" /><rect fill="rgb(159,168,179)" height="40px" width="40px" x="320px" y="280px" /><rect fill="rgb(159,168,179)" height="40px" width="40px" x="360px" y="280px" /><rect fill="rgb(136,45,0)" height="40px" width="40px" x="400px" y="280px" /><rect fill="rgb(136,45,0)" height="40px" width="40px" x="440px" y="280px" /><rect fill="rgb(153,51,0)" height="40px" width="40px" x="480px" y="280px" /><rect fill="rgb(181,174,195)" height="40px" width="40px" x="520px" y="280px" /><rect fill="rgb(159,168,179)" height="40px" width="40px" x="560px" y="280px" /><rect fill="rgb(159,168,179)" height="40px" width="40px" x="600px" y="280px" /><rect fill="rgb(159,168,179)" height="40px" width="40px" x="640px" y="280px" /><rect fill="rgb(159,168,179)" height="40px" width="40px" x="680px" y="280px" /><rect fill="rgb(143,152,163)" height="40px" width="40px" x="720px" y="280px" /><rect fill="rgb(143,152,163)" height="40px" width="40px" x="760px" y="280px" /><rect fill="rgb(0,0,0)" height="40px" width="40px" x="800px" y="280px" /><rect fill="rgb(0,0,0)" height="40px" width="40px" x="80px" y="320px" /><rect fill="rgb(143,152,163)" height="40px" width="40px" x="120px" y="320px" /><rect fill="rgb(143,152,163)" height="40px" width="40px" x="160px" y="320px" /><rect fill="rgb(143,152,163)" height="40px" width="40px" x="200px" y="320px" /><rect fill="rgb(159,168,179)" height="40px" width="40px" x="240px" y="320px" /><rect fill="rgb(159,168,179)" height="40px" width="40px" x="280px" y="320px" /><rect fill="rgb(159,168,179)" height="40px" width="40px" x="320px" y="320px" /><rect fill="rgb(136,45,0)" height="40px" width="40px" x="360px" y="320px" /><rect fill="rgb(136,45,0)" height="40px" width="40px" x="400px" y="320px" /><rect fill="rgb(153,51,0)" height="40px" width="40px" x="440px" y="320px" /><rect fill="rgb(159,168,179)" height="40px" width="40px" x="480px" y="320px" /><rect fill="rgb(159,168,179)" height="40px" width="40px" x="520px" y="320px" /><rect fill="rgb(159,168,179)" height="40px" width="40px" x="560px" y="320px" /><rect fill="rgb(159,168,179)" height="40px" width="40px" x="600px" y="320px" /><rect fill="rgb(159,168,179)" height="40px" width="40px" x="640px" y="320px" /><rect fill="rgb(159,168,179)" height="40px" width="40px" x="680px" y="320px" /><rect fill="rgb(143,152,163)" height="40px" width="40px" x="720px" y="320px" /><rect fill="rgb(143,152,163)" height="40px" width="40px" x="760px" y="320px" /><rect fill="rgb(143,152,163)" height="40px" width="40px" x="800px" y="320px" /><rect fill="rgb(0,0,0)" height="40px" width="40px" x="840px" y="320px" /><rect fill="rgb(0,0,0)" height="40px" width="40px" x="40px" y="360px" /><rect fill="rgb(143,152,163)" height="40px" width="40px" x="80px" y="360px" /><rect fill="rgb(143,152,163)" height="40px" width="40px" x="120px" y="360px" /><rect fill="rgb(159,168,179)" height="40px" width="40px" x="160px" y="360px" /><rect fill="rgb(159,168,179)" height="40px" width="40px" x="200px" y="360px" /><rect fill="rgb(159,168,179)" height="40px" width="40px" x="240px" y="360px" /><rect fill="rgb(159,168,179)" height="40px" width="40px" x="280px" y="360px" /><rect fill="rgb(159,168,179)" height="40px" width="40px" x="320px" y="360px" /><rect fill="rgb(159,168,179)" height="40px" width="40px" x="360px" y="360px" /><rect fill="rgb(136,45,0)" height="40px" width="40px" x="400px" y="360px" /><rect fill="rgb(136,45,0)" height="40px" width="40px" x="440px" y="360px" /><rect fill="rgb(153,51,0)" height="40px" width="40px" x="480px" y="360px" /><rect fill="rgb(143,152,163)" height="40px" width="40px" x="520px" y="360px" /><rect fill="rgb(143,152,163)" height="40px" width="40px" x="560px" y="360px" /><rect fill="rgb(143,152,163)" height="40px" width="40px" x="600px" y="360px" /><rect fill="rgb(129,134,145)" height="40px" width="40px" x="640px" y="360px" /><rect fill="rgb(143,152,163)" height="40px" width="40px" x="680px" y="360px" /><rect fill="rgb(129,134,145)" height="40px" width="40px" x="720px" y="360px" /><rect fill="rgb(129,134,145)" height="40px" width="40px" x="760px" y="360px" /><rect fill="rgb(129,134,145)" height="40px" width="40px" x="800px" y="360px" /><rect fill="rgb(111,120,131)" height="40px" width="40px" x="840px" y="360px" /><rect fill="rgb(0,0,0)" height="40px" width="40px" x="880px" y="360px" /><rect fill="rgb(0,0,0)" height="40px" width="40px" x="40px" y="400px" /><rect fill="rgb(143,152,163)" height="40px" width="40px" x="80px" y="400px" /><rect fill="rgb(159,168,179)" height="40px" width="40px" x="120px" y="400px" /><rect fill="rgb(159,168,179)" height="40px" width="40px" x="160px" y="400px" /><rect fill="rgb(159,168,179)" height="40px" width="40px" x="200px" y="400px" /><rect fill="rgb(159,168,179)" height="40px" width="40px" x="240px" y="400px" /><rect fill="rgb(143,152,163)" height="40px" width="40px" x="280px" y="400px" /><rect fill="rgb(143,152,163)" height="40px" width="40px" x="320px" y="400px" /><rect fill="rgb(143,152,163)" height="40px" width="40px" x="360px" y="400px" /><rect fill="rgb(129,134,145)" height="40px" width="40px" x="400px" y="400px" /><rect fill="rgb(136,45,0)" height="40px" width="40px" x="440px" y="400px" /><rect fill="rgb(153,51,0)" height="40px" width="40px" x="480px" y="400px" /><rect fill="rgb(153,51,0)" height="40px" width="40px" x="520px" y="400px" /><rect fill="rgb(129,134,145)" height="40px" width="40px" x="560px" y="400px" /><rect fill="rgb(129,134,145)" height="40px" width="40px" x="600px" y="400px" /><rect fill="rgb(129,134,145)" height="40px" width="40px" x="640px" y="400px" /><rect fill="rgb(129,134,145)" height="40px" width="40px" x="680px" y="400px" /><rect fill="rgb(111,120,131)" height="40px" width="40px" x="720px" y="400px" /><rect fill="rgb(111,120,131)" height="40px" width="40px" x="760px" y="400px" /><rect fill="rgb(111,120,131)" height="40px" width="40px" x="800px" y="400px" /><rect fill="rgb(111,120,131)" height="40px" width="40px" x="840px" y="400px" /><rect fill="rgb(0,0,0)" height="40px" width="40px" x="880px" y="400px" /><rect fill="rgb(0,0,0)" height="40px" width="40px" x="40px" y="440px" /><rect fill="rgb(143,152,163)" height="40px" width="40px" x="80px" y="440px" /><rect fill="rgb(159,168,179)" height="40px" width="40px" x="120px" y="440px" /><rect fill="rgb(159,168,179)" height="40px" width="40px" x="160px" y="440px" /><rect fill="rgb(159,168,179)" height="40px" width="40px" x="200px" y="440px" /><rect fill="rgb(143,152,163)" height="40px" width="40px" x="240px" y="440px" /><rect fill="rgb(143,152,163)" height="40px" width="40px" x="280px" y="440px" /><rect fill="rgb(129,134,145)" height="40px" width="40px" x="320px" y="440px" /><rect fill="rgb(129,134,145)" height="40px" width="40px" x="360px" y="440px" /><rect fill="rgb(129,134,145)" height="40px" width="40px" x="400px" y="440px" /><rect fill="rgb(136,45,0)" height="40px" width="40px" x="440px" y="440px" /><rect fill="rgb(136,45,0)" height="40px" width="40px" x="480px" y="440px" /><rect fill="rgb(153,51,0)" height="40px" width="40px" x="520px" y="440px" /><rect fill="rgb(129,134,145)" height="40px" width="40px" x="560px" y="440px" /><rect fill="rgb(111,120,131)" height="40px" width="40px" x="600px" y="440px" /><rect fill="rgb(111,120,131)" height="40px" width="40px" x="640px" y="440px" /><rect fill="rgb(111,120,131)" height="40px" width="40px" x="680px" y="440px" /><rect fill="rgb(111,120,131)" height="40px" width="40px" x="720px" y="440px" /><rect fill="rgb(111,120,131)" height="40px" width="40px" x="760px" y="440px" /><rect fill="rgb(111,120,131)" height="40px" width="40px" x="800px" y="440px" /><rect fill="rgb(111,120,131)" height="40px" width="40px" x="840px" y="440px" /><rect fill="rgb(0,0,0)" height="40px" width="40px" x="880px" y="440px" /><rect fill="rgb(0,0,0)" height="40px" width="40px" x="0px" y="480px" /><rect fill="rgb(143,152,163)" height="40px" width="40px" x="40px" y="480px" /><rect fill="rgb(159,168,179)" height="40px" width="40px" x="80px" y="480px" /><rect fill="rgb(159,168,179)" height="40px" width="40px" x="120px" y="480px" /><rect fill="rgb(143,152,163)" height="40px" width="40px" x="160px" y="480px" /><rect fill="rgb(143,152,163)" height="40px" width="40px" x="200px" y="480px" /><rect fill="rgb(143,152,163)" height="40px" width="40px" x="240px" y="480px" /><rect fill="rgb(129,134,145)" height="40px" width="40px" x="280px" y="480px" /><rect fill="rgb(129,134,145)" height="40px" width="40px" x="320px" y="480px" /><rect fill="rgb(111,120,131)" height="40px" width="40px" x="360px" y="480px" /><rect fill="rgb(111,120,131)" height="40px" width="40px" x="400px" y="480px" /><rect fill="rgb(111,120,131)" height="40px" width="40px" x="440px" y="480px" /><rect fill="rgb(136,45,0)" height="40px" width="40px" x="480px" y="480px" /><rect fill="rgb(153,51,0)" height="40px" width="40px" x="520px" y="480px" /><rect fill="rgb(153,51,0)" height="40px" width="40px" x="560px" y="480px" /><rect fill="rgb(111,120,131)" height="40px" width="40px" x="600px" y="480px" /><rect fill="rgb(111,120,131)" height="40px" width="40px" x="640px" y="480px" /><rect fill="rgb(111,120,131)" height="40px" width="40px" x="680px" y="480px" /><rect fill="rgb(111,120,131)" height="40px" width="40px" x="720px" y="480px" /><rect fill="rgb(111,120,131)" height="40px" width="40px" x="760px" y="480px" /><rect fill="rgb(111,120,131)" height="40px" width="40px" x="800px" y="480px" /><rect fill="rgb(111,120,131)" height="40px" width="40px" x="840px" y="480px" /><rect fill="rgb(95,102,112)" height="40px" width="40px" x="880px" y="480px" /><rect fill="rgb(0,0,0)" height="40px" width="40px" x="920px" y="480px" /><rect fill="rgb(0,0,0)" height="40px" width="40px" x="0px" y="520px" /><rect fill="rgb(159,168,179)" height="40px" width="40px" x="40px" y="520px" /><rect fill="rgb(159,168,179)" height="40px" width="40px" x="80px" y="520px" /><rect fill="rgb(159,168,179)" height="40px" width="40px" x="120px" y="520px" /><rect fill="rgb(143,152,163)" height="40px" width="40px" x="160px" y="520px" /><rect fill="rgb(143,152,163)" height="40px" width="40px" x="200px" y="520px" /><rect fill="rgb(129,134,145)" height="40px" width="40px" x="240px" y="520px" /><rect fill="rgb(129,134,145)" height="40px" width="40px" x="280px" y="520px" /><rect fill="rgb(111,120,131)" height="40px" width="40px" x="320px" y="520px" /><rect fill="rgb(111,120,131)" height="40px" width="40px" x="360px" y="520px" /><rect fill="rgb(111,120,131)" height="40px" width="40px" x="400px" y="520px" /><rect fill="rgb(95,102,112)" height="40px" width="40px" x="440px" y="520px" /><rect fill="rgb(136,45,0)" height="40px" width="40px" x="480px" y="520px" /><rect fill="rgb(168,55,0)" height="40px" width="40px" x="520px" y="520px" /><rect fill="rgb(153,51,0)" height="40px" width="40px" x="560px" y="520px" /><rect fill="rgb(95,102,112)" height="40px" width="40px" x="600px" y="520px" /><rect fill="rgb(111,120,131)" height="40px" width="40px" x="640px" y="520px" /><rect fill="rgb(111,120,131)" height="40px" width="40px" x="680px" y="520px" /><rect fill="rgb(111,120,131)" height="40px" width="40px" x="720px" y="520px" /><rect fill="rgb(111,120,131)" height="40px" width="40px" x="760px" y="520px" /><rect fill="rgb(111,120,131)" height="40px" width="40px" x="800px" y="520px" /><rect fill="rgb(111,120,131)" height="40px" width="40px" x="840px" y="520px" /><rect fill="rgb(95,102,112)" height="40px" width="40px" x="880px" y="520px" /><rect fill="rgb(0,0,0)" height="40px" width="40px" x="920px" y="520px" /><rect fill="rgb(0,0,0)" height="40px" width="40px" x="0px" y="560px" /><rect fill="rgb(159,168,179)" height="40px" width="40px" x="40px" y="560px" /><rect fill="rgb(159,168,179)" height="40px" width="40px" x="80px" y="560px" /><rect fill="rgb(143,152,163)" height="40px" width="40px" x="120px" y="560px" /><rect fill="rgb(143,152,163)" height="40px" width="40px" x="160px" y="560px" /><rect fill="rgb(129,134,145)" height="40px" width="40px" x="200px" y="560px" /><rect fill="rgb(129,134,145)" height="40px" width="40px" x="240px" y="560px" /><rect fill="rgb(111,120,131)" height="40px" width="40px" x="280px" y="560px" /><rect fill="rgb(111,120,131)" height="40px" width="40px" x="320px" y="560px" /><rect fill="rgb(111,120,131)" height="40px" width="40px" x="360px" y="560px" /><rect fill="rgb(111,120,131)" height="40px" width="40px" x="400px" y="560px" /><rect fill="rgb(95,102,112)" height="40px" width="40px" x="440px" y="560px" /><rect fill="rgb(136,45,0)" height="40px" width="40px" x="480px" y="560px" /><rect fill="rgb(168,55,0)" height="40px" width="40px" x="520px" y="560px" /><rect fill="rgb(153,51,0)" height="40px" width="40px" x="560px" y="560px" /><rect fill="rgb(95,102,112)" height="40px" width="40px" x="600px" y="560px" /><rect fill="rgb(111,120,131)" height="40px" width="40px" x="640px" y="560px" /><rect fill="rgb(111,120,131)" height="40px" width="40px" x="680px" y="560px" /><rect fill="rgb(111,120,131)" height="40px" width="40px" x="720px" y="560px" /><rect fill="rgb(111,120,131)" height="40px" width="40px" x="760px" y="560px" /><rect fill="rgb(111,120,131)" height="40px" width="40px" x="800px" y="560px" /><rect fill="rgb(95,102,112)" height="40px" width="40px" x="840px" y="560px" /><rect fill="rgb(91,87,98)" height="40px" width="40px" x="880px" y="560px" /><rect fill="rgb(0,0,0)" height="40px" width="40px" x="920px" y="560px" /><rect fill="rgb(0,0,0)" height="40px" width="40px" x="0px" y="600px" /><rect fill="rgb(159,168,179)" height="40px" width="40px" x="40px" y="600px" /><rect fill="rgb(159,168,179)" height="40px" width="40px" x="80px" y="600px" /><rect fill="rgb(143,152,163)" height="40px" width="40px" x="120px" y="600px" /><rect fill="rgb(143,152,163)" height="40px" width="40px" x="160px" y="600px" /><rect fill="rgb(129,134,145)" height="40px" width="40px" x="200px" y="600px" /><rect fill="rgb(111,120,131)" height="40px" width="40px" x="240px" y="600px" /><rect fill="rgb(111,120,131)" height="40px" width="40px" x="280px" y="600px" /><rect fill="rgb(111,120,131)" height="40px" width="40px" x="320px" y="600px" /><rect fill="rgb(111,120,131)" height="40px" width="40px" x="360px" y="600px" /><rect fill="rgb(111,120,131)" height="40px" width="40px" x="400px" y="600px" /><rect fill="rgb(95,102,112)" height="40px" width="40px" x="440px" y="600px" /><rect fill="rgb(136,45,0)" height="40px" width="40px" x="480px" y="600px" /><rect fill="rgb(168,55,0)" height="40px" width="40px" x="520px" y="600px" /><rect fill="rgb(153,51,0)" height="40px" width="40px" x="560px" y="600px" /><rect fill="rgb(95,102,112)" height="40px" width="40px" x="600px" y="600px" /><rect fill="rgb(111,120,131)" height="40px" width="40px" x="640px" y="600px" /><rect fill="rgb(111,120,131)" height="40px" width="40px" x="680px" y="600px" /><rect fill="rgb(111,120,131)" height="40px" width="40px" x="720px" y="600px" /><rect fill="rgb(111,120,131)" height="40px" width="40px" x="760px" y="600px" /><rect fill="rgb(111,120,131)" height="40px" width="40px" x="800px" y="600px" /><rect fill="rgb(95,102,112)" height="40px" width="40px" x="840px" y="600px" /><rect fill="rgb(91,87,98)" height="40px" width="40px" x="880px" y="600px" /><rect fill="rgb(0,0,0)" height="40px" width="40px" x="920px" y="600px" /><rect fill="rgb(0,0,0)" height="40px" width="40px" x="0px" y="640px" /><rect fill="rgb(159,168,179)" height="40px" width="40px" x="40px" y="640px" /><rect fill="rgb(143,152,163)" height="40px" width="40px" x="80px" y="640px" /><rect fill="rgb(143,152,163)" height="40px" width="40px" x="120px" y="640px" /><rect fill="rgb(129,134,145)" height="40px" width="40px" x="160px" y="640px" /><rect fill="rgb(111,120,131)" height="40px" width="40px" x="200px" y="640px" /><rect fill="rgb(111,120,131)" height="40px" width="40px" x="240px" y="640px" /><rect fill="rgb(111,120,131)" height="40px" width="40px" x="280px" y="640px" /><rect fill="rgb(111,120,131)" height="40px" width="40px" x="320px" y="640px" /><rect fill="rgb(111,120,131)" height="40px" width="40px" x="360px" y="640px" /><rect fill="rgb(111,120,131)" height="40px" width="40px" x="400px" y="640px" /><rect fill="rgb(95,102,112)" height="40px" width="40px" x="440px" y="640px" /><rect fill="rgb(168,55,0)" height="40px" width="40px" x="480px" y="640px" /><rect fill="rgb(153,51,0)" height="40px" width="40px" x="520px" y="640px" /><rect fill="rgb(136,45,0)" height="40px" width="40px" x="560px" y="640px" /><rect fill="rgb(111,120,131)" height="40px" width="40px" x="600px" y="640px" /><rect fill="rgb(111,120,131)" height="40px" width="40px" x="640px" y="640px" /><rect fill="rgb(111,120,131)" height="40px" width="40px" x="680px" y="640px" /><rect fill="rgb(111,120,131)" height="40px" width="40px" x="720px" y="640px" /><rect fill="rgb(111,120,131)" height="40px" width="40px" x="760px" y="640px" /><rect fill="rgb(111,120,131)" height="40px" width="40px" x="800px" y="640px" /><rect fill="rgb(95,102,112)" height="40px" width="40px" x="840px" y="640px" /><rect fill="rgb(65,74,86)" height="40px" width="40px" x="880px" y="640px" /><rect fill="rgb(0,0,0)" height="40px" width="40px" x="920px" y="640px" /><rect fill="rgb(0,0,0)" height="40px" width="40px" x="0px" y="680px" /><rect fill="rgb(143,152,163)" height="40px" width="40px" x="40px" y="680px" /><rect fill="rgb(143,152,163)" height="40px" width="40px" x="80px" y="680px" /><rect fill="rgb(129,134,145)" height="40px" width="40px" x="120px" y="680px" /><rect fill="rgb(111,120,131)" height="40px" width="40px" x="160px" y="680px" /><rect fill="rgb(111,120,131)" height="40px" width="40px" x="200px" y="680px" /><rect fill="rgb(111,120,131)" height="40px" width="40px" x="240px" y="680px" /><rect fill="rgb(111,120,131)" height="40px" width="40px" x="280px" y="680px" /><rect fill="rgb(111,120,131)" height="40px" width="40px" x="320px" y="680px" /><rect fill="rgb(111,120,131)" height="40px" width="40px" x="360px" y="680px" /><rect fill="rgb(95,102,112)" height="40px" width="40px" x="400px" y="680px" /><rect fill="rgb(168,55,0)" height="40px" width="40px" x="440px" y="680px" /><rect fill="rgb(153,51,0)" height="40px" width="40px" x="480px" y="680px" /><rect fill="rgb(136,45,0)" height="40px" width="40px" x="520px" y="680px" /><rect fill="rgb(95,102,112)" height="40px" width="40px" x="560px" y="680px" /><rect fill="rgb(111,120,131)" height="40px" width="40px" x="600px" y="680px" /><rect fill="rgb(111,120,131)" height="40px" width="40px" x="640px" y="680px" /><rect fill="rgb(111,120,131)" height="40px" width="40px" x="680px" y="680px" /><rect fill="rgb(111,120,131)" height="40px" width="40px" x="720px" y="680px" /><rect fill="rgb(111,120,131)" height="40px" width="40px" x="760px" y="680px" /><rect fill="rgb(95,102,112)" height="40px" width="40px" x="800px" y="680px" /><rect fill="rgb(91,87,98)" height="40px" width="40px" x="840px" y="680px" /><rect fill="rgb(65,74,86)" height="40px" width="40px" x="880px" y="680px" /><rect fill="rgb(0,0,0)" height="40px" width="40px" x="920px" y="680px" /><rect fill="rgb(0,0,0)" height="40px" width="40px" x="40px" y="720px" /><rect fill="rgb(129,134,145)" height="40px" width="40px" x="80px" y="720px" /><rect fill="rgb(111,120,131)" height="40px" width="40px" x="120px" y="720px" /><rect fill="rgb(111,120,131)" height="40px" width="40px" x="160px" y="720px" /><rect fill="rgb(95,102,112)" height="40px" width="40px" x="200px" y="720px" /><rect fill="rgb(95,102,112)" height="40px" width="40px" x="240px" y="720px" /><rect fill="rgb(111,120,131)" height="40px" width="40px" x="280px" y="720px" /><rect fill="rgb(111,120,131)" height="40px" width="40px" x="320px" y="720px" /><rect fill="rgb(95,102,112)" height="40px" width="40px" x="360px" y="720px" /><rect fill="rgb(136,45,0)" height="40px" width="40px" x="400px" y="720px" /><rect fill="rgb(153,51,0)" height="40px" width="40px" x="440px" y="720px" /><rect fill="rgb(153,51,0)" height="40px" width="40px" x="480px" y="720px" /><rect fill="rgb(95,102,112)" height="40px" width="40px" x="520px" y="720px" /><rect fill="rgb(111,120,131)" height="40px" width="40px" x="560px" y="720px" /><rect fill="rgb(111,120,131)" height="40px" width="40px" x="600px" y="720px" /><rect fill="rgb(111,120,131)" height="40px" width="40px" x="640px" y="720px" /><rect fill="rgb(111,120,131)" height="40px" width="40px" x="680px" y="720px" /><rect fill="rgb(95,102,112)" height="40px" width="40px" x="720px" y="720px" /><rect fill="rgb(95,102,112)" height="40px" width="40px" x="760px" y="720px" /><rect fill="rgb(65,74,86)" height="40px" width="40px" x="800px" y="720px" /><rect fill="rgb(65,74,86)" height="40px" width="40px" x="840px" y="720px" /><rect fill="rgb(0,0,0)" height="40px" width="40px" x="880px" y="720px" /><rect fill="rgb(0,0,0)" height="40px" width="40px" x="40px" y="760px" /><rect fill="rgb(111,120,131)" height="40px" width="40px" x="80px" y="760px" /><rect fill="rgb(95,102,112)" height="40px" width="40px" x="120px" y="760px" /><rect fill="rgb(95,102,112)" height="40px" width="40px" x="160px" y="760px" /><rect fill="rgb(95,102,112)" height="40px" width="40px" x="200px" y="760px" /><rect fill="rgb(95,102,112)" height="40px" width="40px" x="240px" y="760px" /><rect fill="rgb(95,102,112)" height="40px" width="40px" x="280px" y="760px" /><rect fill="rgb(111,120,131)" height="40px" width="40px" x="320px" y="760px" /><rect fill="rgb(95,102,112)" height="40px" width="40px" x="360px" y="760px" /><rect fill="rgb(136,45,0)" height="40px" width="40px" x="400px" y="760px" /><rect fill="rgb(153,51,0)" height="40px" width="40px" x="440px" y="760px" /><rect fill="rgb(153,51,0)" height="40px" width="40px" x="480px" y="760px" /><rect fill="rgb(95,102,112)" height="40px" width="40px" x="520px" y="760px" /><rect fill="rgb(95,102,112)" height="40px" width="40px" x="560px" y="760px" /><rect fill="rgb(111,120,131)" height="40px" width="40px" x="600px" y="760px" /><rect fill="rgb(95,102,112)" height="40px" width="40px" x="640px" y="760px" /><rect fill="rgb(95,102,112)" height="40px" width="40px" x="680px" y="760px" /><rect fill="rgb(91,87,98)" height="40px" width="40px" x="720px" y="760px" /><rect fill="rgb(65,74,86)" height="40px" width="40px" x="760px" y="760px" /><rect fill="rgb(65,74,86)" height="40px" width="40px" x="800px" y="760px" /><rect fill="rgb(65,74,86)" height="40px" width="40px" x="840px" y="760px" /><rect fill="rgb(0,0,0)" height="40px" width="40px" x="880px" y="760px" /><rect fill="rgb(0,0,0)" height="40px" width="40px" x="40px" y="800px" /><rect fill="rgb(95,102,112)" height="40px" width="40px" x="80px" y="800px" /><rect fill="rgb(95,102,112)" height="40px" width="40px" x="120px" y="800px" /><rect fill="rgb(91,87,98)" height="40px" width="40px" x="160px" y="800px" /><rect fill="rgb(91,87,98)" height="40px" width="40px" x="200px" y="800px" /><rect fill="rgb(95,102,112)" height="40px" width="40px" x="240px" y="800px" /><rect fill="rgb(95,102,112)" height="40px" width="40px" x="280px" y="800px" /><rect fill="rgb(95,102,112)" height="40px" width="40px" x="320px" y="800px" /><rect fill="rgb(95,102,112)" height="40px" width="40px" x="360px" y="800px" /><rect fill="rgb(136,45,0)" height="40px" width="40px" x="400px" y="800px" /><rect fill="rgb(136,45,0)" height="40px" width="40px" x="440px" y="800px" /><rect fill="rgb(153,51,0)" height="40px" width="40px" x="480px" y="800px" /><rect fill="rgb(95,102,112)" height="40px" width="40px" x="520px" y="800px" /><rect fill="rgb(95,102,112)" height="40px" width="40px" x="560px" y="800px" /><rect fill="rgb(95,102,112)" height="40px" width="40px" x="600px" y="800px" /><rect fill="rgb(95,102,112)" height="40px" width="40px" x="640px" y="800px" /><rect fill="rgb(95,102,112)" height="40px" width="40px" x="680px" y="800px" /><rect fill="rgb(65,74,86)" height="40px" width="40px" x="720px" y="800px" /><rect fill="rgb(65,74,86)" height="40px" width="40px" x="760px" y="800px" /><rect fill="rgb(65,74,86)" height="40px" width="40px" x="800px" y="800px" /><rect fill="rgb(65,74,86)" height="40px" width="40px" x="840px" y="800px" /><rect fill="rgb(0,0,0)" height="40px" width="40px" x="880px" y="800px" /><rect fill="rgb(0,0,0)" height="40px" width="40px" x="80px" y="840px" /><rect fill="rgb(65,74,86)" height="40px" width="40px" x="120px" y="840px" /><rect fill="rgb(65,74,86)" height="40px" width="40px" x="160px" y="840px" /><rect fill="rgb(65,74,86)" height="40px" width="40px" x="200px" y="840px" /><rect fill="rgb(95,102,112)" height="40px" width="40px" x="240px" y="840px" /><rect fill="rgb(95,102,112)" height="40px" width="40px" x="280px" y="840px" /><rect fill="rgb(95,102,112)" height="40px" width="40px" x="320px" y="840px" /><rect fill="rgb(95,102,112)" height="40px" width="40px" x="360px" y="840px" /><rect fill="rgb(95,102,112)" height="40px" width="40px" x="400px" y="840px" /><rect fill="rgb(136,45,0)" height="40px" width="40px" x="440px" y="840px" /><rect fill="rgb(136,45,0)" height="40px" width="40px" x="480px" y="840px" /><rect fill="rgb(153,51,0)" height="40px" width="40px" x="520px" y="840px" /><rect fill="rgb(95,102,112)" height="40px" width="40px" x="560px" y="840px" /><rect fill="rgb(95,102,112)" height="40px" width="40px" x="600px" y="840px" /><rect fill="rgb(95,102,112)" height="40px" width="40px" x="640px" y="840px" /><rect fill="rgb(91,87,98)" height="40px" width="40px" x="680px" y="840px" /><rect fill="rgb(65,74,86)" height="40px" width="40px" x="720px" y="840px" /><rect fill="rgb(65,74,86)" height="40px" width="40px" x="760px" y="840px" /><rect fill="rgb(65,74,86)" height="40px" width="40px" x="800px" y="840px" /><rect fill="rgb(0,0,0)" height="40px" width="40px" x="840px" y="840px" /><rect fill="rgb(0,0,0)" height="40px" width="40px" x="120px" y="880px" /><rect fill="rgb(65,74,86)" height="40px" width="40px" x="160px" y="880px" /><rect fill="rgb(65,74,86)" height="40px" width="40px" x="200px" y="880px" /><rect fill="rgb(65,74,86)" height="40px" width="40px" x="240px" y="880px" /><rect fill="rgb(65,74,86)" height="40px" width="40px" x="280px" y="880px" /><rect fill="rgb(65,74,86)" height="40px" width="40px" x="320px" y="880px" /><rect fill="rgb(91,87,98)" height="40px" width="40px" x="360px" y="880px" /><rect fill="rgb(91,87,98)" height="40px" width="40px" x="400px" y="880px" /><rect fill="rgb(65,74,86)" height="40px" width="40px" x="440px" y="880px" /><rect fill="rgb(136,45,0)" height="40px" width="40px" x="480px" y="880px" /><rect fill="rgb(153,51,0)" height="40px" width="40px" x="520px" y="880px" /><rect fill="rgb(153,51,0)" height="40px" width="40px" x="560px" y="880px" /><rect fill="rgb(65,74,86)" height="40px" width="40px" x="600px" y="880px" /><rect fill="rgb(65,74,86)" height="40px" width="40px" x="640px" y="880px" /><rect fill="rgb(65,74,86)" height="40px" width="40px" x="680px" y="880px" /><rect fill="rgb(65,74,86)" height="40px" width="40px" x="720px" y="880px" /><rect fill="rgb(65,74,86)" height="40px" width="40px" x="760px" y="880px" /><rect fill="rgb(0,0,0)" height="40px" width="40px" x="800px" y="880px" /><rect fill="rgb(0,0,0)" height="40px" width="40px" x="160px" y="920px" /><rect fill="rgb(65,74,86)" height="40px" width="40px" x="200px" y="920px" /><rect fill="rgb(65,74,86)" height="40px" width="40px" x="240px" y="920px" /><rect fill="rgb(65,74,86)" height="40px" width="40px" x="280px" y="920px" /><rect fill="rgb(65,74,86)" height="40px" width="40px" x="320px" y="920px" /><rect fill="rgb(65,74,86)" height="40px" width="40px" x="360px" y="920px" /><rect fill="rgb(65,74,86)" height="40px" width="40px" x="400px" y="920px" /><rect fill="rgb(65,74,86)" height="40px" width="40px" x="440px" y="920px" /><rect fill="rgb(136,45,0)" height="40px" width="40px" x="480px" y="920px" /><rect fill="rgb(136,45,0)" height="40px" width="40px" x="520px" y="920px" /><rect fill="rgb(153,51,0)" height="40px" width="40px" x="560px" y="920px" /><rect fill="rgb(65,74,86)" height="40px" width="40px" x="600px" y="920px" /><rect fill="rgb(65,74,86)" height="40px" width="40px" x="640px" y="920px" /><rect fill="rgb(65,74,86)" height="40px" width="40px" x="680px" y="920px" /><rect fill="rgb(65,74,86)" height="40px" width="40px" x="720px" y="920px" /><rect fill="rgb(0,0,0)" height="40px" width="40px" x="760px" y="920px" /><rect fill="rgb(0,0,0)" height="40px" width="40px" x="200px" y="960px" /><rect fill="rgb(0,0,0)" height="40px" width="40px" x="240px" y="960px" /><rect fill="rgb(65,74,86)" height="40px" width="40px" x="280px" y="960px" /><rect fill="rgb(65,74,86)" height="40px" width="40px" x="320px" y="960px" /><rect fill="rgb(65,74,86)" height="40px" width="40px" x="360px" y="960px" /><rect fill="rgb(65,74,86)" height="40px" width="40px" x="400px" y="960px" /><rect fill="rgb(65,74,86)" height="40px" width="40px" x="440px" y="960px" /><rect fill="rgb(136,45,0)" height="40px" width="40px" x="480px" y="960px" /><rect fill="rgb(136,45,0)" height="40px" width="40px" x="520px" y="960px" /><rect fill="rgb(168,55,0)" height="40px" width="40px" x="560px" y="960px" /><rect fill="rgb(65,74,86)" height="40px" width="40px" x="600px" y="960px" /><rect fill="rgb(65,74,86)" height="40px" width="40px" x="640px" y="960px" /><rect fill="rgb(0,0,0)" height="40px" width="40px" x="680px" y="960px" /><rect fill="rgb(0,0,0)" height="40px" width="40px" x="720px" y="960px" /><rect fill="rgb(0,0,0)" height="40px" width="40px" x="280px" y="1000px" /><rect fill="rgb(0,0,0)" height="40px" width="40px" x="320px" y="1000px" /><rect fill="rgb(0,0,0)" height="40px" width="40px" x="360px" y="1000px" /><rect fill="rgb(0,0,0)" height="40px" width="40px" x="400px" y="1000px" /><rect fill="rgb(0,0,0)" height="40px" width="40px" x="440px" y="1000px" /><rect fill="rgb(136,45,0)" height="40px" width="40px" x="480px" y="1000px" /><rect fill="rgb(136,45,0)" height="40px" width="40px" x="520px" y="1000px" /><rect fill="rgb(168,55,0)" height="40px" width="40px" x="560px" y="1000px" /><rect fill="rgb(153,51,0)" height="40px" width="40px" x="600px" y="1000px" /><rect fill="rgb(0,0,0)" height="40px" width="40px" x="640px" y="1000px" /><rect fill="rgb(0,0,0)" height="40px" width="40px" x="400px" y="1040px" /><rect fill="rgb(136,45,0)" height="40px" width="40px" x="440px" y="1040px" /><rect fill="rgb(136,45,0)" height="40px" width="40px" x="480px" y="1040px" /><rect fill="rgb(168,55,0)" height="40px" width="40px" x="520px" y="1040px" /><rect fill="rgb(153,51,0)" height="40px" width="40px" x="560px" y="1040px" /><rect fill="rgb(136,45,0)" height="40px" width="40px" x="600px" y="1040px" /><rect fill="rgb(0,0,0)" height="40px" width="40px" x="640px" y="1040px" /><rect fill="rgb(0,0,0)" height="40px" width="40px" x="440px" y="1080px" /><rect fill="rgb(153,51,0)" height="40px" width="40px" x="480px" y="1080px" /><rect fill="rgb(168,55,0)" height="40px" width="40px" x="520px" y="1080px" /><rect fill="rgb(136,45,0)" height="40px" width="40px" x="560px" y="1080px" /><rect fill="rgb(0,0,0)" height="40px" width="40px" x="600px" y="1080px" /><rect fill="rgb(0,0,0)" height="40px" width="40px" x="480px" y="1120px" /><rect fill="rgb(168,55,0)" height="40px" width="40px" x="520px" y="1120px" /><rect fill="rgb(0,0,0)" height="40px" width="40px" x="560px" y="1120px" /><rect fill="rgb(0,0,0)" height="40px" width="40px" x="520px" y="1160px" /></svg>