<svg xmlns="http://www.w3.org/2000/svg" width="1000" height="1000" baseProfile="full">
  <path fill="#372D21" d="M360 0h40v40h-40zM400 0h40v40h-40zM440 0h40v40h-40zM480 0h40v40h-40zM520 0h40v40h-40zM560 0h40v40h-40zM600 0h40v40h-40zM280 40h40v40h-40zM320 40h40v40h-40zM360 40h40v40h-40z"/>
  <path fill="#FFF" d="M400 40h40v40h-40zM440 40h40v40h-40zM480 40h40v40h-40zM520 40h40v40h-40zM560 40h40v40h-40z"/>
  <path fill="#372D21" d="M600 40h40v40h-40zM640 40h40v40h-40zM680 40h40v40h-40zM240 80h40v40h-40zM280 80h40v40h-40z"/>
  <path fill="#CFB999" d="M320 80h40v40h-40z"/>
  <path fill="#FFF" d="M360 80h40v40h-40zM400 80h40v40h-40zM440 80h40v40h-40zM480 80h40v40h-40zM520 80h40v40h-40zM560 80h40v40h-40zM600 80h40v40h-40z"/>
  <path fill="#CFB999" d="M640 80h40v40h-40z"/>
  <path fill="#372D21" d="M680 80h40v40h-40zM720 80h40v40h-40zM240 120h40v40h-40z"/>
  <path fill="#CFB999" d="M280 120h40v40h-40z"/>
  <path fill="#FFF" d="M320 120h40v40h-40zM360 120h40v40h-40zM400 120h40v40h-40zM440 120h40v40h-40zM480 120h40v40h-40zM520 120h40v40h-40zM560 120h40v40h-40zM600 120h40v40h-40zM640 120h40v40h-40z"/>
  <path fill="#CFB999" d="M680 120h40v40h-40z"/>
  <path fill="#372D21" d="M720 120h40v40h-40zM240 160h40v40h-40z"/>
  <path fill="#CFB999" d="M280 160h40v40h-40z"/>
  <path fill="#FFF" d="M320 160h40v40h-40z"/>
  <path fill="#CFB999" d="M360 160h40v40h-40zM400 160h40v40h-40zM440 160h40v40h-40z"/>
  <path fill="#FFF" d="M480 160h40v40h-40z"/>
  <path fill="#CFB999" d="M520 160h40v40h-40zM560 160h40v40h-40zM600 160h40v40h-40z"/>
  <path fill="#FFF" d="M640 160h40v40h-40z"/>
  <path fill="#CFB999" d="M680 160h40v40h-40z"/>
  <path fill="#372D21" d="M720 160h40v40h-40zM240 200h40v40h-40z"/>
  <path fill="#CFB999" d="M280 200h40v40h-40zM320 200h40v40h-40z"/>
  <path fill="#372D21" d="M360 200h40v40h-40zM400 200h40v40h-40zM440 200h40v40h-40z"/>
  <path fill="#CFB999" d="M480 200h40v40h-40z"/>
  <path fill="#372D21" d="M520 200h40v40h-40zM560 200h40v40h-40zM600 200h40v40h-40z"/>
  <path fill="#CFB999" d="M640 200h40v40h-40zM680 200h40v40h-40z"/>
  <path fill="#372D21" d="M720 200h40v40h-40zM240 240h40v40h-40z"/>
  <path fill="#CFB999" d="M280 240h40v40h-40z"/>
  <path fill="#372D21" d="M320 240h40v40h-40zM360 240h40v40h-40zM400 240h40v40h-40zM440 240h40v40h-40z"/>
  <path fill="#CFB999" d="M480 240h40v40h-40z"/>
  <path fill="#372D21" d="M520 240h40v40h-40zM560 240h40v40h-40zM600 240h40v40h-40zM640 240h40v40h-40z"/>
  <path fill="#CFB999" d="M680 240h40v40h-40z"/>
  <path fill="#372D21" d="M720 240h40v40h-40zM200 280h40v40h-40zM240 280h40v40h-40z"/>
  <path fill="#CFB999" d="M280 280h40v40h-40z"/>
  <path fill="#372D21" d="M320 280h40v40h-40zM360 280h40v40h-40zM400 280h40v40h-40z"/>
  <path fill="#FFF" d="M440 280h40v40h-40zM480 280h40v40h-40zM520 280h40v40h-40z"/>
  <path fill="#372D21" d="M560 280h40v40h-40zM600 280h40v40h-40zM640 280h40v40h-40z"/>
  <path fill="#CFB999" d="M680 280h40v40h-40z"/>
  <path fill="#372D21" d="M720 280h40v40h-40zM760 280h40v40h-40zM200 320h40v40h-40z"/>
  <path fill="#CFB999" d="M240 320h40v40h-40z"/>
  <path fill="#FFF" d="M280 320h40v40h-40zM320 320h40v40h-40zM360 320h40v40h-40zM400 320h40v40h-40zM440 320h40v40h-40z"/>
  <path fill="#372D21" d="M480 320h40v40h-40z"/>
  <path fill="#FFF" d="M520 320h40v40h-40zM560 320h40v40h-40zM600 320h40v40h-40zM640 320h40v40h-40zM680 320h40v40h-40z"/>
  <path fill="#CFB999" d="M720 320h40v40h-40z"/>
  <path fill="#372D21" d="M760 320h40v40h-40zM200 360h40v40h-40z"/>
  <path fill="#CFB999" d="M240 360h40v40h-40zM280 360h40v40h-40z"/>
  <path fill="#FFF" d="M320 360h40v40h-40zM360 360h40v40h-40zM400 360h40v40h-40z"/>
  <path fill="#372D21" d="M440 360h40v40h-40zM480 360h40v40h-40zM520 360h40v40h-40z"/>
  <path fill="#FFF" d="M560 360h40v40h-40zM600 360h40v40h-40zM640 360h40v40h-40z"/>
  <path fill="#CFB999" d="M680 360h40v40h-40zM720 360h40v40h-40z"/>
  <path fill="#372D21" d="M760 360h40v40h-40zM40 400h40v40H40zM80 400h40v40H80zM120 400h40v40h-40zM160 400h40v40h-40zM200 400h40v40h-40z"/>
  <path fill="#CFB999" d="M240 400h40v40h-40zM280 400h40v40h-40zM320 400h40v40h-40z"/>
  <path fill="#FFF" d="M360 400h40v40h-40zM400 400h40v40h-40zM440 400h40v40h-40zM480 400h40v40h-40zM520 400h40v40h-40zM560 400h40v40h-40zM600 400h40v40h-40z"/>
  <path fill="#CFB999" d="M640 400h40v40h-40zM680 400h40v40h-40zM720 400h40v40h-40z"/>
  <path fill="#372D21" d="M760 400h40v40h-40zM800 400h40v40h-40zM840 400h40v40h-40zM880 400h40v40h-40zM920 400h40v40h-40zM0 440h40v40H0zM40 440h40v40H40z"/>
  <path fill="#FFF" d="M80 440h40v40H80zM120 440h40v40h-40zM160 440h40v40h-40z"/>
  <path fill="#CFB999" d="M200 440h40v40h-40z"/>
  <path fill="#372D21" d="M240 440h40v40h-40zM280 440h40v40h-40z"/>
  <path fill="#CFB999" d="M320 440h40v40h-40z"/>
  <path fill="#FFF" d="M360 440h40v40h-40z"/>
  <path fill="#372D21" d="M400 440h40v40h-40z"/>
  <path fill="#FFF" d="M440 440h40v40h-40z"/>
  <path fill="#372D21" d="M480 440h40v40h-40z"/>
  <path fill="#FFF" d="M520 440h40v40h-40z"/>
  <path fill="#372D21" d="M560 440h40v40h-40z"/>
  <path fill="#FFF" d="M600 440h40v40h-40z"/>
  <path fill="#CFB999" d="M640 440h40v40h-40z"/>
  <path fill="#372D21" d="M680 440h40v40h-40zM720 440h40v40h-40zM760 440h40v40h-40z"/>
  <path fill="#FFF" d="M800 440h40v40h-40zM840 440h40v40h-40zM880 440h40v40h-40z"/>
  <path fill="#372D21" d="M920 440h40v40h-40zM960 440h40v40h-40zM0 480h40v40H0z"/>
  <path fill="#CFB999" d="M40 480h40v40H40z"/>
  <path fill="#FFF" d="M80 480h40v40H80zM120 480h40v40h-40zM160 480h40v40h-40zM200 480h40v40h-40z"/>
  <path fill="#CFB999" d="M240 480h40v40h-40z"/>
  <path fill="#372D21" d="M280 480h40v40h-40zM320 480h40v40h-40z"/>
  <path fill="#CFB999" d="M360 480h40v40h-40z"/>
  <path fill="#372D21" d="M400 480h40v40h-40z"/>
  <path fill="#FFF" d="M440 480h40v40h-40z"/>
  <path fill="#372D21" d="M480 480h40v40h-40z"/>
  <path fill="#FFF" d="M520 480h40v40h-40z"/>
  <path fill="#372D21" d="M560 480h40v40h-40z"/>
  <path fill="#CFB999" d="M600 480h40v40h-40z"/>
  <path fill="#372D21" d="M640 480h40v40h-40zM680 480h40v40h-40z"/>
  <path fill="#CFB999" d="M720 480h40v40h-40zM760 480h40v40h-40z"/>
  <path fill="#FFF" d="M800 480h40v40h-40zM840 480h40v40h-40zM880 480h40v40h-40z"/>
  <path fill="#CFB999" d="M920 480h40v40h-40z"/>
  <path fill="#372D21" d="M960 480h40v40h-40zM0 520h40v40H0z"/>
  <path fill="#CFB999" d="M40 520h40v40H40zM80 520h40v40H80zM120 520h40v40h-40z"/>
  <path fill="#FFF" d="M160 520h40v40h-40zM200 520h40v40h-40z"/>
  <path fill="#CFB999" d="M240 520h40v40h-40zM280 520h40v40h-40z"/>
  <path fill="#372D21" d="M320 520h40v40h-40z"/>
  <path fill="#CFB999" d="M360 520h40v40h-40zM400 520h40v40h-40z"/>
  <path fill="#FFF" d="M440 520h40v40h-40zM480 520h40v40h-40zM520 520h40v40h-40z"/>
  <path fill="#CFB999" d="M560 520h40v40h-40zM600 520h40v40h-40z"/>
  <path fill="#372D21" d="M640 520h40v40h-40z"/>
  <path fill="#CFB999" d="M680 520h40v40h-40zM720 520h40v40h-40z"/>
  <path fill="#FFF" d="M760 520h40v40h-40zM800 520h40v40h-40z"/>
  <path fill="#CFB999" d="M840 520h40v40h-40zM880 520h40v40h-40zM920 520h40v40h-40z"/>
  <path fill="#372D21" d="M960 520h40v40h-40zM0 560h40v40H0zM40 560h40v40H40zM80 560h40v40H80z"/>
  <path fill="#CFB999" d="M120 560h40v40h-40zM160 560h40v40h-40zM200 560h40v40h-40z"/>
  <path fill="#FFF" d="M240 560h40v40h-40z"/>
  <path fill="#CFB999" d="M280 560h40v40h-40z"/>
  <path fill="#372D21" d="M320 560h40v40h-40zM360 560h40v40h-40zM400 560h40v40h-40z"/>
  <path fill="#CFB999" d="M440 560h40v40h-40zM480 560h40v40h-40zM520 560h40v40h-40z"/>
  <path fill="#372D21" d="M560 560h40v40h-40zM600 560h40v40h-40zM640 560h40v40h-40z"/>
  <path fill="#CFB999" d="M680 560h40v40h-40z"/>
  <path fill="#FFF" d="M720 560h40v40h-40z"/>
  <path fill="#CFB999" d="M760 560h40v40h-40zM800 560h40v40h-40zM840 560h40v40h-40z"/>
  <path fill="#372D21" d="M880 560h40v40h-40zM920 560h40v40h-40zM960 560h40v40h-40zM80 600h40v40H80zM120 600h40v40h-40zM160 600h40v40h-40z"/>
  <path fill="#CFB999" d="M200 600h40v40h-40zM240 600h40v40h-40zM280 600h40v40h-40zM320 600h40v40h-40zM360 600h40v40h-40z"/>
  <path fill="#372D21" d="M400 600h40v40h-40zM440 600h40v40h-40zM480 600h40v40h-40zM520 600h40v40h-40zM560 600h40v40h-40z"/>
  <path fill="#CFB999" d="M600 600h40v40h-40zM640 600h40v40h-40zM680 600h40v40h-40zM720 600h40v40h-40zM760 600h40v40h-40z"/>
  <path fill="#372D21" d="M800 600h40v40h-40zM840 600h40v40h-40zM880 600h40v40h-40zM160 640h40v40h-40zM200 640h40v40h-40zM240 640h40v40h-40zM280 640h40v40h-40z"/>
  <path fill="#CFB999" d="M320 640h40v40h-40zM360 640h40v40h-40zM400 640h40v40h-40zM440 640h40v40h-40zM480 640h40v40h-40zM520 640h40v40h-40zM560 640h40v40h-40zM600 640h40v40h-40zM640 640h40v40h-40z"/>
  <path fill="#372D21" d="M680 640h40v40h-40zM720 640h40v40h-40zM760 640h40v40h-40zM800 640h40v40h-40zM280 680h40v40h-40zM320 680h40v40h-40zM360 680h40v40h-40z"/>
  <path fill="#CFB999" d="M400 680h40v40h-40z"/>
  <path fill="#FFF" d="M440 680h40v40h-40zM480 680h40v40h-40zM520 680h40v40h-40z"/>
  <path fill="#CFB999" d="M560 680h40v40h-40z"/>
  <path fill="#372D21" d="M600 680h40v40h-40zM640 680h40v40h-40zM680 680h40v40h-40zM160 720h40v40h-40zM200 720h40v40h-40zM240 720h40v40h-40zM280 720h40v40h-40z"/>
  <path fill="#FFF" d="M320 720h40v40h-40zM360 720h40v40h-40zM400 720h40v40h-40zM440 720h40v40h-40zM480 720h40v40h-40zM520 720h40v40h-40zM560 720h40v40h-40zM600 720h40v40h-40zM640 720h40v40h-40z"/>
  <path fill="#372D21" d="M680 720h40v40h-40zM720 720h40v40h-40zM760 720h40v40h-40zM800 720h40v40h-40zM40 760h40v40H40zM80 760h40v40H80zM120 760h40v40h-40zM160 760h40v40h-40z"/>
  <path fill="#FFF" d="M200 760h40v40h-40zM240 760h40v40h-40zM280 760h40v40h-40zM320 760h40v40h-40z"/>
  <path fill="#CFB999" d="M360 760h40v40h-40zM400 760h40v40h-40zM440 760h40v40h-40zM480 760h40v40h-40zM520 760h40v40h-40zM560 760h40v40h-40zM600 760h40v40h-40z"/>
  <path fill="#FFF" d="M640 760h40v40h-40zM680 760h40v40h-40zM720 760h40v40h-40zM760 760h40v40h-40z"/>
  <path fill="#372D21" d="M800 760h40v40h-40zM840 760h40v40h-40zM880 760h40v40h-40zM920 760h40v40h-40zM0 800h40v40H0zM40 800h40v40H40z"/>
  <path fill="#FFF" d="M80 800h40v40H80zM120 800h40v40h-40zM160 800h40v40h-40zM200 800h40v40h-40zM240 800h40v40h-40z"/>
  <path fill="#CFB999" d="M280 800h40v40h-40zM320 800h40v40h-40zM360 800h40v40h-40z"/>
  <path fill="#372D21" d="M400 800h40v40h-40zM440 800h40v40h-40zM480 800h40v40h-40zM520 800h40v40h-40zM560 800h40v40h-40z"/>
  <path fill="#CFB999" d="M600 800h40v40h-40zM640 800h40v40h-40zM680 800h40v40h-40z"/>
  <path fill="#FFF" d="M720 800h40v40h-40zM760 800h40v40h-40zM800 800h40v40h-40zM840 800h40v40h-40zM880 800h40v40h-40z"/>
  <path fill="#372D21" d="M920 800h40v40h-40zM960 800h40v40h-40zM0 840h40v40H0z"/>
  <path fill="#FFF" d="M40 840h40v40H40zM80 840h40v40H80zM120 840h40v40h-40zM160 840h40v40h-40z"/>
  <path fill="#CFB999" d="M200 840h40v40h-40zM240 840h40v40h-40zM280 840h40v40h-40z"/>
  <path fill="#372D21" d="M320 840h40v40h-40zM360 840h40v40h-40zM400 840h40v40h-40zM560 840h40v40h-40zM600 840h40v40h-40zM640 840h40v40h-40z"/>
  <path fill="#CFB999" d="M680 840h40v40h-40zM720 840h40v40h-40zM760 840h40v40h-40z"/>
  <path fill="#FFF" d="M800 840h40v40h-40zM840 840h40v40h-40zM880 840h40v40h-40zM920 840h40v40h-40z"/>
  <path fill="#372D21" d="M960 840h40v40h-40zM0 880h40v40H0z"/>
  <path fill="#FFF" d="M40 880h40v40H40zM80 880h40v40H80z"/>
  <path fill="#CFB999" d="M120 880h40v40h-40zM160 880h40v40h-40zM200 880h40v40h-40z"/>
  <path fill="#372D21" d="M240 880h40v40h-40zM280 880h40v40h-40zM320 880h40v40h-40zM640 880h40v40h-40zM680 880h40v40h-40zM720 880h40v40h-40z"/>
  <path fill="#CFB999" d="M760 880h40v40h-40zM800 880h40v40h-40zM840 880h40v40h-40z"/>
  <path fill="#FFF" d="M880 880h40v40h-40z"/>
  <path fill="#CFB999" d="M920 880h40v40h-40z"/>
  <path fill="#372D21" d="M960 880h40v40h-40zM0 920h40v40H0zM40 920h40v40H40z"/>
  <path fill="#CFB999" d="M80 920h40v40H80zM120 920h40v40h-40z"/>
  <path fill="#372D21" d="M160 920h40v40h-40zM200 920h40v40h-40zM240 920h40v40h-40zM720 920h40v40h-40zM760 920h40v40h-40zM800 920h40v40h-40z"/>
  <path fill="#CFB999" d="M840 920h40v40h-40zM880 920h40v40h-40z"/>
  <path fill="#372D21" d="M920 920h40v40h-40zM960 920h40v40h-40zM40 960h40v40H40zM80 960h40v40H80zM120 960h40v40h-40zM160 960h40v40h-40zM800 960h40v40h-40zM840 960h40v40h-40zM880 960h40v40h-40zM920 960h40v40h-40z"/>
</svg>
