<svg xmlns="http://www.w3.org/2000/svg" width="640" height="640" baseProfile="full">
  <path d="M480 0h40v40h-40zM520 0h40v40h-40zM560 0h40v40h-40zM600 0h40v40h-40zM440 40h40v40h-40zM480 40h40v40h-40z"/>
  <path fill="#777" d="M520 40h40v40h-40zM560 40h40v40h-40z"/>
  <path d="M600 40h40v40h-40zM400 80h40v40h-40zM440 80h40v40h-40z"/>
  <path fill="#777" d="M480 80h40v40h-40zM520 80h40v40h-40zM560 80h40v40h-40z"/>
  <path d="M600 80h40v40h-40zM360 120h40v40h-40zM400 120h40v40h-40z"/>
  <path fill="#777" d="M440 120h40v40h-40zM480 120h40v40h-40zM520 120h40v40h-40z"/>
  <path d="M560 120h40v40h-40zM600 120h40v40h-40zM320 160h40v40h-40zM360 160h40v40h-40z"/>
  <path fill="#777" d="M400 160h40v40h-40zM440 160h40v40h-40zM480 160h40v40h-40z"/>
  <path d="M520 160h40v40h-40zM560 160h40v40h-40zM280 200h40v40h-40zM320 200h40v40h-40z"/>
  <path fill="#777" d="M360 200h40v40h-40z"/>
  <path fill="#82786B" d="M400 200h40v40h-40z"/>
  <path fill="#777" d="M440 200h40v40h-40z"/>
  <path d="M480 200h40v40h-40zM520 200h40v40h-40zM240 240h40v40h-40zM280 240h40v40h-40z"/>
  <path fill="#777" d="M320 240h40v40h-40z"/>
  <path fill="#786E61" d="M360 240h40v40h-40z"/>
  <path fill="#777" d="M400 240h40v40h-40z"/>
  <path d="M440 240h40v40h-40zM480 240h40v40h-40zM200 280h40v40h-40zM240 280h40v40h-40z"/>
  <path fill="#777" d="M280 280h40v40h-40z"/>
  <path fill="#645A4D" d="M320 280h40v40h-40z"/>
  <path fill="#777" d="M360 280h40v40h-40z"/>
  <path d="M400 280h40v40h-40zM440 280h40v40h-40zM160 320h40v40h-40zM200 320h40v40h-40z"/>
  <path fill="#777" d="M240 320h40v40h-40z"/>
  <path fill="#5A5043" d="M280 320h40v40h-40z"/>
  <path fill="#777" d="M320 320h40v40h-40z"/>
  <path d="M360 320h40v40h-40zM400 320h40v40h-40zM40 360h40v40H40zM80 360h40v40H80zM120 360h40v40h-40zM160 360h40v40h-40z"/>
  <path fill="#777" d="M200 360h40v40h-40z"/>
  <path fill="#504639" d="M240 360h40v40h-40z"/>
  <path fill="#777" d="M280 360h40v40h-40z"/>
  <path d="M320 360h40v40h-40zM360 360h40v40h-40zM40 400h40v40H40z"/>
  <path fill="#777B09" d="M80 400h40v40H80zM120 400h40v40h-40z"/>
  <path fill="#BBB903" d="M160 400h40v40h-40z"/>
  <path fill="#777B09" d="M200 400h40v40h-40z"/>
  <path fill="#777" d="M240 400h40v40h-40z"/>
  <path d="M280 400h40v40h-40zM320 400h40v40h-40zM40 440h40v40H40zM80 440h40v40H80z"/>
  <path fill="#777B09" d="M120 440h40v40h-40z"/>
  <path fill="#BBB903" d="M160 440h40v40h-40zM200 440h40v40h-40z"/>
  <path d="M240 440h40v40h-40zM280 440h40v40h-40zM40 480h40v40H40z"/>
  <path fill="#463C2F" d="M80 480h40v40H80zM120 480h40v40h-40z"/>
  <path fill="#777B09" d="M160 480h40v40h-40zM200 480h40v40h-40z"/>
  <path d="M240 480h40v40h-40zM0 520h40v40H0zM40 520h40v40H40z"/>
  <path fill="#463C2F" d="M80 520h40v40H80zM120 520h40v40h-40z"/>
  <path d="M160 520h40v40h-40z"/>
  <path fill="#777B09" d="M200 520h40v40h-40z"/>
  <path d="M240 520h40v40h-40zM0 560h40v40H0z"/>
  <path fill="#BBB903" d="M40 560h40v40H40z"/>
  <path d="M80 560h40v40H80zM120 560h40v40h-40zM160 560h40v40h-40zM200 560h40v40h-40zM240 560h40v40h-40zM0 600h40v40H0zM40 600h40v40H40zM80 600h40v40H80z"/>
</svg>
