<svg xmlns="http://www.w3.org/2000/svg" width="640" height="640" baseProfile="full">
  <path d="M160 40h40v40h-40zM200 40h40v40h-40zM240 40h40v40h-40zM280 40h40v40h-40zM160 80h40v40h-40z"/>
  <path fill="#F7F7DD" d="M200 80h40v40h-40zM240 80h40v40h-40z"/>
  <path d="M280 80h40v40h-40zM400 80h40v40h-40zM440 80h40v40h-40zM480 80h40v40h-40zM160 120h40v40h-40z"/>
  <path fill="#F7F7DD" d="M200 120h40v40h-40zM240 120h40v40h-40z"/>
  <path d="M280 120h40v40h-40zM360 120h40v40h-40zM400 120h40v40h-40z"/>
  <path fill="#F7F7DD" d="M440 120h40v40h-40z"/>
  <path d="M480 120h40v40h-40zM160 160h40v40h-40zM200 160h40v40h-40z"/>
  <path fill="#F7F7DD" d="M240 160h40v40h-40z"/>
  <path d="M280 160h40v40h-40zM360 160h40v40h-40z"/>
  <path fill="#F7F7DD" d="M400 160h40v40h-40z"/>
  <path d="M440 160h40v40h-40zM480 160h40v40h-40zM120 200h40v40h-40zM160 200h40v40h-40zM200 200h40v40h-40z"/>
  <path fill="#F7F7DD" d="M240 200h40v40h-40z"/>
  <path d="M280 200h40v40h-40zM320 200h40v40h-40zM360 200h40v40h-40z"/>
  <path fill="#F7F7DD" d="M400 200h40v40h-40z"/>
  <path d="M440 200h40v40h-40zM480 200h40v40h-40zM520 200h40v40h-40zM120 240h40v40h-40z"/>
  <path fill="#5D5011" d="M160 240h40v40h-40zM200 240h40v40h-40zM240 240h40v40h-40zM280 240h40v40h-40z"/>
  <path fill="#7B6709" d="M320 240h40v40h-40z"/>
  <path fill="#A68C10" d="M360 240h40v40h-40zM400 240h40v40h-40zM440 240h40v40h-40zM480 240h40v40h-40z"/>
  <path d="M520 240h40v40h-40zM120 280h40v40h-40z"/>
  <path fill="#5D5011" d="M160 280h40v40h-40zM200 280h40v40h-40z"/>
  <path fill="#7B6709" d="M240 280h40v40h-40zM280 280h40v40h-40zM320 280h40v40h-40zM360 280h40v40h-40z"/>
  <path fill="#A68C10" d="M400 280h40v40h-40zM440 280h40v40h-40zM480 280h40v40h-40z"/>
  <path d="M520 280h40v40h-40zM120 320h40v40h-40zM160 320h40v40h-40zM200 320h40v40h-40z"/>
  <path fill="#5D5011" d="M240 320h40v40h-40zM280 320h40v40h-40z"/>
  <path fill="#7B6709" d="M320 320h40v40h-40z"/>
  <path fill="#A68C10" d="M360 320h40v40h-40zM400 320h40v40h-40z"/>
  <path d="M440 320h40v40h-40zM480 320h40v40h-40zM520 320h40v40h-40zM120 360h40v40h-40zM160 360h40v40h-40z"/>
  <path fill="#5D5011" d="M200 360h40v40h-40z"/>
  <path fill="#7B6709" d="M240 360h40v40h-40zM280 360h40v40h-40zM320 360h40v40h-40zM360 360h40v40h-40z"/>
  <path fill="#A68C10" d="M400 360h40v40h-40zM440 360h40v40h-40z"/>
  <path d="M480 360h40v40h-40zM520 360h40v40h-40zM80 400h40v40H80zM120 400h40v40h-40z"/>
  <path fill="#5D5011" d="M160 400h40v40h-40zM200 400h40v40h-40z"/>
  <path fill="#7B6709" d="M240 400h40v40h-40zM280 400h40v40h-40zM320 400h40v40h-40zM360 400h40v40h-40zM400 400h40v40h-40z"/>
  <path fill="#A68C10" d="M440 400h40v40h-40zM480 400h40v40h-40z"/>
  <path d="M520 400h40v40h-40zM560 400h40v40h-40zM80 440h40v40H80z"/>
  <path fill="#5D5011" d="M120 440h40v40h-40zM160 440h40v40h-40zM200 440h40v40h-40z"/>
  <path fill="#7B6709" d="M240 440h40v40h-40zM280 440h40v40h-40zM320 440h40v40h-40zM360 440h40v40h-40zM400 440h40v40h-40z"/>
  <path fill="#A68C10" d="M440 440h40v40h-40zM480 440h40v40h-40z"/>
  <path fill="#7B6709" d="M520 440h40v40h-40z"/>
  <path d="M560 440h40v40h-40zM80 480h40v40H80z"/>
  <path fill="#5D5011" d="M120 480h40v40h-40zM160 480h40v40h-40zM200 480h40v40h-40zM240 480h40v40h-40z"/>
  <path fill="#7B6709" d="M280 480h40v40h-40zM320 480h40v40h-40zM360 480h40v40h-40zM400 480h40v40h-40zM440 480h40v40h-40zM480 480h40v40h-40zM520 480h40v40h-40z"/>
  <path d="M560 480h40v40h-40zM80 520h40v40H80zM120 520h40v40h-40z"/>
  <path fill="#5D5011" d="M160 520h40v40h-40zM200 520h40v40h-40zM240 520h40v40h-40zM280 520h40v40h-40zM320 520h40v40h-40z"/>
  <path fill="#7B6709" d="M360 520h40v40h-40zM400 520h40v40h-40zM440 520h40v40h-40zM480 520h40v40h-40z"/>
  <path d="M520 520h40v40h-40zM560 520h40v40h-40zM120 560h40v40h-40z"/>
  <path fill="#5D5011" d="M160 560h40v40h-40zM200 560h40v40h-40zM240 560h40v40h-40zM280 560h40v40h-40zM320 560h40v40h-40zM360 560h40v40h-40zM400 560h40v40h-40zM440 560h40v40h-40zM480 560h40v40h-40z"/>
  <path d="M520 560h40v40h-40zM120 600h40v40h-40zM160 600h40v40h-40zM200 600h40v40h-40zM240 600h40v40h-40zM280 600h40v40h-40zM320 600h40v40h-40zM360 600h40v40h-40zM400 600h40v40h-40zM440 600h40v40h-40zM480 600h40v40h-40zM520 600h40v40h-40z"/>
</svg>
