<svg xmlns="http://www.w3.org/2000/svg" width="640" height="640" baseProfile="full">
  <path d="M80 40h40v40H80zM120 40h40v40h-40zM160 40h40v40h-40zM200 40h40v40h-40zM240 40h40v40h-40zM280 40h40v40h-40zM320 40h40v40h-40zM360 40h40v40h-40zM400 40h40v40h-40zM440 40h40v40h-40zM480 40h40v40h-40zM520 40h40v40h-40zM80 80h40v40H80z"/>
  <path fill="#5B5B55" d="M120 80h40v40h-40zM160 80h40v40h-40zM200 80h40v40h-40z"/>
  <path fill="#777" d="M240 80h40v40h-40zM280 80h40v40h-40zM320 80h40v40h-40zM360 80h40v40h-40z"/>
  <path fill="#909090" d="M400 80h40v40h-40zM440 80h40v40h-40zM480 80h40v40h-40z"/>
  <path d="M520 80h40v40h-40zM80 120h40v40H80z"/>
  <path fill="#5B5B55" d="M120 120h40v40h-40zM160 120h40v40h-40z"/>
  <path fill="#777" d="M200 120h40v40h-40zM240 120h40v40h-40zM280 120h40v40h-40zM320 120h40v40h-40zM360 120h40v40h-40z"/>
  <path fill="#909090" d="M400 120h40v40h-40zM440 120h40v40h-40zM480 120h40v40h-40z"/>
  <path d="M520 120h40v40h-40zM80 160h40v40H80z"/>
  <path fill="#5B5B55" d="M120 160h40v40h-40zM160 160h40v40h-40z"/>
  <path fill="#777" d="M200 160h40v40h-40zM240 160h40v40h-40z"/>
  <path d="M280 160h40v40h-40zM320 160h40v40h-40z"/>
  <path fill="#777" d="M360 160h40v40h-40z"/>
  <path fill="#909090" d="M400 160h40v40h-40zM440 160h40v40h-40zM480 160h40v40h-40z"/>
  <path d="M520 160h40v40h-40zM80 200h40v40H80z"/>
  <path fill="#5B5B55" d="M120 200h40v40h-40zM160 200h40v40h-40z"/>
  <path fill="#777" d="M200 200h40v40h-40zM240 200h40v40h-40z"/>
  <path d="M280 200h40v40h-40zM320 200h40v40h-40z"/>
  <path fill="#777" d="M360 200h40v40h-40z"/>
  <path fill="#909090" d="M400 200h40v40h-40zM440 200h40v40h-40zM480 200h40v40h-40z"/>
  <path d="M520 200h40v40h-40zM80 240h40v40H80z"/>
  <path fill="#5B5B55" d="M120 240h40v40h-40zM160 240h40v40h-40z"/>
  <path fill="#777" d="M200 240h40v40h-40zM240 240h40v40h-40z"/>
  <path d="M280 240h40v40h-40zM320 240h40v40h-40z"/>
  <path fill="#777" d="M360 240h40v40h-40z"/>
  <path fill="#909090" d="M400 240h40v40h-40zM440 240h40v40h-40zM480 240h40v40h-40z"/>
  <path d="M520 240h40v40h-40zM80 280h40v40H80z"/>
  <path fill="#5B5B55" d="M120 280h40v40h-40z"/>
  <path d="M160 280h40v40h-40zM200 280h40v40h-40zM240 280h40v40h-40zM280 280h40v40h-40zM320 280h40v40h-40zM360 280h40v40h-40zM400 280h40v40h-40zM440 280h40v40h-40z"/>
  <path fill="#909090" d="M480 280h40v40h-40z"/>
  <path d="M520 280h40v40h-40zM80 320h40v40H80z"/>
  <path fill="#5B5B55" d="M120 320h40v40h-40z"/>
  <path d="M160 320h40v40h-40zM200 320h40v40h-40zM240 320h40v40h-40zM280 320h40v40h-40zM320 320h40v40h-40zM360 320h40v40h-40zM400 320h40v40h-40zM440 320h40v40h-40z"/>
  <path fill="#909090" d="M480 320h40v40h-40z"/>
  <path d="M520 320h40v40h-40zM80 360h40v40H80z"/>
  <path fill="#5B5B55" d="M120 360h40v40h-40zM160 360h40v40h-40z"/>
  <path fill="#777" d="M200 360h40v40h-40zM240 360h40v40h-40z"/>
  <path d="M280 360h40v40h-40zM320 360h40v40h-40z"/>
  <path fill="#777" d="M360 360h40v40h-40z"/>
  <path fill="#909090" d="M400 360h40v40h-40zM440 360h40v40h-40zM480 360h40v40h-40z"/>
  <path d="M520 360h40v40h-40zM80 400h40v40H80z"/>
  <path fill="#5B5B55" d="M120 400h40v40h-40zM160 400h40v40h-40z"/>
  <path fill="#777" d="M200 400h40v40h-40zM240 400h40v40h-40z"/>
  <path d="M280 400h40v40h-40zM320 400h40v40h-40z"/>
  <path fill="#777" d="M360 400h40v40h-40z"/>
  <path fill="#909090" d="M400 400h40v40h-40zM440 400h40v40h-40zM480 400h40v40h-40z"/>
  <path d="M520 400h40v40h-40zM80 440h40v40H80z"/>
  <path fill="#5B5B55" d="M120 440h40v40h-40zM160 440h40v40h-40z"/>
  <path fill="#777" d="M200 440h40v40h-40zM240 440h40v40h-40z"/>
  <path d="M280 440h40v40h-40zM320 440h40v40h-40z"/>
  <path fill="#777" d="M360 440h40v40h-40z"/>
  <path fill="#909090" d="M400 440h40v40h-40zM440 440h40v40h-40zM480 440h40v40h-40z"/>
  <path d="M520 440h40v40h-40zM80 480h40v40H80zM120 480h40v40h-40z"/>
  <path fill="#5B5B55" d="M160 480h40v40h-40z"/>
  <path fill="#777" d="M200 480h40v40h-40zM240 480h40v40h-40z"/>
  <path d="M280 480h40v40h-40zM320 480h40v40h-40z"/>
  <path fill="#777" d="M360 480h40v40h-40z"/>
  <path fill="#909090" d="M400 480h40v40h-40zM440 480h40v40h-40z"/>
  <path d="M480 480h40v40h-40zM520 480h40v40h-40zM120 520h40v40h-40zM160 520h40v40h-40z"/>
  <path fill="#5B5B55" d="M200 520h40v40h-40z"/>
  <path fill="#777" d="M240 520h40v40h-40zM280 520h40v40h-40zM320 520h40v40h-40zM360 520h40v40h-40z"/>
  <path fill="#909090" d="M400 520h40v40h-40z"/>
  <path d="M440 520h40v40h-40zM480 520h40v40h-40zM160 560h40v40h-40zM200 560h40v40h-40z"/>
  <path fill="#5B5B55" d="M240 560h40v40h-40z"/>
  <path fill="#777" d="M280 560h40v40h-40zM320 560h40v40h-40z"/>
  <path fill="#909090" d="M360 560h40v40h-40z"/>
  <path d="M400 560h40v40h-40zM440 560h40v40h-40zM200 600h40v40h-40zM240 600h40v40h-40zM280 600h40v40h-40zM320 600h40v40h-40zM360 600h40v40h-40zM400 600h40v40h-40z"/>
</svg>
