<svg xmlns="http://www.w3.org/2000/svg" width="640" height="640" baseProfile="full">
  <path d="M360 0h40v40h-40zM400 0h40v40h-40zM440 0h40v40h-40zM320 40h40v40h-40zM360 40h40v40h-40z"/>
  <path fill="#247B09" d="M400 40h40v40h-40z"/>
  <path d="M440 40h40v40h-40zM320 80h40v40h-40z"/>
  <path fill="#247B09" d="M360 80h40v40h-40zM400 80h40v40h-40z"/>
  <path d="M440 80h40v40h-40zM480 80h40v40h-40zM520 80h40v40h-40zM320 120h40v40h-40z"/>
  <path fill="#247B09" d="M360 120h40v40h-40z"/>
  <path fill="#3F2E0B" d="M400 120h40v40h-40z"/>
  <path fill="#247B09" d="M440 120h40v40h-40zM480 120h40v40h-40z"/>
  <path d="M520 120h40v40h-40zM560 120h40v40h-40zM600 120h40v40h-40zM280 160h40v40h-40zM320 160h40v40h-40z"/>
  <path fill="#3F2E0B" d="M360 160h40v40h-40z"/>
  <path fill="#247B09" d="M400 160h40v40h-40zM440 160h40v40h-40z"/>
  <path d="M480 160h40v40h-40zM520 160h40v40h-40zM560 160h40v40h-40zM600 160h40v40h-40zM240 200h40v40h-40zM280 200h40v40h-40z"/>
  <path fill="#3F2E0B" d="M320 200h40v40h-40z"/>
  <path d="M360 200h40v40h-40zM400 200h40v40h-40zM440 200h40v40h-40zM480 200h40v40h-40zM520 200h40v40h-40z"/>
  <path fill="#3F2E0B" d="M560 200h40v40h-40z"/>
  <path d="M600 200h40v40h-40zM200 240h40v40h-40zM240 240h40v40h-40z"/>
  <path fill="#3F2E0B" d="M280 240h40v40h-40z"/>
  <path d="M320 240h40v40h-40zM360 240h40v40h-40zM440 240h40v40h-40zM480 240h40v40h-40z"/>
  <path fill="#3F2E0B" d="M520 240h40v40h-40z"/>
  <path d="M560 240h40v40h-40zM600 240h40v40h-40zM160 280h40v40h-40zM200 280h40v40h-40z"/>
  <path fill="#3F2E0B" d="M240 280h40v40h-40z"/>
  <path d="M280 280h40v40h-40zM320 280h40v40h-40zM400 280h40v40h-40zM440 280h40v40h-40z"/>
  <path fill="#3F2E0B" d="M480 280h40v40h-40z"/>
  <path d="M520 280h40v40h-40zM560 280h40v40h-40zM120 320h40v40h-40zM160 320h40v40h-40z"/>
  <path fill="#3F2E0B" d="M200 320h40v40h-40z"/>
  <path d="M240 320h40v40h-40zM280 320h40v40h-40zM360 320h40v40h-40zM400 320h40v40h-40z"/>
  <path fill="#3F2E0B" d="M440 320h40v40h-40z"/>
  <path d="M480 320h40v40h-40zM520 320h40v40h-40zM80 360h40v40H80zM120 360h40v40h-40z"/>
  <path fill="#3F2E0B" d="M160 360h40v40h-40z"/>
  <path d="M200 360h40v40h-40zM240 360h40v40h-40zM320 360h40v40h-40zM360 360h40v40h-40z"/>
  <path fill="#3F2E0B" d="M400 360h40v40h-40z"/>
  <path d="M440 360h40v40h-40zM480 360h40v40h-40zM40 400h40v40H40zM80 400h40v40H80z"/>
  <path fill="#3F2E0B" d="M120 400h40v40h-40z"/>
  <path d="M160 400h40v40h-40zM200 400h40v40h-40zM280 400h40v40h-40zM320 400h40v40h-40z"/>
  <path fill="#3F2E0B" d="M360 400h40v40h-40z"/>
  <path d="M400 400h40v40h-40zM440 400h40v40h-40zM0 440h40v40H0zM40 440h40v40H40z"/>
  <path fill="#3F2E0B" d="M80 440h40v40H80z"/>
  <path d="M120 440h40v40h-40zM160 440h40v40h-40zM200 440h40v40h-40zM240 440h40v40h-40zM280 440h40v40h-40z"/>
  <path fill="#3F2E0B" d="M320 440h40v40h-40z"/>
  <path d="M360 440h40v40h-40zM400 440h40v40h-40zM0 480h40v40H0z"/>
  <path fill="#842E08" d="M40 480h40v40H40z"/>
  <path d="M80 480h40v40H80zM120 480h40v40h-40zM160 480h40v40h-40z"/>
  <path fill="#247B09" d="M200 480h40v40h-40zM240 480h40v40h-40z"/>
  <path fill="#3F2E0B" d="M280 480h40v40h-40z"/>
  <path d="M320 480h40v40h-40zM360 480h40v40h-40zM0 520h40v40H0zM40 520h40v40H40zM80 520h40v40H80zM120 520h40v40h-40z"/>
  <path fill="#247B09" d="M160 520h40v40h-40zM200 520h40v40h-40z"/>
  <path fill="#3F2E0B" d="M240 520h40v40h-40z"/>
  <path fill="#247B09" d="M280 520h40v40h-40z"/>
  <path d="M320 520h40v40h-40zM120 560h40v40h-40zM160 560h40v40h-40zM200 560h40v40h-40z"/>
  <path fill="#247B09" d="M240 560h40v40h-40zM280 560h40v40h-40z"/>
  <path d="M320 560h40v40h-40zM200 600h40v40h-40zM240 600h40v40h-40zM280 600h40v40h-40zM320 600h40v40h-40z"/>
</svg>
