<svg xmlns="http://www.w3.org/2000/svg" width="640" height="640" baseProfile="full">
  <path d="M280 120h40v40h-40zM320 120h40v40h-40zM360 120h40v40h-40zM120 160h40v40h-40zM160 160h40v40h-40zM200 160h40v40h-40zM240 160h40v40h-40zM280 160h40v40h-40z"/>
  <path fill="#060" d="M320 160h40v40h-40z"/>
  <path d="M360 160h40v40h-40zM400 160h40v40h-40zM440 160h40v40h-40zM480 160h40v40h-40zM520 160h40v40h-40zM120 200h40v40h-40z"/>
  <path fill="#00A900" d="M160 200h40v40h-40z"/>
  <path d="M200 200h40v40h-40zM240 200h40v40h-40z"/>
  <path fill="#060" d="M280 200h40v40h-40zM320 200h40v40h-40zM360 200h40v40h-40z"/>
  <path d="M400 200h40v40h-40zM440 200h40v40h-40z"/>
  <path fill="#00A900" d="M480 200h40v40h-40z"/>
  <path d="M520 200h40v40h-40zM0 240h40v40H0zM40 240h40v40H40zM80 240h40v40H80zM120 240h40v40h-40z"/>
  <path fill="#00A900" d="M160 240h40v40h-40zM200 240h40v40h-40z"/>
  <path d="M240 240h40v40h-40z"/>
  <path fill="#060" d="M280 240h40v40h-40zM320 240h40v40h-40zM360 240h40v40h-40z"/>
  <path d="M400 240h40v40h-40z"/>
  <path fill="#00A900" d="M440 240h40v40h-40zM480 240h40v40h-40z"/>
  <path d="M520 240h40v40h-40zM560 240h40v40h-40zM600 240h40v40h-40zM0 280h40v40H0z"/>
  <path fill="#00EF00" d="M40 280h40v40H40z"/>
  <path d="M80 280h40v40H80zM120 280h40v40h-40zM160 280h40v40h-40z"/>
  <path fill="#00A900" d="M200 280h40v40h-40z"/>
  <path fill="#060" d="M240 280h40v40h-40zM280 280h40v40h-40zM320 280h40v40h-40zM360 280h40v40h-40zM400 280h40v40h-40z"/>
  <path fill="#00A900" d="M440 280h40v40h-40z"/>
  <path d="M480 280h40v40h-40zM520 280h40v40h-40zM560 280h40v40h-40zM600 280h40v40h-40zM0 320h40v40H0z"/>
  <path fill="#00EF00" d="M40 320h40v40H40z"/>
  <path fill="#00D500" d="M80 320h40v40H80zM120 320h40v40h-40z"/>
  <path fill="#00EF00" d="M160 320h40v40h-40z"/>
  <path d="M200 320h40v40h-40z"/>
  <path fill="#060" d="M240 320h40v40h-40zM280 320h40v40h-40zM320 320h40v40h-40zM360 320h40v40h-40zM400 320h40v40h-40z"/>
  <path d="M440 320h40v40h-40z"/>
  <path fill="#00EF00" d="M480 320h40v40h-40z"/>
  <path fill="#00D500" d="M520 320h40v40h-40zM560 320h40v40h-40z"/>
  <path d="M600 320h40v40h-40zM0 360h40v40H0zM40 360h40v40H40z"/>
  <path fill="#00D500" d="M80 360h40v40H80zM120 360h40v40h-40z"/>
  <path fill="#00A900" d="M160 360h40v40h-40zM200 360h40v40h-40z"/>
  <path fill="#060" d="M240 360h40v40h-40zM280 360h40v40h-40zM320 360h40v40h-40zM360 360h40v40h-40zM400 360h40v40h-40z"/>
  <path fill="#00A900" d="M440 360h40v40h-40zM480 360h40v40h-40z"/>
  <path fill="#00D500" d="M520 360h40v40h-40zM560 360h40v40h-40z"/>
  <path d="M600 360h40v40h-40zM40 400h40v40H40z"/>
  <path fill="#00D500" d="M80 400h40v40H80zM120 400h40v40h-40z"/>
  <path fill="#00A900" d="M160 400h40v40h-40zM200 400h40v40h-40z"/>
  <path fill="#060" d="M240 400h40v40h-40zM280 400h40v40h-40zM320 400h40v40h-40zM360 400h40v40h-40zM400 400h40v40h-40z"/>
  <path fill="#00A900" d="M440 400h40v40h-40zM480 400h40v40h-40z"/>
  <path fill="#00D500" d="M520 400h40v40h-40zM560 400h40v40h-40z"/>
  <path d="M600 400h40v40h-40zM40 440h40v40H40zM80 440h40v40H80zM120 440h40v40h-40z"/>
  <path fill="#00D500" d="M160 440h40v40h-40zM200 440h40v40h-40z"/>
  <path fill="#00A900" d="M240 440h40v40h-40z"/>
  <path fill="#007B00" d="M280 440h40v40h-40z"/>
  <path fill="#060" d="M320 440h40v40h-40z"/>
  <path fill="#007B00" d="M360 440h40v40h-40z"/>
  <path fill="#00A900" d="M400 440h40v40h-40z"/>
  <path fill="#00D500" d="M440 440h40v40h-40zM480 440h40v40h-40z"/>
  <path d="M520 440h40v40h-40zM560 440h40v40h-40zM600 440h40v40h-40zM120 480h40v40h-40zM160 480h40v40h-40z"/>
  <path fill="#00A900" d="M200 480h40v40h-40zM240 480h40v40h-40z"/>
  <path fill="#007B00" d="M280 480h40v40h-40z"/>
  <path fill="#060" d="M320 480h40v40h-40z"/>
  <path fill="#007B00" d="M360 480h40v40h-40z"/>
  <path fill="#00A900" d="M400 480h40v40h-40zM440 480h40v40h-40z"/>
  <path d="M480 480h40v40h-40zM520 480h40v40h-40zM160 520h40v40h-40zM200 520h40v40h-40zM240 520h40v40h-40zM280 520h40v40h-40zM320 520h40v40h-40zM360 520h40v40h-40zM400 520h40v40h-40zM440 520h40v40h-40zM480 520h40v40h-40z"/>
</svg>
