<?xml version="1.0" encoding="utf-8" ?>
<svg baseProfile="full" height="640px" version="1.1" width="640px" xmlns="http://www.w3.org/2000/svg" xmlns:ev="http://www.w3.org/2001/xml-events" xmlns:xlink="http://www.w3.org/1999/xlink"><defs /><rect fill="rgb(198,197,198)" height="40px" width="40px" x="240px" y="0px" /><rect fill="rgb(205,204,204)" height="40px" width="40px" x="280px" y="0px" /><rect fill="rgb(204,204,203)" height="40px" width="40px" x="320px" y="0px" /><rect fill="rgb(195,194,194)" height="40px" width="40px" x="360px" y="0px" /><rect fill="rgb(194,194,193)" height="40px" width="40px" x="160px" y="40px" /><rect fill="rgb(227,226,225)" height="40px" width="40px" x="200px" y="40px" /><rect fill="rgb(238,236,232)" height="40px" width="40px" x="240px" y="40px" /><rect fill="rgb(239,239,237)" height="40px" width="40px" x="280px" y="40px" /><rect fill="rgb(240,239,238)" height="40px" width="40px" x="320px" y="40px" /><rect fill="rgb(235,235,234)" height="40px" width="40px" x="360px" y="40px" /><rect fill="rgb(224,223,222)" height="40px" width="40px" x="400px" y="40px" /><rect fill="rgb(188,188,187)" height="40px" width="40px" x="440px" y="40px" /><rect fill="rgb(140,140,139)" height="40px" width="40px" x="480px" y="40px" /><rect fill="rgb(183,183,182)" height="40px" width="40px" x="120px" y="80px" /><rect fill="rgb(234,233,229)" height="40px" width="40px" x="160px" y="80px" /><rect fill="rgb(239,239,237)" height="40px" width="40px" x="200px" y="80px" /><rect fill="rgb(239,239,237)" height="40px" width="40px" x="240px" y="80px" /><rect fill="rgb(241,241,241)" height="40px" width="40px" x="280px" y="80px" /><rect fill="rgb(242,242,242)" height="40px" width="40px" x="320px" y="80px" /><rect fill="rgb(241,241,241)" height="40px" width="40px" x="360px" y="80px" /><rect fill="rgb(240,240,239)" height="40px" width="40px" x="400px" y="80px" /><rect fill="rgb(238,236,232)" height="40px" width="40px" x="440px" y="80px" /><rect fill="rgb(185,184,183)" height="40px" width="40px" x="480px" y="80px" /><rect fill="rgb(133,133,133)" height="40px" width="40px" x="520px" y="80px" /><rect fill="rgb(164,164,163)" height="40px" width="40px" x="80px" y="120px" /><rect fill="rgb(223,222,218)" height="40px" width="40px" x="120px" y="120px" /><rect fill="rgb(234,233,229)" height="40px" width="40px" x="160px" y="120px" /><rect fill="rgb(239,239,237)" height="40px" width="40px" x="200px" y="120px" /><rect fill="rgb(240,240,239)" height="40px" width="40px" x="240px" y="120px" /><rect fill="rgb(241,241,241)" height="40px" width="40px" x="280px" y="120px" /><rect fill="rgb(242,242,242)" height="40px" width="40px" x="320px" y="120px" /><rect fill="rgb(241,241,241)" height="40px" width="40px" x="360px" y="120px" /><rect fill="rgb(240,240,239)" height="40px" width="40px" x="400px" y="120px" /><rect fill="rgb(238,236,232)" height="40px" width="40px" x="440px" y="120px" /><rect fill="rgb(227,226,221)" height="40px" width="40px" x="480px" y="120px" /><rect fill="rgb(157,157,156)" height="40px" width="40px" x="520px" y="120px" /><rect fill="rgb(117,117,116)" height="40px" width="40px" x="40px" y="160px" /><rect fill="rgb(185,185,182)" height="40px" width="40px" x="80px" y="160px" /><rect fill="rgb(232,231,226)" height="40px" width="40px" x="120px" y="160px" /><rect fill="rgb(238,236,232)" height="40px" width="40px" x="160px" y="160px" /><rect fill="rgb(239,239,237)" height="40px" width="40px" x="200px" y="160px" /><rect fill="rgb(239,239,237)" height="40px" width="40px" x="240px" y="160px" /><rect fill="rgb(240,239,238)" height="40px" width="40px" x="280px" y="160px" /><rect fill="rgb(240,240,239)" height="40px" width="40px" x="320px" y="160px" /><rect fill="rgb(240,240,239)" height="40px" width="40px" x="360px" y="160px" /><rect fill="rgb(240,240,239)" height="40px" width="40px" x="400px" y="160px" /><rect fill="rgb(240,239,238)" height="40px" width="40px" x="440px" y="160px" /><rect fill="rgb(234,233,229)" height="40px" width="40px" x="480px" y="160px" /><rect fill="rgb(181,180,178)" height="40px" width="40px" x="520px" y="160px" /><rect fill="rgb(113,113,112)" height="40px" width="40px" x="560px" y="160px" /><rect fill="rgb(96,96,96)" height="40px" width="40px" x="40px" y="200px" /><rect fill="rgb(174,173,169)" height="40px" width="40px" x="80px" y="200px" /><rect fill="rgb(238,236,232)" height="40px" width="40px" x="120px" y="200px" /><rect fill="rgb(255,255,255)" height="40px" width="40px" x="160px" y="200px" /><rect fill="rgb(255,255,255)" height="40px" width="40px" x="200px" y="200px" /><rect fill="rgb(245,244,243)" height="40px" width="40px" x="240px" y="200px" /><rect fill="rgb(229,229,227)" height="40px" width="40px" x="280px" y="200px" /><rect fill="rgb(230,230,228)" height="40px" width="40px" x="320px" y="200px" /><rect fill="rgb(246,246,244)" height="40px" width="40px" x="360px" y="200px" /><rect fill="rgb(255,255,255)" height="40px" width="40px" x="400px" y="200px" /><rect fill="rgb(255,255,255)" height="40px" width="40px" x="440px" y="200px" /><rect fill="rgb(240,240,239)" height="40px" width="40px" x="480px" y="200px" /><rect fill="rgb(178,177,175)" height="40px" width="40px" x="520px" y="200px" /><rect fill="rgb(88,87,87)" height="40px" width="40px" x="560px" y="200px" /><rect fill="rgb(94,93,92)" height="40px" width="40px" x="40px" y="240px" /><rect fill="rgb(170,168,164)" height="40px" width="40px" x="80px" y="240px" /><rect fill="rgb(223,222,218)" height="40px" width="40px" x="120px" y="240px" /><rect fill="rgb(139,137,135)" height="40px" width="40px" x="160px" y="240px" /><rect fill="rgb(117,117,116)" height="40px" width="40px" x="200px" y="240px" /><rect fill="rgb(216,215,209)" height="40px" width="40px" x="240px" y="240px" /><rect fill="rgb(223,222,218)" height="40px" width="40px" x="280px" y="240px" /><rect fill="rgb(223,222,218)" height="40px" width="40px" x="320px" y="240px" /><rect fill="rgb(215,214,211)" height="40px" width="40px" x="360px" y="240px" /><rect fill="rgb(117,117,116)" height="40px" width="40px" x="400px" y="240px" /><rect fill="rgb(141,140,138)" height="40px" width="40px" x="440px" y="240px" /><rect fill="rgb(229,227,220)" height="40px" width="40px" x="480px" y="240px" /><rect fill="rgb(181,179,175)" height="40px" width="40px" x="520px" y="240px" /><rect fill="rgb(90,90,90)" height="40px" width="40px" x="560px" y="240px" /><rect fill="rgb(90,90,90)" height="40px" width="40px" x="40px" y="280px" /><rect fill="rgb(168,167,163)" height="40px" width="40px" x="80px" y="280px" /><rect fill="rgb(59,58,56)" height="40px" width="40px" x="120px" y="280px" /><rect fill="rgb(5,4,5)" height="40px" width="40px" x="160px" y="280px" /><rect fill="rgb(0,0,0)" height="40px" width="40px" x="200px" y="280px" /><rect fill="rgb(115,114,112)" height="40px" width="40px" x="240px" y="280px" /><rect fill="rgb(248,246,241)" height="40px" width="40px" x="280px" y="280px" /><rect fill="rgb(246,246,244)" height="40px" width="40px" x="320px" y="280px" /><rect fill="rgb(113,112,110)" height="40px" width="40px" x="360px" y="280px" /><rect fill="rgb(0,0,0)" height="40px" width="40px" x="400px" y="280px" /><rect fill="rgb(5,4,5)" height="40px" width="40px" x="440px" y="280px" /><rect fill="rgb(62,61,59)" height="40px" width="40px" x="480px" y="280px" /><rect fill="rgb(185,185,182)" height="40px" width="40px" x="520px" y="280px" /><rect fill="rgb(94,93,92)" height="40px" width="40px" x="560px" y="280px" /><rect fill="rgb(80,80,80)" height="40px" width="40px" x="40px" y="320px" /><rect fill="rgb(162,161,158)" height="40px" width="40px" x="80px" y="320px" /><rect fill="rgb(67,66,67)" height="40px" width="40px" x="120px" y="320px" /><rect fill="rgb(20,20,21)" height="40px" width="40px" x="160px" y="320px" /><rect fill="rgb(53,53,54)" height="40px" width="40px" x="200px" y="320px" /><rect fill="rgb(181,179,175)" height="40px" width="40px" x="240px" y="320px" /><rect fill="rgb(188,186,181)" height="40px" width="40px" x="280px" y="320px" /><rect fill="rgb(195,193,188)" height="40px" width="40px" x="320px" y="320px" /><rect fill="rgb(177,177,173)" height="40px" width="40px" x="360px" y="320px" /><rect fill="rgb(51,51,52)" height="40px" width="40px" x="400px" y="320px" /><rect fill="rgb(17,18,18)" height="40px" width="40px" x="440px" y="320px" /><rect fill="rgb(67,66,67)" height="40px" width="40px" x="480px" y="320px" /><rect fill="rgb(184,183,178)" height="40px" width="40px" x="520px" y="320px" /><rect fill="rgb(84,84,84)" height="40px" width="40px" x="560px" y="320px" /><rect fill="rgb(193,192,188)" height="40px" width="40px" x="80px" y="360px" /><rect fill="rgb(209,208,202)" height="40px" width="40px" x="120px" y="360px" /><rect fill="rgb(153,153,152)" height="40px" width="40px" x="160px" y="360px" /><rect fill="rgb(206,205,201)" height="40px" width="40px" x="200px" y="360px" /><rect fill="rgb(229,227,220)" height="40px" width="40px" x="240px" y="360px" /><rect fill="rgb(45,43,43)" height="40px" width="40px" x="280px" y="360px" /><rect fill="rgb(62,61,59)" height="40px" width="40px" x="320px" y="360px" /><rect fill="rgb(236,233,226)" height="40px" width="40px" x="360px" y="360px" /><rect fill="rgb(206,205,201)" height="40px" width="40px" x="400px" y="360px" /><rect fill="rgb(152,152,151)" height="40px" width="40px" x="440px" y="360px" /><rect fill="rgb(207,205,199)" height="40px" width="40px" x="480px" y="360px" /><rect fill="rgb(213,211,204)" height="40px" width="40px" x="520px" y="360px" /><rect fill="rgb(117,117,116)" height="40px" width="40px" x="560px" y="360px" /><rect fill="rgb(113,113,112)" height="40px" width="40px" x="40px" y="400px" /><rect fill="rgb(202,201,196)" height="40px" width="40px" x="80px" y="400px" /><rect fill="rgb(204,201,193)" height="40px" width="40px" x="120px" y="400px" /><rect fill="rgb(198,195,187)" height="40px" width="40px" x="160px" y="400px" /><rect fill="rgb(171,169,160)" height="40px" width="40px" x="200px" y="400px" /><rect fill="rgb(149,148,142)" height="40px" width="40px" x="240px" y="400px" /><rect fill="rgb(20,20,21)" height="40px" width="40px" x="280px" y="400px" /><rect fill="rgb(20,19,20)" height="40px" width="40px" x="320px" y="400px" /><rect fill="rgb(171,169,160)" height="40px" width="40px" x="360px" y="400px" /><rect fill="rgb(180,178,169)" height="40px" width="40px" x="400px" y="400px" /><rect fill="rgb(204,201,193)" height="40px" width="40px" x="440px" y="400px" /><rect fill="rgb(220,218,208)" height="40px" width="40px" x="480px" y="400px" /><rect fill="rgb(216,215,209)" height="40px" width="40px" x="520px" y="400px" /><rect fill="rgb(130,130,129)" height="40px" width="40px" x="560px" y="400px" /><rect fill="rgb(130,130,129)" height="40px" width="40px" x="80px" y="440px" /><rect fill="rgb(123,123,122)" height="40px" width="40px" x="120px" y="440px" /><rect fill="rgb(100,100,99)" height="40px" width="40px" x="160px" y="440px" /><rect fill="rgb(133,131,125)" height="40px" width="40px" x="200px" y="440px" /><rect fill="rgb(180,178,169)" height="40px" width="40px" x="240px" y="440px" /><rect fill="rgb(163,163,161)" height="40px" width="40px" x="280px" y="440px" /><rect fill="rgb(157,156,155)" height="40px" width="40px" x="320px" y="440px" /><rect fill="rgb(190,188,179)" height="40px" width="40px" x="360px" y="440px" /><rect fill="rgb(168,166,159)" height="40px" width="40px" x="400px" y="440px" /><rect fill="rgb(108,107,106)" height="40px" width="40px" x="440px" y="440px" /><rect fill="rgb(138,138,136)" height="40px" width="40px" x="480px" y="440px" /><rect fill="rgb(130,130,129)" height="40px" width="40px" x="520px" y="440px" /><rect fill="rgb(55,55,56)" height="40px" width="40px" x="160px" y="480px" /><rect fill="rgb(144,144,140)" height="40px" width="40px" x="200px" y="480px" /><rect fill="rgb(188,186,181)" height="40px" width="40px" x="240px" y="480px" /><rect fill="rgb(229,225,215)" height="40px" width="40px" x="280px" y="480px" /><rect fill="rgb(224,221,210)" height="40px" width="40px" x="320px" y="480px" /><rect fill="rgb(198,196,187)" height="40px" width="40px" x="360px" y="480px" /><rect fill="rgb(145,145,141)" height="40px" width="40px" x="400px" y="480px" /><rect fill="rgb(59,59,60)" height="40px" width="40px" x="440px" y="480px" /><rect fill="rgb(107,107,107)" height="40px" width="40px" x="200px" y="520px" /><rect fill="rgb(120,119,119)" height="40px" width="40px" x="240px" y="520px" /><rect fill="rgb(120,119,119)" height="40px" width="40px" x="280px" y="520px" /><rect fill="rgb(109,109,109)" height="40px" width="40px" x="320px" y="520px" /><rect fill="rgb(122,122,121)" height="40px" width="40px" x="360px" y="520px" /><rect fill="rgb(109,109,109)" height="40px" width="40px" x="400px" y="520px" /><rect fill="rgb(79,79,79)" height="40px" width="40px" x="440px" y="520px" /><rect fill="rgb(94,93,92)" height="40px" width="40px" x="200px" y="560px" /><rect fill="rgb(138,138,136)" height="40px" width="40px" x="240px" y="560px" /><rect fill="rgb(96,96,96)" height="40px" width="40px" x="280px" y="560px" /><rect fill="rgb(109,109,109)" height="40px" width="40px" x="320px" y="560px" /><rect fill="rgb(113,113,112)" height="40px" width="40px" x="360px" y="560px" /><rect fill="rgb(126,126,126)" height="40px" width="40px" x="400px" y="560px" /></svg>