<?xml version="1.0" encoding="utf-8" ?>
<svg baseProfile="full" height="640px" version="1.1" width="640px" xmlns="http://www.w3.org/2000/svg" xmlns:ev="http://www.w3.org/2001/xml-events" xmlns:xlink="http://www.w3.org/1999/xlink"><defs /><rect fill="rgb(0,0,0)" height="40px" width="40px" x="240px" y="0px" /><rect fill="rgb(0,0,0)" height="40px" width="40px" x="280px" y="0px" /><rect fill="rgb(0,0,0)" height="40px" width="40px" x="320px" y="0px" /><rect fill="rgb(0,0,0)" height="40px" width="40px" x="240px" y="40px" /><rect fill="rgb(203,228,206)" height="40px" width="40px" x="280px" y="40px" /><rect fill="rgb(0,0,0)" height="40px" width="40px" x="320px" y="40px" /><rect fill="rgb(0,0,0)" height="40px" width="40px" x="200px" y="80px" /><rect fill="rgb(153,181,163)" height="40px" width="40px" x="240px" y="80px" /><rect fill="rgb(203,228,206)" height="40px" width="40px" x="280px" y="80px" /><rect fill="rgb(176,200,180)" height="40px" width="40px" x="320px" y="80px" /><rect fill="rgb(0,0,0)" height="40px" width="40px" x="360px" y="80px" /><rect fill="rgb(0,0,0)" height="40px" width="40px" x="200px" y="120px" /><rect fill="rgb(150,178,161)" height="40px" width="40px" x="240px" y="120px" /><rect fill="rgb(203,228,206)" height="40px" width="40px" x="280px" y="120px" /><rect fill="rgb(170,194,176)" height="40px" width="40px" x="320px" y="120px" /><rect fill="rgb(0,0,0)" height="40px" width="40px" x="360px" y="120px" /><rect fill="rgb(0,0,0)" height="40px" width="40px" x="160px" y="160px" /><rect fill="rgb(150,178,161)" height="40px" width="40px" x="200px" y="160px" /><rect fill="rgb(149,176,158)" height="40px" width="40px" x="240px" y="160px" /><rect fill="rgb(203,228,206)" height="40px" width="40px" x="280px" y="160px" /><rect fill="rgb(172,195,177)" height="40px" width="40px" x="320px" y="160px" /><rect fill="rgb(168,192,174)" height="40px" width="40px" x="360px" y="160px" /><rect fill="rgb(0,0,0)" height="40px" width="40px" x="400px" y="160px" /><rect fill="rgb(0,0,0)" height="40px" width="40px" x="80px" y="200px" /><rect fill="rgb(0,0,0)" height="40px" width="40px" x="120px" y="200px" /><rect fill="rgb(150,178,161)" height="40px" width="40px" x="160px" y="200px" /><rect fill="rgb(153,181,163)" height="40px" width="40px" x="200px" y="200px" /><rect fill="rgb(157,185,167)" height="40px" width="40px" x="240px" y="200px" /><rect fill="rgb(206,232,209)" height="40px" width="40px" x="280px" y="200px" /><rect fill="rgb(191,215,195)" height="40px" width="40px" x="320px" y="200px" /><rect fill="rgb(184,207,187)" height="40px" width="40px" x="360px" y="200px" /><rect fill="rgb(168,192,174)" height="40px" width="40px" x="400px" y="200px" /><rect fill="rgb(0,0,0)" height="40px" width="40px" x="440px" y="200px" /><rect fill="rgb(0,0,0)" height="40px" width="40px" x="480px" y="200px" /><rect fill="rgb(0,0,0)" height="40px" width="40px" x="0px" y="240px" /><rect fill="rgb(0,0,0)" height="40px" width="40px" x="40px" y="240px" /><rect fill="rgb(150,178,161)" height="40px" width="40px" x="80px" y="240px" /><rect fill="rgb(153,181,163)" height="40px" width="40px" x="120px" y="240px" /><rect fill="rgb(149,176,158)" height="40px" width="40px" x="160px" y="240px" /><rect fill="rgb(157,185,167)" height="40px" width="40px" x="200px" y="240px" /><rect fill="rgb(208,234,210)" height="40px" width="40px" x="240px" y="240px" /><rect fill="rgb(214,241,216)" height="40px" width="40px" x="280px" y="240px" /><rect fill="rgb(203,228,206)" height="40px" width="40px" x="320px" y="240px" /><rect fill="rgb(191,215,195)" height="40px" width="40px" x="360px" y="240px" /><rect fill="rgb(172,195,177)" height="40px" width="40px" x="400px" y="240px" /><rect fill="rgb(170,194,176)" height="40px" width="40px" x="440px" y="240px" /><rect fill="rgb(170,194,176)" height="40px" width="40px" x="480px" y="240px" /><rect fill="rgb(0,0,0)" height="40px" width="40px" x="520px" y="240px" /><rect fill="rgb(0,0,0)" height="40px" width="40px" x="560px" y="240px" /><rect fill="rgb(0,0,0)" height="40px" width="40px" x="0px" y="280px" /><rect fill="rgb(205,231,208)" height="40px" width="40px" x="40px" y="280px" /><rect fill="rgb(205,231,208)" height="40px" width="40px" x="80px" y="280px" /><rect fill="rgb(205,231,208)" height="40px" width="40px" x="120px" y="280px" /><rect fill="rgb(205,231,208)" height="40px" width="40px" x="160px" y="280px" /><rect fill="rgb(207,233,210)" height="40px" width="40px" x="200px" y="280px" /><rect fill="rgb(214,241,216)" height="40px" width="40px" x="240px" y="280px" /><rect fill="rgb(214,241,216)" height="40px" width="40px" x="280px" y="280px" /><rect fill="rgb(214,241,216)" height="40px" width="40px" x="320px" y="280px" /><rect fill="rgb(198,224,202)" height="40px" width="40px" x="360px" y="280px" /><rect fill="rgb(196,222,199)" height="40px" width="40px" x="400px" y="280px" /><rect fill="rgb(196,222,199)" height="40px" width="40px" x="440px" y="280px" /><rect fill="rgb(196,222,199)" height="40px" width="40px" x="480px" y="280px" /><rect fill="rgb(196,222,199)" height="40px" width="40px" x="520px" y="280px" /><rect fill="rgb(0,0,0)" height="40px" width="40px" x="560px" y="280px" /><rect fill="rgb(0,0,0)" height="40px" width="40px" x="0px" y="320px" /><rect fill="rgb(0,0,0)" height="40px" width="40px" x="40px" y="320px" /><rect fill="rgb(179,203,184)" height="40px" width="40px" x="80px" y="320px" /><rect fill="rgb(179,203,184)" height="40px" width="40px" x="120px" y="320px" /><rect fill="rgb(183,206,187)" height="40px" width="40px" x="160px" y="320px" /><rect fill="rgb(196,220,199)" height="40px" width="40px" x="200px" y="320px" /><rect fill="rgb(206,232,209)" height="40px" width="40px" x="240px" y="320px" /><rect fill="rgb(214,241,216)" height="40px" width="40px" x="280px" y="320px" /><rect fill="rgb(196,222,199)" height="40px" width="40px" x="320px" y="320px" /><rect fill="rgb(187,209,189)" height="40px" width="40px" x="360px" y="320px" /><rect fill="rgb(167,189,172)" height="40px" width="40px" x="400px" y="320px" /><rect fill="rgb(167,189,172)" height="40px" width="40px" x="440px" y="320px" /><rect fill="rgb(167,189,172)" height="40px" width="40px" x="480px" y="320px" /><rect fill="rgb(0,0,0)" height="40px" width="40px" x="520px" y="320px" /><rect fill="rgb(0,0,0)" height="40px" width="40px" x="560px" y="320px" /><rect fill="rgb(19,19,13)" height="40px" width="40px" x="80px" y="360px" /><rect fill="rgb(19,19,13)" height="40px" width="40px" x="120px" y="360px" /><rect fill="rgb(183,206,187)" height="40px" width="40px" x="160px" y="360px" /><rect fill="rgb(193,216,196)" height="40px" width="40px" x="200px" y="360px" /><rect fill="rgb(196,220,199)" height="40px" width="40px" x="240px" y="360px" /><rect fill="rgb(198,224,202)" height="40px" width="40px" x="280px" y="360px" /><rect fill="rgb(187,209,189)" height="40px" width="40px" x="320px" y="360px" /><rect fill="rgb(175,196,179)" height="40px" width="40px" x="360px" y="360px" /><rect fill="rgb(161,182,165)" height="40px" width="40px" x="400px" y="360px" /><rect fill="rgb(0,0,0)" height="40px" width="40px" x="440px" y="360px" /><rect fill="rgb(0,0,0)" height="40px" width="40px" x="480px" y="360px" /><rect fill="rgb(0,0,0)" height="40px" width="40px" x="160px" y="400px" /><rect fill="rgb(183,206,187)" height="40px" width="40px" x="200px" y="400px" /><rect fill="rgb(183,206,187)" height="40px" width="40px" x="240px" y="400px" /><rect fill="rgb(198,224,202)" height="40px" width="40px" x="280px" y="400px" /><rect fill="rgb(167,189,172)" height="40px" width="40px" x="320px" y="400px" /><rect fill="rgb(161,182,165)" height="40px" width="40px" x="360px" y="400px" /><rect fill="rgb(0,0,0)" height="40px" width="40px" x="400px" y="400px" /><rect fill="rgb(0,0,0)" height="40px" width="40px" x="200px" y="440px" /><rect fill="rgb(179,203,184)" height="40px" width="40px" x="240px" y="440px" /><rect fill="rgb(198,224,202)" height="40px" width="40px" x="280px" y="440px" /><rect fill="rgb(167,189,172)" height="40px" width="40px" x="320px" y="440px" /><rect fill="rgb(0,0,0)" height="40px" width="40px" x="360px" y="440px" /><rect fill="rgb(0,0,0)" height="40px" width="40px" x="200px" y="480px" /><rect fill="rgb(186,210,189)" height="40px" width="40px" x="240px" y="480px" /><rect fill="rgb(198,224,202)" height="40px" width="40px" x="280px" y="480px" /><rect fill="rgb(175,196,179)" height="40px" width="40px" x="320px" y="480px" /><rect fill="rgb(0,0,0)" height="40px" width="40px" x="360px" y="480px" /><rect fill="rgb(0,0,0)" height="40px" width="40px" x="240px" y="520px" /><rect fill="rgb(198,224,202)" height="40px" width="40px" x="280px" y="520px" /><rect fill="rgb(0,0,0)" height="40px" width="40px" x="320px" y="520px" /><rect fill="rgb(0,0,0)" height="40px" width="40px" x="240px" y="560px" /><rect fill="rgb(0,0,0)" height="40px" width="40px" x="280px" y="560px" /><rect fill="rgb(0,0,0)" height="40px" width="40px" x="320px" y="560px" /></svg>