<svg xmlns="http://www.w3.org/2000/svg" width="640" height="640" baseProfile="full">
  <path d="M240 0h40v40h-40zM280 0h40v40h-40zM320 0h40v40h-40zM240 40h40v40h-40z"/>
  <path fill="#CBE4CE" d="M280 40h40v40h-40z"/>
  <path d="M320 40h40v40h-40zM200 80h40v40h-40z"/>
  <path fill="#99B5A3" d="M240 80h40v40h-40z"/>
  <path fill="#CBE4CE" d="M280 80h40v40h-40z"/>
  <path fill="#B0C8B4" d="M320 80h40v40h-40z"/>
  <path d="M360 80h40v40h-40zM200 120h40v40h-40z"/>
  <path fill="#96B2A1" d="M240 120h40v40h-40z"/>
  <path fill="#CBE4CE" d="M280 120h40v40h-40z"/>
  <path fill="#AAC2B0" d="M320 120h40v40h-40z"/>
  <path d="M360 120h40v40h-40zM160 160h40v40h-40z"/>
  <path fill="#96B2A1" d="M200 160h40v40h-40z"/>
  <path fill="#95B09E" d="M240 160h40v40h-40z"/>
  <path fill="#CBE4CE" d="M280 160h40v40h-40z"/>
  <path fill="#ACC3B1" d="M320 160h40v40h-40z"/>
  <path fill="#A8C0AE" d="M360 160h40v40h-40z"/>
  <path d="M400 160h40v40h-40zM80 200h40v40H80zM120 200h40v40h-40z"/>
  <path fill="#96B2A1" d="M160 200h40v40h-40z"/>
  <path fill="#99B5A3" d="M200 200h40v40h-40z"/>
  <path fill="#9DB9A7" d="M240 200h40v40h-40z"/>
  <path fill="#CEE8D1" d="M280 200h40v40h-40z"/>
  <path fill="#BFD7C3" d="M320 200h40v40h-40z"/>
  <path fill="#B8CFBB" d="M360 200h40v40h-40z"/>
  <path fill="#A8C0AE" d="M400 200h40v40h-40z"/>
  <path d="M440 200h40v40h-40zM480 200h40v40h-40zM0 240h40v40H0zM40 240h40v40H40z"/>
  <path fill="#96B2A1" d="M80 240h40v40H80z"/>
  <path fill="#99B5A3" d="M120 240h40v40h-40z"/>
  <path fill="#95B09E" d="M160 240h40v40h-40z"/>
  <path fill="#9DB9A7" d="M200 240h40v40h-40z"/>
  <path fill="#D0EAD2" d="M240 240h40v40h-40z"/>
  <path fill="#D6F1D8" d="M280 240h40v40h-40z"/>
  <path fill="#CBE4CE" d="M320 240h40v40h-40z"/>
  <path fill="#BFD7C3" d="M360 240h40v40h-40z"/>
  <path fill="#ACC3B1" d="M400 240h40v40h-40z"/>
  <path fill="#AAC2B0" d="M440 240h40v40h-40zM480 240h40v40h-40z"/>
  <path d="M520 240h40v40h-40zM560 240h40v40h-40zM0 280h40v40H0z"/>
  <path fill="#CDE7D0" d="M40 280h40v40H40zM80 280h40v40H80zM120 280h40v40h-40zM160 280h40v40h-40z"/>
  <path fill="#CFE9D2" d="M200 280h40v40h-40z"/>
  <path fill="#D6F1D8" d="M240 280h40v40h-40zM280 280h40v40h-40zM320 280h40v40h-40z"/>
  <path fill="#C6E0CA" d="M360 280h40v40h-40z"/>
  <path fill="#C4DEC7" d="M400 280h40v40h-40zM440 280h40v40h-40zM480 280h40v40h-40zM520 280h40v40h-40z"/>
  <path d="M560 280h40v40h-40zM0 320h40v40H0zM40 320h40v40H40z"/>
  <path fill="#B3CBB8" d="M80 320h40v40H80zM120 320h40v40h-40z"/>
  <path fill="#B7CEBB" d="M160 320h40v40h-40z"/>
  <path fill="#C4DCC7" d="M200 320h40v40h-40z"/>
  <path fill="#CEE8D1" d="M240 320h40v40h-40z"/>
  <path fill="#D6F1D8" d="M280 320h40v40h-40z"/>
  <path fill="#C4DEC7" d="M320 320h40v40h-40z"/>
  <path fill="#BBD1BD" d="M360 320h40v40h-40z"/>
  <path fill="#A7BDAC" d="M400 320h40v40h-40zM440 320h40v40h-40zM480 320h40v40h-40z"/>
  <path d="M520 320h40v40h-40zM560 320h40v40h-40z"/>
  <path fill="#13130D" d="M80 360h40v40H80zM120 360h40v40h-40z"/>
  <path fill="#B7CEBB" d="M160 360h40v40h-40z"/>
  <path fill="#C1D8C4" d="M200 360h40v40h-40z"/>
  <path fill="#C4DCC7" d="M240 360h40v40h-40z"/>
  <path fill="#C6E0CA" d="M280 360h40v40h-40z"/>
  <path fill="#BBD1BD" d="M320 360h40v40h-40z"/>
  <path fill="#AFC4B3" d="M360 360h40v40h-40z"/>
  <path fill="#A1B6A5" d="M400 360h40v40h-40z"/>
  <path d="M440 360h40v40h-40zM480 360h40v40h-40zM160 400h40v40h-40z"/>
  <path fill="#B7CEBB" d="M200 400h40v40h-40zM240 400h40v40h-40z"/>
  <path fill="#C6E0CA" d="M280 400h40v40h-40z"/>
  <path fill="#A7BDAC" d="M320 400h40v40h-40z"/>
  <path fill="#A1B6A5" d="M360 400h40v40h-40z"/>
  <path d="M400 400h40v40h-40zM200 440h40v40h-40z"/>
  <path fill="#B3CBB8" d="M240 440h40v40h-40z"/>
  <path fill="#C6E0CA" d="M280 440h40v40h-40z"/>
  <path fill="#A7BDAC" d="M320 440h40v40h-40z"/>
  <path d="M360 440h40v40h-40zM200 480h40v40h-40z"/>
  <path fill="#BAD2BD" d="M240 480h40v40h-40z"/>
  <path fill="#C6E0CA" d="M280 480h40v40h-40z"/>
  <path fill="#AFC4B3" d="M320 480h40v40h-40z"/>
  <path d="M360 480h40v40h-40zM240 520h40v40h-40z"/>
  <path fill="#C6E0CA" d="M280 520h40v40h-40z"/>
  <path d="M320 520h40v40h-40zM240 560h40v40h-40zM280 560h40v40h-40zM320 560h40v40h-40z"/>
</svg>
