<?xml version="1.0" encoding="utf-8" ?>
<svg baseProfile="full" height="640px" version="1.1" width="640px" xmlns="http://www.w3.org/2000/svg" xmlns:ev="http://www.w3.org/2001/xml-events" xmlns:xlink="http://www.w3.org/1999/xlink"><defs /><rect fill="rgb(8,8,8)" height="40px" width="40px" x="280px" y="40px" /><rect fill="rgb(8,8,8)" height="40px" width="40px" x="320px" y="40px" /><rect fill="rgb(8,8,8)" height="40px" width="40px" x="360px" y="40px" /><rect fill="rgb(8,8,8)" height="40px" width="40px" x="400px" y="40px" /><rect fill="rgb(8,8,8)" height="40px" width="40px" x="440px" y="40px" /><rect fill="rgb(8,8,8)" height="40px" width="40px" x="240px" y="80px" /><rect fill="rgb(112,169,119)" height="40px" width="40px" x="280px" y="80px" /><rect fill="rgb(112,169,119)" height="40px" width="40px" x="320px" y="80px" /><rect fill="rgb(168,186,169)" height="40px" width="40px" x="360px" y="80px" /><rect fill="rgb(68,135,75)" height="40px" width="40px" x="400px" y="80px" /><rect fill="rgb(8,8,8)" height="40px" width="40px" x="440px" y="80px" /><rect fill="rgb(8,8,8)" height="40px" width="40px" x="200px" y="120px" /><rect fill="rgb(168,186,169)" height="40px" width="40px" x="240px" y="120px" /><rect fill="rgb(168,186,169)" height="40px" width="40px" x="280px" y="120px" /><rect fill="rgb(168,186,169)" height="40px" width="40px" x="320px" y="120px" /><rect fill="rgb(68,135,75)" height="40px" width="40px" x="360px" y="120px" /><rect fill="rgb(68,135,75)" height="40px" width="40px" x="400px" y="120px" /><rect fill="rgb(8,8,8)" height="40px" width="40px" x="440px" y="120px" /><rect fill="rgb(8,8,8)" height="40px" width="40px" x="200px" y="160px" /><rect fill="rgb(94,161,101)" height="40px" width="40px" x="240px" y="160px" /><rect fill="rgb(94,161,101)" height="40px" width="40px" x="280px" y="160px" /><rect fill="rgb(168,186,169)" height="40px" width="40px" x="320px" y="160px" /><rect fill="rgb(68,135,75)" height="40px" width="40px" x="360px" y="160px" /><rect fill="rgb(68,135,75)" height="40px" width="40px" x="400px" y="160px" /><rect fill="rgb(8,8,8)" height="40px" width="40px" x="440px" y="160px" /><rect fill="rgb(8,8,8)" height="40px" width="40px" x="80px" y="200px" /><rect fill="rgb(8,8,8)" height="40px" width="40px" x="120px" y="200px" /><rect fill="rgb(8,8,8)" height="40px" width="40px" x="160px" y="200px" /><rect fill="rgb(8,8,8)" height="40px" width="40px" x="200px" y="200px" /><rect fill="rgb(70,143,77)" height="40px" width="40px" x="240px" y="200px" /><rect fill="rgb(70,143,77)" height="40px" width="40px" x="280px" y="200px" /><rect fill="rgb(142,162,146)" height="40px" width="40px" x="320px" y="200px" /><rect fill="rgb(45,114,51)" height="40px" width="40px" x="360px" y="200px" /><rect fill="rgb(45,114,51)" height="40px" width="40px" x="400px" y="200px" /><rect fill="rgb(8,8,8)" height="40px" width="40px" x="440px" y="200px" /><rect fill="rgb(8,8,8)" height="40px" width="40px" x="40px" y="240px" /><rect fill="rgb(195,69,68)" height="40px" width="40px" x="80px" y="240px" /><rect fill="rgb(195,69,68)" height="40px" width="40px" x="120px" y="240px" /><rect fill="rgb(206,94,94)" height="40px" width="40px" x="160px" y="240px" /><rect fill="rgb(8,8,8)" height="40px" width="40px" x="200px" y="240px" /><rect fill="rgb(70,143,77)" height="40px" width="40px" x="240px" y="240px" /><rect fill="rgb(70,143,77)" height="40px" width="40px" x="280px" y="240px" /><rect fill="rgb(142,162,146)" height="40px" width="40px" x="320px" y="240px" /><rect fill="rgb(45,114,51)" height="40px" width="40px" x="360px" y="240px" /><rect fill="rgb(34,103,43)" height="40px" width="40px" x="400px" y="240px" /><rect fill="rgb(8,8,8)" height="40px" width="40px" x="440px" y="240px" /><rect fill="rgb(8,8,8)" height="40px" width="40px" x="0px" y="280px" /><rect fill="rgb(206,94,94)" height="40px" width="40px" x="40px" y="280px" /><rect fill="rgb(206,94,94)" height="40px" width="40px" x="80px" y="280px" /><rect fill="rgb(206,94,94)" height="40px" width="40px" x="120px" y="280px" /><rect fill="rgb(161,43,42)" height="40px" width="40px" x="160px" y="280px" /><rect fill="rgb(8,8,8)" height="40px" width="40px" x="200px" y="280px" /><rect fill="rgb(61,133,67)" height="40px" width="40px" x="240px" y="280px" /><rect fill="rgb(61,133,67)" height="40px" width="40px" x="280px" y="280px" /><rect fill="rgb(132,151,137)" height="40px" width="40px" x="320px" y="280px" /><rect fill="rgb(34,103,43)" height="40px" width="40px" x="360px" y="280px" /><rect fill="rgb(34,103,43)" height="40px" width="40px" x="400px" y="280px" /><rect fill="rgb(8,8,8)" height="40px" width="40px" x="440px" y="280px" /><rect fill="rgb(8,8,8)" height="40px" width="40px" x="0px" y="320px" /><rect fill="rgb(178,67,60)" height="40px" width="40px" x="40px" y="320px" /><rect fill="rgb(178,67,60)" height="40px" width="40px" x="80px" y="320px" /><rect fill="rgb(199,84,85)" height="40px" width="40px" x="120px" y="320px" /><rect fill="rgb(158,39,39)" height="40px" width="40px" x="160px" y="320px" /><rect fill="rgb(8,8,8)" height="40px" width="40px" x="200px" y="320px" /><rect fill="rgb(61,133,67)" height="40px" width="40px" x="240px" y="320px" /><rect fill="rgb(61,133,67)" height="40px" width="40px" x="280px" y="320px" /><rect fill="rgb(132,151,137)" height="40px" width="40px" x="320px" y="320px" /><rect fill="rgb(34,103,43)" height="40px" width="40px" x="360px" y="320px" /><rect fill="rgb(27,92,34)" height="40px" width="40px" x="400px" y="320px" /><rect fill="rgb(8,8,8)" height="40px" width="40px" x="440px" y="320px" /><rect fill="rgb(8,8,8)" height="40px" width="40px" x="0px" y="360px" /><rect fill="rgb(178,67,60)" height="40px" width="40px" x="40px" y="360px" /><rect fill="rgb(178,67,60)" height="40px" width="40px" x="80px" y="360px" /><rect fill="rgb(199,84,85)" height="40px" width="40px" x="120px" y="360px" /><rect fill="rgb(158,39,39)" height="40px" width="40px" x="160px" y="360px" /><rect fill="rgb(8,8,8)" height="40px" width="40px" x="200px" y="360px" /><rect fill="rgb(51,121,60)" height="40px" width="40px" x="240px" y="360px" /><rect fill="rgb(51,121,60)" height="40px" width="40px" x="280px" y="360px" /><rect fill="rgb(121,143,122)" height="40px" width="40px" x="320px" y="360px" /><rect fill="rgb(27,92,34)" height="40px" width="40px" x="360px" y="360px" /><rect fill="rgb(27,92,34)" height="40px" width="40px" x="400px" y="360px" /><rect fill="rgb(8,8,8)" height="40px" width="40px" x="440px" y="360px" /><rect fill="rgb(8,8,8)" height="40px" width="40px" x="0px" y="400px" /><rect fill="rgb(167,55,51)" height="40px" width="40px" x="40px" y="400px" /><rect fill="rgb(167,55,51)" height="40px" width="40px" x="80px" y="400px" /><rect fill="rgb(192,73,79)" height="40px" width="40px" x="120px" y="400px" /><rect fill="rgb(148,36,42)" height="40px" width="40px" x="160px" y="400px" /><rect fill="rgb(8,8,8)" height="40px" width="40px" x="200px" y="400px" /><rect fill="rgb(51,121,60)" height="40px" width="40px" x="240px" y="400px" /><rect fill="rgb(51,121,60)" height="40px" width="40px" x="280px" y="400px" /><rect fill="rgb(121,143,122)" height="40px" width="40px" x="320px" y="400px" /><rect fill="rgb(27,92,34)" height="40px" width="40px" x="360px" y="400px" /><rect fill="rgb(21,82,26)" height="40px" width="40px" x="400px" y="400px" /><rect fill="rgb(8,8,8)" height="40px" width="40px" x="440px" y="400px" /><rect fill="rgb(8,8,8)" height="40px" width="40px" x="480px" y="400px" /><rect fill="rgb(8,8,8)" height="40px" width="40px" x="520px" y="400px" /><rect fill="rgb(8,8,8)" height="40px" width="40px" x="560px" y="400px" /><rect fill="rgb(8,8,8)" height="40px" width="40px" x="0px" y="440px" /><rect fill="rgb(167,55,51)" height="40px" width="40px" x="40px" y="440px" /><rect fill="rgb(167,55,51)" height="40px" width="40px" x="80px" y="440px" /><rect fill="rgb(192,73,79)" height="40px" width="40px" x="120px" y="440px" /><rect fill="rgb(148,36,42)" height="40px" width="40px" x="160px" y="440px" /><rect fill="rgb(8,8,8)" height="40px" width="40px" x="200px" y="440px" /><rect fill="rgb(42,111,49)" height="40px" width="40px" x="240px" y="440px" /><rect fill="rgb(42,111,49)" height="40px" width="40px" x="280px" y="440px" /><rect fill="rgb(111,132,114)" height="40px" width="40px" x="320px" y="440px" /><rect fill="rgb(21,82,26)" height="40px" width="40px" x="360px" y="440px" /><rect fill="rgb(21,82,26)" height="40px" width="40px" x="400px" y="440px" /><rect fill="rgb(8,8,8)" height="40px" width="40px" x="440px" y="440px" /><rect fill="rgb(46,63,159)" height="40px" width="40px" x="480px" y="440px" /><rect fill="rgb(46,63,159)" height="40px" width="40px" x="520px" y="440px" /><rect fill="rgb(70,82,166)" height="40px" width="40px" x="560px" y="440px" /><rect fill="rgb(8,8,8)" height="40px" width="40px" x="600px" y="440px" /><rect fill="rgb(8,8,8)" height="40px" width="40px" x="0px" y="480px" /><rect fill="rgb(161,46,46)" height="40px" width="40px" x="40px" y="480px" /><rect fill="rgb(161,46,46)" height="40px" width="40px" x="80px" y="480px" /><rect fill="rgb(192,73,79)" height="40px" width="40px" x="120px" y="480px" /><rect fill="rgb(136,29,37)" height="40px" width="40px" x="160px" y="480px" /><rect fill="rgb(8,8,8)" height="40px" width="40px" x="200px" y="480px" /><rect fill="rgb(42,111,49)" height="40px" width="40px" x="240px" y="480px" /><rect fill="rgb(42,111,49)" height="40px" width="40px" x="280px" y="480px" /><rect fill="rgb(111,132,114)" height="40px" width="40px" x="320px" y="480px" /><rect fill="rgb(21,82,26)" height="40px" width="40px" x="360px" y="480px" /><rect fill="rgb(8,8,8)" height="40px" width="40px" x="400px" y="480px" /><rect fill="rgb(70,82,166)" height="40px" width="40px" x="440px" y="480px" /><rect fill="rgb(70,82,166)" height="40px" width="40px" x="480px" y="480px" /><rect fill="rgb(70,82,166)" height="40px" width="40px" x="520px" y="480px" /><rect fill="rgb(26,35,79)" height="40px" width="40px" x="560px" y="480px" /><rect fill="rgb(8,8,8)" height="40px" width="40px" x="600px" y="480px" /><rect fill="rgb(8,8,8)" height="40px" width="40px" x="0px" y="520px" /><rect fill="rgb(161,46,46)" height="40px" width="40px" x="40px" y="520px" /><rect fill="rgb(161,46,46)" height="40px" width="40px" x="80px" y="520px" /><rect fill="rgb(192,73,79)" height="40px" width="40px" x="120px" y="520px" /><rect fill="rgb(136,29,37)" height="40px" width="40px" x="160px" y="520px" /><rect fill="rgb(8,8,8)" height="40px" width="40px" x="200px" y="520px" /><rect fill="rgb(34,99,40)" height="40px" width="40px" x="240px" y="520px" /><rect fill="rgb(34,99,40)" height="40px" width="40px" x="280px" y="520px" /><rect fill="rgb(105,117,104)" height="40px" width="40px" x="320px" y="520px" /><rect fill="rgb(15,73,20)" height="40px" width="40px" x="360px" y="520px" /><rect fill="rgb(8,8,8)" height="40px" width="40px" x="400px" y="520px" /><rect fill="rgb(49,53,76)" height="40px" width="40px" x="440px" y="520px" /><rect fill="rgb(49,53,76)" height="40px" width="40px" x="480px" y="520px" /><rect fill="rgb(70,82,166)" height="40px" width="40px" x="520px" y="520px" /><rect fill="rgb(26,35,79)" height="40px" width="40px" x="560px" y="520px" /><rect fill="rgb(8,8,8)" height="40px" width="40px" x="600px" y="520px" /><rect fill="rgb(8,8,8)" height="40px" width="40px" x="0px" y="560px" /><rect fill="rgb(154,41,44)" height="40px" width="40px" x="40px" y="560px" /><rect fill="rgb(154,41,44)" height="40px" width="40px" x="80px" y="560px" /><rect fill="rgb(181,58,68)" height="40px" width="40px" x="120px" y="560px" /><rect fill="rgb(136,29,37)" height="40px" width="40px" x="160px" y="560px" /><rect fill="rgb(8,8,8)" height="40px" width="40px" x="200px" y="560px" /><rect fill="rgb(26,89,33)" height="40px" width="40px" x="240px" y="560px" /><rect fill="rgb(26,89,33)" height="40px" width="40px" x="280px" y="560px" /><rect fill="rgb(90,113,91)" height="40px" width="40px" x="320px" y="560px" /><rect fill="rgb(10,61,14)" height="40px" width="40px" x="360px" y="560px" /><rect fill="rgb(8,8,8)" height="40px" width="40px" x="400px" y="560px" /><rect fill="rgb(40,45,68)" height="40px" width="40px" x="440px" y="560px" /><rect fill="rgb(40,45,68)" height="40px" width="40px" x="480px" y="560px" /><rect fill="rgb(48,63,147)" height="40px" width="40px" x="520px" y="560px" /><rect fill="rgb(26,35,79)" height="40px" width="40px" x="560px" y="560px" /><rect fill="rgb(8,8,8)" height="40px" width="40px" x="600px" y="560px" /><rect fill="rgb(8,8,8)" height="40px" width="40px" x="0px" y="600px" /><rect fill="rgb(148,36,42)" height="40px" width="40px" x="40px" y="600px" /><rect fill="rgb(148,36,42)" height="40px" width="40px" x="80px" y="600px" /><rect fill="rgb(181,58,68)" height="40px" width="40px" x="120px" y="600px" /><rect fill="rgb(124,22,34)" height="40px" width="40px" x="160px" y="600px" /><rect fill="rgb(1,1,1)" height="40px" width="40px" x="200px" y="600px" /><rect fill="rgb(26,89,33)" height="40px" width="40px" x="240px" y="600px" /><rect fill="rgb(26,89,33)" height="40px" width="40px" x="280px" y="600px" /><rect fill="rgb(90,113,91)" height="40px" width="40px" x="320px" y="600px" /><rect fill="rgb(10,61,14)" height="40px" width="40px" x="360px" y="600px" /><rect fill="rgb(8,8,8)" height="40px" width="40px" x="400px" y="600px" /><rect fill="rgb(36,44,63)" height="40px" width="40px" x="440px" y="600px" /><rect fill="rgb(36,44,63)" height="40px" width="40px" x="480px" y="600px" /><rect fill="rgb(48,63,147)" height="40px" width="40px" x="520px" y="600px" /><rect fill="rgb(17,23,65)" height="40px" width="40px" x="560px" y="600px" /><rect fill="rgb(8,8,8)" height="40px" width="40px" x="600px" y="600px" /></svg>