<svg xmlns="http://www.w3.org/2000/svg" width="640" height="640" baseProfile="full">
  <path d="M160 160h40v40h-40zM200 160h40v40h-40zM240 160h40v40h-40zM280 160h40v40h-40zM320 160h40v40h-40zM360 160h40v40h-40zM400 160h40v40h-40zM440 160h40v40h-40zM80 200h40v40H80zM120 200h40v40h-40zM160 200h40v40h-40zM200 200h40v40h-40zM240 200h40v40h-40zM280 200h40v40h-40zM320 200h40v40h-40zM360 200h40v40h-40zM400 200h40v40h-40zM440 200h40v40h-40zM480 200h40v40h-40zM520 200h40v40h-40zM40 240h40v40H40zM80 240h40v40H80zM120 240h40v40h-40zM160 240h40v40h-40zM200 240h40v40h-40zM240 240h40v40h-40zM280 240h40v40h-40zM320 240h40v40h-40zM360 240h40v40h-40zM400 240h40v40h-40zM440 240h40v40h-40zM480 240h40v40h-40zM520 240h40v40h-40zM560 240h40v40h-40zM40 280h40v40H40zM80 280h40v40H80z"/>
  <path fill="#FFF" d="M120 280h40v40h-40zM160 280h40v40h-40zM200 280h40v40h-40zM240 280h40v40h-40z"/>
  <path d="M280 280h40v40h-40zM320 280h40v40h-40z"/>
  <path fill="#FFF" d="M360 280h40v40h-40zM400 280h40v40h-40zM440 280h40v40h-40zM480 280h40v40h-40z"/>
  <path d="M520 280h40v40h-40zM560 280h40v40h-40zM40 320h40v40H40zM80 320h40v40H80z"/>
  <path fill="#FFF" d="M120 320h40v40h-40zM160 320h40v40h-40zM200 320h40v40h-40z"/>
  <path d="M240 320h40v40h-40zM280 320h40v40h-40zM320 320h40v40h-40zM360 320h40v40h-40z"/>
  <path fill="#FFF" d="M400 320h40v40h-40zM440 320h40v40h-40zM480 320h40v40h-40z"/>
  <path d="M520 320h40v40h-40zM560 320h40v40h-40zM40 360h40v40H40zM80 360h40v40H80zM120 360h40v40h-40zM160 360h40v40h-40zM200 360h40v40h-40zM240 360h40v40h-40zM280 360h40v40h-40zM320 360h40v40h-40zM360 360h40v40h-40zM400 360h40v40h-40zM440 360h40v40h-40zM480 360h40v40h-40zM520 360h40v40h-40zM560 360h40v40h-40zM80 400h40v40H80zM120 400h40v40h-40zM160 400h40v40h-40zM200 400h40v40h-40zM240 400h40v40h-40zM280 400h40v40h-40zM320 400h40v40h-40zM360 400h40v40h-40zM400 400h40v40h-40zM440 400h40v40h-40zM480 400h40v40h-40zM520 400h40v40h-40zM240 440h40v40h-40zM280 440h40v40h-40zM320 440h40v40h-40zM360 440h40v40h-40z"/>
</svg>
