<svg xmlns="http://www.w3.org/2000/svg" width="640" height="640" baseProfile="full">
  <path d="M160 0h40v40h-40z"/>
  <path fill="#000001" d="M200 0h40v40h-40zM240 0h40v40h-40zM280 0h40v40h-40zM320 0h40v40h-40zM360 0h40v40h-40zM400 0h40v40h-40z"/>
  <path d="M440 0h40v40h-40z"/>
  <path fill="#000001" d="M160 40h40v40h-40z"/>
  <path fill="#096C02" d="M200 40h40v40h-40z"/>
  <path fill="#00A900" d="M240 40h40v40h-40zM280 40h40v40h-40zM320 40h40v40h-40zM360 40h40v40h-40zM400 40h40v40h-40z"/>
  <path fill="#000001" d="M440 40h40v40h-40z"/>
  <path d="M80 80h40v40H80z"/>
  <path fill="#000001" d="M120 80h40v40h-40zM160 80h40v40h-40z"/>
  <path fill="#096C02" d="M200 80h40v40h-40z"/>
  <path fill="#00A900" d="M240 80h40v40h-40zM280 80h40v40h-40zM320 80h40v40h-40zM360 80h40v40h-40zM400 80h40v40h-40z"/>
  <path fill="#000001" d="M440 80h40v40h-40z"/>
  <path d="M480 80h40v40h-40zM520 80h40v40h-40zM40 120h40v40H40z"/>
  <path fill="#000001" d="M80 120h40v40H80z"/>
  <path fill="#096C02" d="M120 120h40v40h-40zM160 120h40v40h-40z"/>
  <path fill="#00A900" d="M200 120h40v40h-40z"/>
  <path fill="#096C02" d="M240 120h40v40h-40z"/>
  <path fill="#00A900" d="M280 120h40v40h-40zM320 120h40v40h-40zM360 120h40v40h-40zM400 120h40v40h-40zM440 120h40v40h-40zM480 120h40v40h-40z"/>
  <path fill="#000001" d="M520 120h40v40h-40z"/>
  <path d="M560 120h40v40h-40z"/>
  <path fill="#000001" d="M40 160h40v40H40z"/>
  <path fill="#096C02" d="M80 160h40v40H80zM120 160h40v40h-40zM160 160h40v40h-40z"/>
  <path fill="#00A900" d="M200 160h40v40h-40zM240 160h40v40h-40z"/>
  <path fill="#096C02" d="M280 160h40v40h-40zM320 160h40v40h-40z"/>
  <path fill="#00A900" d="M360 160h40v40h-40zM400 160h40v40h-40zM440 160h40v40h-40zM480 160h40v40h-40zM520 160h40v40h-40z"/>
  <path d="M560 160h40v40h-40z"/>
  <path fill="#000001" d="M40 200h40v40H40z"/>
  <path fill="#096C02" d="M80 200h40v40H80zM120 200h40v40h-40zM160 200h40v40h-40z"/>
  <path fill="#00A900" d="M200 200h40v40h-40zM240 200h40v40h-40z"/>
  <path fill="#096C02" d="M280 200h40v40h-40zM320 200h40v40h-40zM360 200h40v40h-40z"/>
  <path fill="#00A900" d="M400 200h40v40h-40z"/>
  <path fill="#096C02" d="M440 200h40v40h-40zM480 200h40v40h-40z"/>
  <path fill="#00A900" d="M520 200h40v40h-40z"/>
  <path fill="#000001" d="M560 200h40v40h-40zM40 240h40v40H40z"/>
  <path fill="#096C02" d="M80 240h40v40H80zM120 240h40v40h-40zM160 240h40v40h-40zM200 240h40v40h-40zM240 240h40v40h-40z"/>
  <path fill="#583A0C" d="M280 240h40v40h-40zM320 240h40v40h-40z"/>
  <path fill="#096C02" d="M360 240h40v40h-40zM400 240h40v40h-40zM440 240h40v40h-40z"/>
  <path fill="#583A0C" d="M480 240h40v40h-40z"/>
  <path fill="#096C02" d="M520 240h40v40h-40z"/>
  <path fill="#000001" d="M560 240h40v40h-40zM40 280h40v40H40z"/>
  <path fill="#096C02" d="M80 280h40v40H80zM120 280h40v40h-40z"/>
  <path fill="#583A0C" d="M160 280h40v40h-40z"/>
  <path fill="#096C02" d="M200 280h40v40h-40zM240 280h40v40h-40z"/>
  <path fill="#583A0C" d="M280 280h40v40h-40zM320 280h40v40h-40z"/>
  <path fill="#096C02" d="M360 280h40v40h-40zM400 280h40v40h-40z"/>
  <path fill="#583A0C" d="M440 280h40v40h-40zM480 280h40v40h-40z"/>
  <path fill="#096C02" d="M520 280h40v40h-40z"/>
  <path fill="#000001" d="M560 280h40v40h-40z"/>
  <path d="M40 320h40v40H40z"/>
  <path fill="#000001" d="M80 320h40v40H80zM120 320h40v40h-40zM160 320h40v40h-40z"/>
  <path fill="#583A0C" d="M200 320h40v40h-40z"/>
  <path fill="#096C02" d="M240 320h40v40h-40z"/>
  <path fill="#583A0C" d="M280 320h40v40h-40zM320 320h40v40h-40z"/>
  <path fill="#096C02" d="M360 320h40v40h-40z"/>
  <path fill="#000001" d="M400 320h40v40h-40z"/>
  <path fill="#583A0C" d="M440 320h40v40h-40z"/>
  <path fill="#000001" d="M480 320h40v40h-40zM520 320h40v40h-40z"/>
  <path d="M560 320h40v40h-40z"/>
  <path fill="#000001" d="M160 360h40v40h-40z"/>
  <path fill="#583A0C" d="M200 360h40v40h-40zM240 360h40v40h-40zM280 360h40v40h-40zM320 360h40v40h-40zM360 360h40v40h-40z"/>
  <path fill="#000001" d="M400 360h40v40h-40z"/>
  <path fill="#583A0C" d="M440 360h40v40h-40z"/>
  <path fill="#000001" d="M480 360h40v40h-40z"/>
  <path d="M160 400h40v40h-40z"/>
  <path fill="#000001" d="M200 400h40v40h-40z"/>
  <path fill="#583A0C" d="M240 400h40v40h-40zM280 400h40v40h-40zM320 400h40v40h-40zM360 400h40v40h-40z"/>
  <path fill="#7A3D09" d="M400 400h40v40h-40z"/>
  <path fill="#000001" d="M440 400h40v40h-40z"/>
  <path d="M480 400h40v40h-40z"/>
  <path fill="#000001" d="M200 440h40v40h-40z"/>
  <path fill="#583A0C" d="M240 440h40v40h-40zM280 440h40v40h-40zM320 440h40v40h-40z"/>
  <path fill="#7A3D09" d="M360 440h40v40h-40z"/>
  <path fill="#000001" d="M400 440h40v40h-40z"/>
  <path d="M440 440h40v40h-40z"/>
  <path fill="#000001" d="M200 480h40v40h-40z"/>
  <path fill="#583A0C" d="M240 480h40v40h-40z"/>
  <path fill="#7A3D09" d="M280 480h40v40h-40zM320 480h40v40h-40zM360 480h40v40h-40z"/>
  <path fill="#000001" d="M400 480h40v40h-40z"/>
  <path d="M160 520h40v40h-40z"/>
  <path fill="#000001" d="M200 520h40v40h-40z"/>
  <path fill="#583A0C" d="M240 520h40v40h-40zM280 520h40v40h-40zM320 520h40v40h-40z"/>
  <path fill="#7A3D09" d="M360 520h40v40h-40z"/>
  <path fill="#000001" d="M400 520h40v40h-40z"/>
  <path d="M440 520h40v40h-40z"/>
  <path fill="#000001" d="M160 560h40v40h-40z"/>
  <path fill="#583A0C" d="M200 560h40v40h-40zM240 560h40v40h-40zM280 560h40v40h-40zM320 560h40v40h-40z"/>
  <path fill="#7A3D09" d="M360 560h40v40h-40zM400 560h40v40h-40z"/>
  <path fill="#000001" d="M440 560h40v40h-40z"/>
  <path d="M160 600h40v40h-40zM200 600h40v40h-40zM240 600h40v40h-40zM280 600h40v40h-40zM320 600h40v40h-40zM360 600h40v40h-40zM400 600h40v40h-40zM440 600h40v40h-40z"/>
</svg>
