<svg xmlns="http://www.w3.org/2000/svg" width="520" height="440" baseProfile="full">
  <path fill="#979797" d="M0 0h40v40H0zM240 0h40v40h-40zM480 0h40v40h-40z"/>
  <path fill="#E0E0E0" d="M0 40h40v40H0z"/>
  <path fill="#979797" d="M40 40h40v40H40z"/>
  <path fill="#E0E0E0" d="M200 40h40v40h-40z"/>
  <path fill="#A2A2A2" d="M240 40h40v40h-40z"/>
  <path fill="#979797" d="M280 40h40v40h-40z"/>
  <path fill="#E0E0E0" d="M440 40h40v40h-40z"/>
  <path fill="#979797" d="M480 40h40v40h-40z"/>
  <path fill="#E0E0E0" d="M0 80h40v40H0z"/>
  <path fill="#979797" d="M40 80h40v40H40z"/>
  <path fill="#E0E0E0" d="M200 80h40v40h-40z"/>
  <path fill="#A2A2A2" d="M240 80h40v40h-40z"/>
  <path fill="#979797" d="M280 80h40v40h-40z"/>
  <path fill="#E0E0E0" d="M440 80h40v40h-40z"/>
  <path fill="#979797" d="M480 80h40v40h-40z"/>
  <path fill="#E0E0E0" d="M0 120h40v40H0z"/>
  <path fill="#A2A2A2" d="M40 120h40v40H40z"/>
  <path fill="#979797" d="M80 120h40v40H80z"/>
  <path fill="#E0E0E0" d="M160 120h40v40h-40z"/>
  <path fill="#A2A2A2" d="M200 120h40v40h-40zM240 120h40v40h-40zM280 120h40v40h-40z"/>
  <path fill="#979797" d="M320 120h40v40h-40z"/>
  <path fill="#E0E0E0" d="M400 120h40v40h-40z"/>
  <path fill="#A2A2A2" d="M440 120h40v40h-40z"/>
  <path fill="#979797" d="M480 120h40v40h-40z"/>
  <path fill="#E0E0E0" d="M0 160h40v40H0z"/>
  <path fill="#A2A2A2" d="M40 160h40v40H40z"/>
  <path fill="#979797" d="M80 160h40v40H80z"/>
  <path fill="#E0E0E0" d="M160 160h40v40h-40z"/>
  <path fill="#A2A2A2" d="M200 160h40v40h-40zM240 160h40v40h-40zM280 160h40v40h-40z"/>
  <path fill="#979797" d="M320 160h40v40h-40z"/>
  <path fill="#E0E0E0" d="M400 160h40v40h-40z"/>
  <path fill="#A2A2A2" d="M440 160h40v40h-40z"/>
  <path fill="#979797" d="M480 160h40v40h-40z"/>
  <path fill="#E0E0E0" d="M40 200h40v40H40z"/>
  <path fill="#A2A2A2" d="M80 200h40v40H80zM120 200h40v40h-40zM160 200h40v40h-40zM200 200h40v40h-40zM240 200h40v40h-40zM280 200h40v40h-40zM320 200h40v40h-40zM360 200h40v40h-40zM400 200h40v40h-40z"/>
  <path fill="#979797" d="M440 200h40v40h-40z"/>
  <path fill="#E0E0E0" d="M40 240h40v40H40z"/>
  <path fill="#A2A2A2" d="M80 240h40v40H80zM120 240h40v40h-40zM160 240h40v40h-40zM200 240h40v40h-40zM240 240h40v40h-40zM280 240h40v40h-40zM320 240h40v40h-40zM360 240h40v40h-40zM400 240h40v40h-40z"/>
  <path fill="#979797" d="M440 240h40v40h-40z"/>
  <path fill="#E0E0E0" d="M80 280h40v40H80z"/>
  <path fill="#A2A2A2" d="M120 280h40v40h-40z"/>
  <path d="M160 280h40v40h-40zM200 280h40v40h-40z"/>
  <path fill="#A2A2A2" d="M240 280h40v40h-40z"/>
  <path d="M280 280h40v40h-40zM320 280h40v40h-40z"/>
  <path fill="#A2A2A2" d="M360 280h40v40h-40z"/>
  <path fill="#979797" d="M400 280h40v40h-40z"/>
  <path fill="#E0E0E0" d="M80 320h40v40H80z"/>
  <path fill="#A2A2A2" d="M120 320h40v40h-40z"/>
  <path d="M160 320h40v40h-40z"/>
  <path fill="#A2A2A2" d="M200 320h40v40h-40z"/>
  <path d="M240 320h40v40h-40z"/>
  <path fill="#A2A2A2" d="M280 320h40v40h-40z"/>
  <path d="M320 320h40v40h-40z"/>
  <path fill="#A2A2A2" d="M360 320h40v40h-40z"/>
  <path fill="#979797" d="M400 320h40v40h-40z"/>
  <path fill="#E0E0E0" d="M80 360h40v40H80z"/>
  <path fill="#A2A2A2" d="M120 360h40v40h-40z"/>
  <path d="M160 360h40v40h-40z"/>
  <path fill="#A2A2A2" d="M200 360h40v40h-40z"/>
  <path d="M240 360h40v40h-40z"/>
  <path fill="#A2A2A2" d="M280 360h40v40h-40z"/>
  <path d="M320 360h40v40h-40z"/>
  <path fill="#A2A2A2" d="M360 360h40v40h-40z"/>
  <path fill="#979797" d="M400 360h40v40h-40zM80 400h40v40H80zM120 400h40v40h-40zM160 400h40v40h-40zM200 400h40v40h-40zM240 400h40v40h-40zM280 400h40v40h-40zM320 400h40v40h-40zM360 400h40v40h-40zM400 400h40v40h-40z"/>
</svg>
