<svg xmlns="http://www.w3.org/2000/svg" width="640" height="640" baseProfile="full">
  <path d="M360 0h40v40h-40zM400 0h40v40h-40zM440 0h40v40h-40zM40 40h40v40H40zM80 40h40v40H80zM120 40h40v40h-40zM160 40h40v40h-40zM360 40h40v40h-40z"/>
  <path fill="#777" d="M400 40h40v40h-40z"/>
  <path d="M440 40h40v40h-40zM480 40h40v40h-40zM40 80h40v40H40z"/>
  <path fill="#57310B" d="M80 80h40v40H80zM120 80h40v40h-40z"/>
  <path d="M160 80h40v40h-40zM200 80h40v40h-40zM360 80h40v40h-40z"/>
  <path fill="#777" d="M400 80h40v40h-40zM440 80h40v40h-40z"/>
  <path d="M480 80h40v40h-40zM520 80h40v40h-40zM560 80h40v40h-40zM40 120h40v40H40zM80 120h40v40H80z"/>
  <path fill="#57310B" d="M120 120h40v40h-40zM160 120h40v40h-40z"/>
  <path d="M200 120h40v40h-40zM240 120h40v40h-40zM360 120h40v40h-40zM400 120h40v40h-40z"/>
  <path fill="#777" d="M440 120h40v40h-40zM480 120h40v40h-40zM520 120h40v40h-40z"/>
  <path d="M560 120h40v40h-40zM600 120h40v40h-40zM80 160h40v40H80zM120 160h40v40h-40z"/>
  <path fill="#57310B" d="M160 160h40v40h-40zM200 160h40v40h-40z"/>
  <path d="M240 160h40v40h-40zM280 160h40v40h-40zM320 160h40v40h-40zM360 160h40v40h-40zM400 160h40v40h-40z"/>
  <path fill="#777" d="M440 160h40v40h-40zM480 160h40v40h-40zM520 160h40v40h-40zM560 160h40v40h-40z"/>
  <path d="M600 160h40v40h-40zM120 200h40v40h-40zM160 200h40v40h-40z"/>
  <path fill="#57310B" d="M200 200h40v40h-40zM240 200h40v40h-40z"/>
  <path d="M280 200h40v40h-40zM320 200h40v40h-40z"/>
  <path fill="#72420A" d="M360 200h40v40h-40zM400 200h40v40h-40z"/>
  <path d="M440 200h40v40h-40zM480 200h40v40h-40z"/>
  <path fill="#777" d="M520 200h40v40h-40zM560 200h40v40h-40z"/>
  <path d="M600 200h40v40h-40zM160 240h40v40h-40zM200 240h40v40h-40z"/>
  <path fill="#57310B" d="M240 240h40v40h-40zM280 240h40v40h-40z"/>
  <path d="M320 240h40v40h-40z"/>
  <path fill="#72420A" d="M360 240h40v40h-40z"/>
  <path d="M400 240h40v40h-40zM440 240h40v40h-40zM480 240h40v40h-40zM520 240h40v40h-40z"/>
  <path fill="#777" d="M560 240h40v40h-40z"/>
  <path d="M600 240h40v40h-40zM200 280h40v40h-40zM240 280h40v40h-40z"/>
  <path fill="#57310B" d="M280 280h40v40h-40zM320 280h40v40h-40z"/>
  <path d="M360 280h40v40h-40zM400 280h40v40h-40zM520 280h40v40h-40zM560 280h40v40h-40zM600 280h40v40h-40zM160 320h40v40h-40zM200 320h40v40h-40z"/>
  <path fill="#72420A" d="M240 320h40v40h-40z"/>
  <path d="M280 320h40v40h-40z"/>
  <path fill="#57310B" d="M320 320h40v40h-40zM360 320h40v40h-40z"/>
  <path d="M400 320h40v40h-40zM120 360h40v40h-40zM160 360h40v40h-40z"/>
  <path fill="#72420A" d="M200 360h40v40h-40zM240 360h40v40h-40z"/>
  <path d="M280 360h40v40h-40zM320 360h40v40h-40zM360 360h40v40h-40zM400 360h40v40h-40zM440 360h40v40h-40zM80 400h40v40H80zM120 400h40v40h-40z"/>
  <path fill="#72420A" d="M160 400h40v40h-40zM200 400h40v40h-40z"/>
  <path d="M240 400h40v40h-40zM280 400h40v40h-40zM400 400h40v40h-40zM440 400h40v40h-40zM480 400h40v40h-40zM520 400h40v40h-40zM40 440h40v40H40zM80 440h40v40H80z"/>
  <path fill="#72420A" d="M120 440h40v40h-40zM160 440h40v40h-40z"/>
  <path d="M200 440h40v40h-40zM240 440h40v40h-40zM400 440h40v40h-40z"/>
  <path fill="#777" d="M440 440h40v40h-40zM480 440h40v40h-40z"/>
  <path d="M520 440h40v40h-40zM560 440h40v40h-40zM40 480h40v40H40z"/>
  <path fill="#72420A" d="M80 480h40v40H80zM120 480h40v40h-40z"/>
  <path d="M160 480h40v40h-40zM200 480h40v40h-40zM400 480h40v40h-40zM440 480h40v40h-40zM480 480h40v40h-40z"/>
  <path fill="#777" d="M520 480h40v40h-40z"/>
  <path d="M560 480h40v40h-40zM40 520h40v40H40z"/>
  <path fill="#72420A" d="M80 520h40v40H80zM120 520h40v40h-40z"/>
  <path d="M160 520h40v40h-40zM480 520h40v40h-40zM520 520h40v40h-40zM560 520h40v40h-40zM40 560h40v40H40zM80 560h40v40H80zM120 560h40v40h-40zM160 560h40v40h-40z"/>
</svg>
