<svg xmlns="http://www.w3.org/2000/svg" width="640" height="640" baseProfile="full">
  <path fill="#000001" d="M200 0h40v40h-40zM240 0h40v40h-40z"/>
  <path d="M280 0h40v40h-40z"/>
  <path fill="#000001" d="M160 40h40v40h-40zM200 40h40v40h-40z"/>
  <path fill="#D0B284" d="M240 40h40v40h-40z"/>
  <path fill="#000001" d="M280 40h40v40h-40zM320 40h40v40h-40zM360 40h40v40h-40z"/>
  <path d="M400 40h40v40h-40zM80 80h40v40H80z"/>
  <path fill="#000001" d="M120 80h40v40h-40zM160 80h40v40h-40z"/>
  <path fill="#A1927A" d="M200 80h40v40h-40zM240 80h40v40h-40z"/>
  <path fill="#463C2F" d="M280 80h40v40h-40z"/>
  <path fill="#D0B284" d="M320 80h40v40h-40zM360 80h40v40h-40z"/>
  <path fill="#000001" d="M400 80h40v40h-40z"/>
  <path d="M440 80h40v40h-40z"/>
  <path fill="#000001" d="M80 120h40v40H80z"/>
  <path fill="#D0B284" d="M120 120h40v40h-40zM160 120h40v40h-40z"/>
  <path fill="#463C2F" d="M200 120h40v40h-40z"/>
  <path fill="#A1927A" d="M240 120h40v40h-40z"/>
  <path fill="#D0B284" d="M280 120h40v40h-40zM320 120h40v40h-40zM360 120h40v40h-40z"/>
  <path fill="#463C2F" d="M400 120h40v40h-40z"/>
  <path fill="#000001" d="M440 120h40v40h-40z"/>
  <path d="M480 120h40v40h-40zM40 160h40v40H40z"/>
  <path fill="#000001" d="M80 160h40v40H80z"/>
  <path fill="#D0B284" d="M120 160h40v40h-40z"/>
  <path fill="#A1927A" d="M160 160h40v40h-40zM200 160h40v40h-40zM240 160h40v40h-40z"/>
  <path fill="#463C2F" d="M280 160h40v40h-40z"/>
  <path fill="#A1927A" d="M320 160h40v40h-40z"/>
  <path fill="#463C2F" d="M360 160h40v40h-40z"/>
  <path fill="#A1927A" d="M400 160h40v40h-40z"/>
  <path fill="#463C2F" d="M440 160h40v40h-40z"/>
  <path fill="#000001" d="M480 160h40v40h-40z"/>
  <path d="M520 160h40v40h-40z"/>
  <path fill="#000001" d="M40 200h40v40H40z"/>
  <path fill="#D0B284" d="M80 200h40v40H80z"/>
  <path fill="#A1927A" d="M120 200h40v40h-40zM160 200h40v40h-40z"/>
  <path fill="#463C2F" d="M200 200h40v40h-40z"/>
  <path fill="#A1927A" d="M240 200h40v40h-40z"/>
  <path fill="#463C2F" d="M280 200h40v40h-40zM320 200h40v40h-40z"/>
  <path fill="#A1927A" d="M360 200h40v40h-40zM400 200h40v40h-40z"/>
  <path fill="#463C2F" d="M440 200h40v40h-40z"/>
  <path fill="#D0B284" d="M480 200h40v40h-40z"/>
  <path fill="#000001" d="M520 200h40v40h-40zM40 240h40v40H40z"/>
  <path fill="#D0B284" d="M80 240h40v40H80z"/>
  <path fill="#A1927A" d="M120 240h40v40h-40z"/>
  <path fill="#463C2F" d="M160 240h40v40h-40zM200 240h40v40h-40z"/>
  <path fill="#A1927A" d="M240 240h40v40h-40z"/>
  <path fill="#463C2F" d="M280 240h40v40h-40z"/>
  <path fill="#A1927A" d="M320 240h40v40h-40zM360 240h40v40h-40z"/>
  <path fill="#463C2F" d="M400 240h40v40h-40z"/>
  <path fill="#A1927A" d="M440 240h40v40h-40z"/>
  <path fill="#D0B284" d="M480 240h40v40h-40z"/>
  <path fill="#000001" d="M520 240h40v40h-40zM40 280h40v40H40z"/>
  <path fill="#D0B284" d="M80 280h40v40H80z"/>
  <path fill="#A1927A" d="M120 280h40v40h-40zM160 280h40v40h-40zM200 280h40v40h-40z"/>
  <path fill="#463C2F" d="M240 280h40v40h-40zM280 280h40v40h-40zM320 280h40v40h-40zM360 280h40v40h-40zM400 280h40v40h-40z"/>
  <path fill="#A1927A" d="M440 280h40v40h-40z"/>
  <path fill="#000001" d="M480 280h40v40h-40z"/>
  <path d="M520 280h40v40h-40zM40 320h40v40H40z"/>
  <path fill="#000001" d="M80 320h40v40H80z"/>
  <path fill="#D0B284" d="M120 320h40v40h-40zM160 320h40v40h-40zM200 320h40v40h-40z"/>
  <path fill="#A1927A" d="M240 320h40v40h-40z"/>
  <path fill="#463C2F" d="M280 320h40v40h-40z"/>
  <path fill="#A1927A" d="M320 320h40v40h-40zM360 320h40v40h-40z"/>
  <path fill="#463C2F" d="M400 320h40v40h-40z"/>
  <path fill="#A1927A" d="M440 320h40v40h-40z"/>
  <path fill="#000001" d="M480 320h40v40h-40z"/>
  <path d="M80 360h40v40H80z"/>
  <path fill="#000001" d="M120 360h40v40h-40z"/>
  <path fill="#D0B284" d="M160 360h40v40h-40zM200 360h40v40h-40z"/>
  <path fill="#A1927A" d="M240 360h40v40h-40z"/>
  <path fill="#463C2F" d="M280 360h40v40h-40zM320 360h40v40h-40z"/>
  <path fill="#A1927A" d="M360 360h40v40h-40zM400 360h40v40h-40z"/>
  <path fill="#000001" d="M440 360h40v40h-40zM480 360h40v40h-40zM120 400h40v40h-40z"/>
  <path fill="#D0B284" d="M160 400h40v40h-40zM200 400h40v40h-40z"/>
  <path fill="#A1927A" d="M240 400h40v40h-40zM280 400h40v40h-40z"/>
  <path fill="#463C2F" d="M320 400h40v40h-40z"/>
  <path fill="#A1927A" d="M360 400h40v40h-40zM400 400h40v40h-40z"/>
  <path fill="#000001" d="M440 400h40v40h-40z"/>
  <path d="M120 440h40v40h-40z"/>
  <path fill="#000001" d="M160 440h40v40h-40z"/>
  <path fill="#D0B284" d="M200 440h40v40h-40zM240 440h40v40h-40z"/>
  <path fill="#A1927A" d="M280 440h40v40h-40z"/>
  <path fill="#463C2F" d="M320 440h40v40h-40zM360 440h40v40h-40z"/>
  <path fill="#A1927A" d="M400 440h40v40h-40z"/>
  <path fill="#000001" d="M440 440h40v40h-40zM160 480h40v40h-40z"/>
  <path fill="#D0B284" d="M200 480h40v40h-40zM240 480h40v40h-40z"/>
  <path fill="#A1927A" d="M280 480h40v40h-40zM320 480h40v40h-40zM360 480h40v40h-40z"/>
  <path fill="#D0B284" d="M400 480h40v40h-40z"/>
  <path fill="#000001" d="M440 480h40v40h-40zM160 520h40v40h-40z"/>
  <path fill="#D0B284" d="M200 520h40v40h-40zM240 520h40v40h-40z"/>
  <path fill="#A1927A" d="M280 520h40v40h-40zM320 520h40v40h-40z"/>
  <path fill="#D0B284" d="M360 520h40v40h-40zM400 520h40v40h-40z"/>
  <path fill="#000001" d="M440 520h40v40h-40zM160 560h40v40h-40z"/>
  <path fill="#D0B284" d="M200 560h40v40h-40zM240 560h40v40h-40zM280 560h40v40h-40zM320 560h40v40h-40zM360 560h40v40h-40zM400 560h40v40h-40z"/>
  <path fill="#000001" d="M440 560h40v40h-40z"/>
  <path d="M160 600h40v40h-40zM200 600h40v40h-40zM240 600h40v40h-40zM280 600h40v40h-40zM320 600h40v40h-40zM360 600h40v40h-40zM400 600h40v40h-40z"/>
  <path fill="#000001" d="M440 600h40v40h-40z"/>
</svg>
