<?xml version="1.0" encoding="utf-8" ?>
<svg baseProfile="full" height="440px" version="1.1" width="520px" xmlns="http://www.w3.org/2000/svg" xmlns:ev="http://www.w3.org/2001/xml-events" xmlns:xlink="http://www.w3.org/1999/xlink"><defs /><rect fill="rgb(147,146,146)" height="40px" width="40px" x="0px" y="0px" /><rect fill="rgb(147,146,146)" height="40px" width="40px" x="240px" y="0px" /><rect fill="rgb(147,146,146)" height="40px" width="40px" x="480px" y="0px" /><rect fill="rgb(64,41,160)" height="40px" width="40px" x="0px" y="40px" /><rect fill="rgb(147,146,146)" height="40px" width="40px" x="40px" y="40px" /><rect fill="rgb(64,41,160)" height="40px" width="40px" x="200px" y="40px" /><rect fill="rgb(47,31,120)" height="40px" width="40px" x="240px" y="40px" /><rect fill="rgb(147,146,146)" height="40px" width="40px" x="280px" y="40px" /><rect fill="rgb(64,41,160)" height="40px" width="40px" x="440px" y="40px" /><rect fill="rgb(147,146,146)" height="40px" width="40px" x="480px" y="40px" /><rect fill="rgb(64,41,160)" height="40px" width="40px" x="0px" y="80px" /><rect fill="rgb(147,146,146)" height="40px" width="40px" x="40px" y="80px" /><rect fill="rgb(64,41,160)" height="40px" width="40px" x="200px" y="80px" /><rect fill="rgb(47,31,120)" height="40px" width="40px" x="240px" y="80px" /><rect fill="rgb(147,146,146)" height="40px" width="40px" x="280px" y="80px" /><rect fill="rgb(64,41,160)" height="40px" width="40px" x="440px" y="80px" /><rect fill="rgb(147,146,146)" height="40px" width="40px" x="480px" y="80px" /><rect fill="rgb(64,41,160)" height="40px" width="40px" x="0px" y="120px" /><rect fill="rgb(47,31,120)" height="40px" width="40px" x="40px" y="120px" /><rect fill="rgb(147,146,146)" height="40px" width="40px" x="80px" y="120px" /><rect fill="rgb(64,41,160)" height="40px" width="40px" x="160px" y="120px" /><rect fill="rgb(47,31,120)" height="40px" width="40px" x="200px" y="120px" /><rect fill="rgb(47,31,120)" height="40px" width="40px" x="240px" y="120px" /><rect fill="rgb(47,31,120)" height="40px" width="40px" x="280px" y="120px" /><rect fill="rgb(147,146,146)" height="40px" width="40px" x="320px" y="120px" /><rect fill="rgb(64,41,160)" height="40px" width="40px" x="400px" y="120px" /><rect fill="rgb(47,31,120)" height="40px" width="40px" x="440px" y="120px" /><rect fill="rgb(147,146,146)" height="40px" width="40px" x="480px" y="120px" /><rect fill="rgb(64,41,160)" height="40px" width="40px" x="0px" y="160px" /><rect fill="rgb(47,31,120)" height="40px" width="40px" x="40px" y="160px" /><rect fill="rgb(147,146,146)" height="40px" width="40px" x="80px" y="160px" /><rect fill="rgb(64,41,160)" height="40px" width="40px" x="160px" y="160px" /><rect fill="rgb(47,31,120)" height="40px" width="40px" x="200px" y="160px" /><rect fill="rgb(47,31,120)" height="40px" width="40px" x="240px" y="160px" /><rect fill="rgb(47,31,120)" height="40px" width="40px" x="280px" y="160px" /><rect fill="rgb(147,146,146)" height="40px" width="40px" x="320px" y="160px" /><rect fill="rgb(64,41,160)" height="40px" width="40px" x="400px" y="160px" /><rect fill="rgb(47,31,120)" height="40px" width="40px" x="440px" y="160px" /><rect fill="rgb(147,146,146)" height="40px" width="40px" x="480px" y="160px" /><rect fill="rgb(64,41,160)" height="40px" width="40px" x="40px" y="200px" /><rect fill="rgb(47,31,120)" height="40px" width="40px" x="80px" y="200px" /><rect fill="rgb(47,31,120)" height="40px" width="40px" x="120px" y="200px" /><rect fill="rgb(47,31,120)" height="40px" width="40px" x="160px" y="200px" /><rect fill="rgb(47,31,120)" height="40px" width="40px" x="200px" y="200px" /><rect fill="rgb(47,31,120)" height="40px" width="40px" x="240px" y="200px" /><rect fill="rgb(47,31,120)" height="40px" width="40px" x="280px" y="200px" /><rect fill="rgb(47,31,120)" height="40px" width="40px" x="320px" y="200px" /><rect fill="rgb(47,31,120)" height="40px" width="40px" x="360px" y="200px" /><rect fill="rgb(47,31,120)" height="40px" width="40px" x="400px" y="200px" /><rect fill="rgb(147,146,146)" height="40px" width="40px" x="440px" y="200px" /><rect fill="rgb(64,41,160)" height="40px" width="40px" x="40px" y="240px" /><rect fill="rgb(47,31,120)" height="40px" width="40px" x="80px" y="240px" /><rect fill="rgb(47,31,120)" height="40px" width="40px" x="120px" y="240px" /><rect fill="rgb(47,31,120)" height="40px" width="40px" x="160px" y="240px" /><rect fill="rgb(47,31,120)" height="40px" width="40px" x="200px" y="240px" /><rect fill="rgb(47,31,120)" height="40px" width="40px" x="240px" y="240px" /><rect fill="rgb(47,31,120)" height="40px" width="40px" x="280px" y="240px" /><rect fill="rgb(47,31,120)" height="40px" width="40px" x="320px" y="240px" /><rect fill="rgb(47,31,120)" height="40px" width="40px" x="360px" y="240px" /><rect fill="rgb(47,31,120)" height="40px" width="40px" x="400px" y="240px" /><rect fill="rgb(147,146,146)" height="40px" width="40px" x="440px" y="240px" /><rect fill="rgb(64,41,160)" height="40px" width="40px" x="80px" y="280px" /><rect fill="rgb(47,31,120)" height="40px" width="40px" x="120px" y="280px" /><rect fill="rgb(0,0,0)" height="40px" width="40px" x="160px" y="280px" /><rect fill="rgb(0,0,0)" height="40px" width="40px" x="200px" y="280px" /><rect fill="rgb(47,31,120)" height="40px" width="40px" x="240px" y="280px" /><rect fill="rgb(0,0,0)" height="40px" width="40px" x="280px" y="280px" /><rect fill="rgb(0,0,0)" height="40px" width="40px" x="320px" y="280px" /><rect fill="rgb(47,31,120)" height="40px" width="40px" x="360px" y="280px" /><rect fill="rgb(147,146,146)" height="40px" width="40px" x="400px" y="280px" /><rect fill="rgb(64,41,160)" height="40px" width="40px" x="80px" y="320px" /><rect fill="rgb(47,31,120)" height="40px" width="40px" x="120px" y="320px" /><rect fill="rgb(0,0,0)" height="40px" width="40px" x="160px" y="320px" /><rect fill="rgb(47,31,120)" height="40px" width="40px" x="200px" y="320px" /><rect fill="rgb(0,0,0)" height="40px" width="40px" x="240px" y="320px" /><rect fill="rgb(47,31,120)" height="40px" width="40px" x="280px" y="320px" /><rect fill="rgb(0,0,0)" height="40px" width="40px" x="320px" y="320px" /><rect fill="rgb(47,31,120)" height="40px" width="40px" x="360px" y="320px" /><rect fill="rgb(147,146,146)" height="40px" width="40px" x="400px" y="320px" /><rect fill="rgb(64,41,160)" height="40px" width="40px" x="80px" y="360px" /><rect fill="rgb(47,31,120)" height="40px" width="40px" x="120px" y="360px" /><rect fill="rgb(0,0,0)" height="40px" width="40px" x="160px" y="360px" /><rect fill="rgb(47,31,120)" height="40px" width="40px" x="200px" y="360px" /><rect fill="rgb(0,0,0)" height="40px" width="40px" x="240px" y="360px" /><rect fill="rgb(47,31,120)" height="40px" width="40px" x="280px" y="360px" /><rect fill="rgb(0,0,0)" height="40px" width="40px" x="320px" y="360px" /><rect fill="rgb(47,31,120)" height="40px" width="40px" x="360px" y="360px" /><rect fill="rgb(147,146,146)" height="40px" width="40px" x="400px" y="360px" /><rect fill="rgb(147,146,146)" height="40px" width="40px" x="80px" y="400px" /><rect fill="rgb(147,146,146)" height="40px" width="40px" x="120px" y="400px" /><rect fill="rgb(147,146,146)" height="40px" width="40px" x="160px" y="400px" /><rect fill="rgb(147,146,146)" height="40px" width="40px" x="200px" y="400px" /><rect fill="rgb(147,146,146)" height="40px" width="40px" x="240px" y="400px" /><rect fill="rgb(147,146,146)" height="40px" width="40px" x="280px" y="400px" /><rect fill="rgb(147,146,146)" height="40px" width="40px" x="320px" y="400px" /><rect fill="rgb(147,146,146)" height="40px" width="40px" x="360px" y="400px" /><rect fill="rgb(147,146,146)" height="40px" width="40px" x="400px" y="400px" /></svg>