<?xml version="1.0" encoding="utf-8" ?>
<svg baseProfile="full" height="1000px" version="1.1" width="1000px" xmlns="http://www.w3.org/2000/svg" xmlns:ev="http://www.w3.org/2001/xml-events" xmlns:xlink="http://www.w3.org/1999/xlink"><defs /><rect fill="rgb(55,45,33)" height="40px" width="40px" x="360px" y="0px" /><rect fill="rgb(55,45,33)" height="40px" width="40px" x="400px" y="0px" /><rect fill="rgb(55,45,33)" height="40px" width="40px" x="440px" y="0px" /><rect fill="rgb(55,45,33)" height="40px" width="40px" x="480px" y="0px" /><rect fill="rgb(55,45,33)" height="40px" width="40px" x="520px" y="0px" /><rect fill="rgb(55,45,33)" height="40px" width="40px" x="560px" y="0px" /><rect fill="rgb(55,45,33)" height="40px" width="40px" x="600px" y="0px" /><rect fill="rgb(55,45,33)" height="40px" width="40px" x="280px" y="40px" /><rect fill="rgb(55,45,33)" height="40px" width="40px" x="320px" y="40px" /><rect fill="rgb(55,45,33)" height="40px" width="40px" x="360px" y="40px" /><rect fill="rgb(255,255,255)" height="40px" width="40px" x="400px" y="40px" /><rect fill="rgb(255,255,255)" height="40px" width="40px" x="440px" y="40px" /><rect fill="rgb(255,255,255)" height="40px" width="40px" x="480px" y="40px" /><rect fill="rgb(255,255,255)" height="40px" width="40px" x="520px" y="40px" /><rect fill="rgb(255,255,255)" height="40px" width="40px" x="560px" y="40px" /><rect fill="rgb(55,45,33)" height="40px" width="40px" x="600px" y="40px" /><rect fill="rgb(55,45,33)" height="40px" width="40px" x="640px" y="40px" /><rect fill="rgb(55,45,33)" height="40px" width="40px" x="680px" y="40px" /><rect fill="rgb(55,45,33)" height="40px" width="40px" x="240px" y="80px" /><rect fill="rgb(55,45,33)" height="40px" width="40px" x="280px" y="80px" /><rect fill="rgb(207,185,153)" height="40px" width="40px" x="320px" y="80px" /><rect fill="rgb(255,255,255)" height="40px" width="40px" x="360px" y="80px" /><rect fill="rgb(255,255,255)" height="40px" width="40px" x="400px" y="80px" /><rect fill="rgb(255,255,255)" height="40px" width="40px" x="440px" y="80px" /><rect fill="rgb(255,255,255)" height="40px" width="40px" x="480px" y="80px" /><rect fill="rgb(255,255,255)" height="40px" width="40px" x="520px" y="80px" /><rect fill="rgb(255,255,255)" height="40px" width="40px" x="560px" y="80px" /><rect fill="rgb(255,255,255)" height="40px" width="40px" x="600px" y="80px" /><rect fill="rgb(207,185,153)" height="40px" width="40px" x="640px" y="80px" /><rect fill="rgb(55,45,33)" height="40px" width="40px" x="680px" y="80px" /><rect fill="rgb(55,45,33)" height="40px" width="40px" x="720px" y="80px" /><rect fill="rgb(55,45,33)" height="40px" width="40px" x="240px" y="120px" /><rect fill="rgb(207,185,153)" height="40px" width="40px" x="280px" y="120px" /><rect fill="rgb(255,255,255)" height="40px" width="40px" x="320px" y="120px" /><rect fill="rgb(255,255,255)" height="40px" width="40px" x="360px" y="120px" /><rect fill="rgb(255,255,255)" height="40px" width="40px" x="400px" y="120px" /><rect fill="rgb(255,255,255)" height="40px" width="40px" x="440px" y="120px" /><rect fill="rgb(255,255,255)" height="40px" width="40px" x="480px" y="120px" /><rect fill="rgb(255,255,255)" height="40px" width="40px" x="520px" y="120px" /><rect fill="rgb(255,255,255)" height="40px" width="40px" x="560px" y="120px" /><rect fill="rgb(255,255,255)" height="40px" width="40px" x="600px" y="120px" /><rect fill="rgb(255,255,255)" height="40px" width="40px" x="640px" y="120px" /><rect fill="rgb(207,185,153)" height="40px" width="40px" x="680px" y="120px" /><rect fill="rgb(55,45,33)" height="40px" width="40px" x="720px" y="120px" /><rect fill="rgb(55,45,33)" height="40px" width="40px" x="240px" y="160px" /><rect fill="rgb(207,185,153)" height="40px" width="40px" x="280px" y="160px" /><rect fill="rgb(255,255,255)" height="40px" width="40px" x="320px" y="160px" /><rect fill="rgb(207,185,153)" height="40px" width="40px" x="360px" y="160px" /><rect fill="rgb(207,185,153)" height="40px" width="40px" x="400px" y="160px" /><rect fill="rgb(207,185,153)" height="40px" width="40px" x="440px" y="160px" /><rect fill="rgb(255,255,255)" height="40px" width="40px" x="480px" y="160px" /><rect fill="rgb(207,185,153)" height="40px" width="40px" x="520px" y="160px" /><rect fill="rgb(207,185,153)" height="40px" width="40px" x="560px" y="160px" /><rect fill="rgb(207,185,153)" height="40px" width="40px" x="600px" y="160px" /><rect fill="rgb(255,255,255)" height="40px" width="40px" x="640px" y="160px" /><rect fill="rgb(207,185,153)" height="40px" width="40px" x="680px" y="160px" /><rect fill="rgb(55,45,33)" height="40px" width="40px" x="720px" y="160px" /><rect fill="rgb(55,45,33)" height="40px" width="40px" x="240px" y="200px" /><rect fill="rgb(207,185,153)" height="40px" width="40px" x="280px" y="200px" /><rect fill="rgb(207,185,153)" height="40px" width="40px" x="320px" y="200px" /><rect fill="rgb(55,45,33)" height="40px" width="40px" x="360px" y="200px" /><rect fill="rgb(55,45,33)" height="40px" width="40px" x="400px" y="200px" /><rect fill="rgb(55,45,33)" height="40px" width="40px" x="440px" y="200px" /><rect fill="rgb(207,185,153)" height="40px" width="40px" x="480px" y="200px" /><rect fill="rgb(55,45,33)" height="40px" width="40px" x="520px" y="200px" /><rect fill="rgb(55,45,33)" height="40px" width="40px" x="560px" y="200px" /><rect fill="rgb(55,45,33)" height="40px" width="40px" x="600px" y="200px" /><rect fill="rgb(207,185,153)" height="40px" width="40px" x="640px" y="200px" /><rect fill="rgb(207,185,153)" height="40px" width="40px" x="680px" y="200px" /><rect fill="rgb(55,45,33)" height="40px" width="40px" x="720px" y="200px" /><rect fill="rgb(55,45,33)" height="40px" width="40px" x="240px" y="240px" /><rect fill="rgb(207,185,153)" height="40px" width="40px" x="280px" y="240px" /><rect fill="rgb(55,45,33)" height="40px" width="40px" x="320px" y="240px" /><rect fill="rgb(55,45,33)" height="40px" width="40px" x="360px" y="240px" /><rect fill="rgb(55,45,33)" height="40px" width="40px" x="400px" y="240px" /><rect fill="rgb(55,45,33)" height="40px" width="40px" x="440px" y="240px" /><rect fill="rgb(207,185,153)" height="40px" width="40px" x="480px" y="240px" /><rect fill="rgb(55,45,33)" height="40px" width="40px" x="520px" y="240px" /><rect fill="rgb(55,45,33)" height="40px" width="40px" x="560px" y="240px" /><rect fill="rgb(55,45,33)" height="40px" width="40px" x="600px" y="240px" /><rect fill="rgb(55,45,33)" height="40px" width="40px" x="640px" y="240px" /><rect fill="rgb(207,185,153)" height="40px" width="40px" x="680px" y="240px" /><rect fill="rgb(55,45,33)" height="40px" width="40px" x="720px" y="240px" /><rect fill="rgb(55,45,33)" height="40px" width="40px" x="200px" y="280px" /><rect fill="rgb(55,45,33)" height="40px" width="40px" x="240px" y="280px" /><rect fill="rgb(207,185,153)" height="40px" width="40px" x="280px" y="280px" /><rect fill="rgb(55,45,33)" height="40px" width="40px" x="320px" y="280px" /><rect fill="rgb(55,45,33)" height="40px" width="40px" x="360px" y="280px" /><rect fill="rgb(55,45,33)" height="40px" width="40px" x="400px" y="280px" /><rect fill="rgb(255,255,255)" height="40px" width="40px" x="440px" y="280px" /><rect fill="rgb(255,255,255)" height="40px" width="40px" x="480px" y="280px" /><rect fill="rgb(255,255,255)" height="40px" width="40px" x="520px" y="280px" /><rect fill="rgb(55,45,33)" height="40px" width="40px" x="560px" y="280px" /><rect fill="rgb(55,45,33)" height="40px" width="40px" x="600px" y="280px" /><rect fill="rgb(55,45,33)" height="40px" width="40px" x="640px" y="280px" /><rect fill="rgb(207,185,153)" height="40px" width="40px" x="680px" y="280px" /><rect fill="rgb(55,45,33)" height="40px" width="40px" x="720px" y="280px" /><rect fill="rgb(55,45,33)" height="40px" width="40px" x="760px" y="280px" /><rect fill="rgb(55,45,33)" height="40px" width="40px" x="200px" y="320px" /><rect fill="rgb(207,185,153)" height="40px" width="40px" x="240px" y="320px" /><rect fill="rgb(255,255,255)" height="40px" width="40px" x="280px" y="320px" /><rect fill="rgb(255,255,255)" height="40px" width="40px" x="320px" y="320px" /><rect fill="rgb(255,255,255)" height="40px" width="40px" x="360px" y="320px" /><rect fill="rgb(255,255,255)" height="40px" width="40px" x="400px" y="320px" /><rect fill="rgb(255,255,255)" height="40px" width="40px" x="440px" y="320px" /><rect fill="rgb(55,45,33)" height="40px" width="40px" x="480px" y="320px" /><rect fill="rgb(255,255,255)" height="40px" width="40px" x="520px" y="320px" /><rect fill="rgb(255,255,255)" height="40px" width="40px" x="560px" y="320px" /><rect fill="rgb(255,255,255)" height="40px" width="40px" x="600px" y="320px" /><rect fill="rgb(255,255,255)" height="40px" width="40px" x="640px" y="320px" /><rect fill="rgb(255,255,255)" height="40px" width="40px" x="680px" y="320px" /><rect fill="rgb(207,185,153)" height="40px" width="40px" x="720px" y="320px" /><rect fill="rgb(55,45,33)" height="40px" width="40px" x="760px" y="320px" /><rect fill="rgb(55,45,33)" height="40px" width="40px" x="200px" y="360px" /><rect fill="rgb(207,185,153)" height="40px" width="40px" x="240px" y="360px" /><rect fill="rgb(207,185,153)" height="40px" width="40px" x="280px" y="360px" /><rect fill="rgb(255,255,255)" height="40px" width="40px" x="320px" y="360px" /><rect fill="rgb(255,255,255)" height="40px" width="40px" x="360px" y="360px" /><rect fill="rgb(255,255,255)" height="40px" width="40px" x="400px" y="360px" /><rect fill="rgb(55,45,33)" height="40px" width="40px" x="440px" y="360px" /><rect fill="rgb(55,45,33)" height="40px" width="40px" x="480px" y="360px" /><rect fill="rgb(55,45,33)" height="40px" width="40px" x="520px" y="360px" /><rect fill="rgb(255,255,255)" height="40px" width="40px" x="560px" y="360px" /><rect fill="rgb(255,255,255)" height="40px" width="40px" x="600px" y="360px" /><rect fill="rgb(255,255,255)" height="40px" width="40px" x="640px" y="360px" /><rect fill="rgb(207,185,153)" height="40px" width="40px" x="680px" y="360px" /><rect fill="rgb(207,185,153)" height="40px" width="40px" x="720px" y="360px" /><rect fill="rgb(55,45,33)" height="40px" width="40px" x="760px" y="360px" /><rect fill="rgb(55,45,33)" height="40px" width="40px" x="40px" y="400px" /><rect fill="rgb(55,45,33)" height="40px" width="40px" x="80px" y="400px" /><rect fill="rgb(55,45,33)" height="40px" width="40px" x="120px" y="400px" /><rect fill="rgb(55,45,33)" height="40px" width="40px" x="160px" y="400px" /><rect fill="rgb(55,45,33)" height="40px" width="40px" x="200px" y="400px" /><rect fill="rgb(207,185,153)" height="40px" width="40px" x="240px" y="400px" /><rect fill="rgb(207,185,153)" height="40px" width="40px" x="280px" y="400px" /><rect fill="rgb(207,185,153)" height="40px" width="40px" x="320px" y="400px" /><rect fill="rgb(255,255,255)" height="40px" width="40px" x="360px" y="400px" /><rect fill="rgb(255,255,255)" height="40px" width="40px" x="400px" y="400px" /><rect fill="rgb(255,255,255)" height="40px" width="40px" x="440px" y="400px" /><rect fill="rgb(255,255,255)" height="40px" width="40px" x="480px" y="400px" /><rect fill="rgb(255,255,255)" height="40px" width="40px" x="520px" y="400px" /><rect fill="rgb(255,255,255)" height="40px" width="40px" x="560px" y="400px" /><rect fill="rgb(255,255,255)" height="40px" width="40px" x="600px" y="400px" /><rect fill="rgb(207,185,153)" height="40px" width="40px" x="640px" y="400px" /><rect fill="rgb(207,185,153)" height="40px" width="40px" x="680px" y="400px" /><rect fill="rgb(207,185,153)" height="40px" width="40px" x="720px" y="400px" /><rect fill="rgb(55,45,33)" height="40px" width="40px" x="760px" y="400px" /><rect fill="rgb(55,45,33)" height="40px" width="40px" x="800px" y="400px" /><rect fill="rgb(55,45,33)" height="40px" width="40px" x="840px" y="400px" /><rect fill="rgb(55,45,33)" height="40px" width="40px" x="880px" y="400px" /><rect fill="rgb(55,45,33)" height="40px" width="40px" x="920px" y="400px" /><rect fill="rgb(55,45,33)" height="40px" width="40px" x="0px" y="440px" /><rect fill="rgb(55,45,33)" height="40px" width="40px" x="40px" y="440px" /><rect fill="rgb(255,255,255)" height="40px" width="40px" x="80px" y="440px" /><rect fill="rgb(255,255,255)" height="40px" width="40px" x="120px" y="440px" /><rect fill="rgb(255,255,255)" height="40px" width="40px" x="160px" y="440px" /><rect fill="rgb(207,185,153)" height="40px" width="40px" x="200px" y="440px" /><rect fill="rgb(55,45,33)" height="40px" width="40px" x="240px" y="440px" /><rect fill="rgb(55,45,33)" height="40px" width="40px" x="280px" y="440px" /><rect fill="rgb(207,185,153)" height="40px" width="40px" x="320px" y="440px" /><rect fill="rgb(255,255,255)" height="40px" width="40px" x="360px" y="440px" /><rect fill="rgb(55,45,33)" height="40px" width="40px" x="400px" y="440px" /><rect fill="rgb(255,255,255)" height="40px" width="40px" x="440px" y="440px" /><rect fill="rgb(55,45,33)" height="40px" width="40px" x="480px" y="440px" /><rect fill="rgb(255,255,255)" height="40px" width="40px" x="520px" y="440px" /><rect fill="rgb(55,45,33)" height="40px" width="40px" x="560px" y="440px" /><rect fill="rgb(255,255,255)" height="40px" width="40px" x="600px" y="440px" /><rect fill="rgb(207,185,153)" height="40px" width="40px" x="640px" y="440px" /><rect fill="rgb(55,45,33)" height="40px" width="40px" x="680px" y="440px" /><rect fill="rgb(55,45,33)" height="40px" width="40px" x="720px" y="440px" /><rect fill="rgb(55,45,33)" height="40px" width="40px" x="760px" y="440px" /><rect fill="rgb(255,255,255)" height="40px" width="40px" x="800px" y="440px" /><rect fill="rgb(255,255,255)" height="40px" width="40px" x="840px" y="440px" /><rect fill="rgb(255,255,255)" height="40px" width="40px" x="880px" y="440px" /><rect fill="rgb(55,45,33)" height="40px" width="40px" x="920px" y="440px" /><rect fill="rgb(55,45,33)" height="40px" width="40px" x="960px" y="440px" /><rect fill="rgb(55,45,33)" height="40px" width="40px" x="0px" y="480px" /><rect fill="rgb(207,185,153)" height="40px" width="40px" x="40px" y="480px" /><rect fill="rgb(255,255,255)" height="40px" width="40px" x="80px" y="480px" /><rect fill="rgb(255,255,255)" height="40px" width="40px" x="120px" y="480px" /><rect fill="rgb(255,255,255)" height="40px" width="40px" x="160px" y="480px" /><rect fill="rgb(255,255,255)" height="40px" width="40px" x="200px" y="480px" /><rect fill="rgb(207,185,153)" height="40px" width="40px" x="240px" y="480px" /><rect fill="rgb(55,45,33)" height="40px" width="40px" x="280px" y="480px" /><rect fill="rgb(55,45,33)" height="40px" width="40px" x="320px" y="480px" /><rect fill="rgb(207,185,153)" height="40px" width="40px" x="360px" y="480px" /><rect fill="rgb(55,45,33)" height="40px" width="40px" x="400px" y="480px" /><rect fill="rgb(255,255,255)" height="40px" width="40px" x="440px" y="480px" /><rect fill="rgb(55,45,33)" height="40px" width="40px" x="480px" y="480px" /><rect fill="rgb(255,255,255)" height="40px" width="40px" x="520px" y="480px" /><rect fill="rgb(55,45,33)" height="40px" width="40px" x="560px" y="480px" /><rect fill="rgb(207,185,153)" height="40px" width="40px" x="600px" y="480px" /><rect fill="rgb(55,45,33)" height="40px" width="40px" x="640px" y="480px" /><rect fill="rgb(55,45,33)" height="40px" width="40px" x="680px" y="480px" /><rect fill="rgb(207,185,153)" height="40px" width="40px" x="720px" y="480px" /><rect fill="rgb(207,185,153)" height="40px" width="40px" x="760px" y="480px" /><rect fill="rgb(255,255,255)" height="40px" width="40px" x="800px" y="480px" /><rect fill="rgb(255,255,255)" height="40px" width="40px" x="840px" y="480px" /><rect fill="rgb(255,255,255)" height="40px" width="40px" x="880px" y="480px" /><rect fill="rgb(207,185,153)" height="40px" width="40px" x="920px" y="480px" /><rect fill="rgb(55,45,33)" height="40px" width="40px" x="960px" y="480px" /><rect fill="rgb(55,45,33)" height="40px" width="40px" x="0px" y="520px" /><rect fill="rgb(207,185,153)" height="40px" width="40px" x="40px" y="520px" /><rect fill="rgb(207,185,153)" height="40px" width="40px" x="80px" y="520px" /><rect fill="rgb(207,185,153)" height="40px" width="40px" x="120px" y="520px" /><rect fill="rgb(255,255,255)" height="40px" width="40px" x="160px" y="520px" /><rect fill="rgb(255,255,255)" height="40px" width="40px" x="200px" y="520px" /><rect fill="rgb(207,185,153)" height="40px" width="40px" x="240px" y="520px" /><rect fill="rgb(207,185,153)" height="40px" width="40px" x="280px" y="520px" /><rect fill="rgb(55,45,33)" height="40px" width="40px" x="320px" y="520px" /><rect fill="rgb(207,185,153)" height="40px" width="40px" x="360px" y="520px" /><rect fill="rgb(207,185,153)" height="40px" width="40px" x="400px" y="520px" /><rect fill="rgb(255,255,255)" height="40px" width="40px" x="440px" y="520px" /><rect fill="rgb(255,255,255)" height="40px" width="40px" x="480px" y="520px" /><rect fill="rgb(255,255,255)" height="40px" width="40px" x="520px" y="520px" /><rect fill="rgb(207,185,153)" height="40px" width="40px" x="560px" y="520px" /><rect fill="rgb(207,185,153)" height="40px" width="40px" x="600px" y="520px" /><rect fill="rgb(55,45,33)" height="40px" width="40px" x="640px" y="520px" /><rect fill="rgb(207,185,153)" height="40px" width="40px" x="680px" y="520px" /><rect fill="rgb(207,185,153)" height="40px" width="40px" x="720px" y="520px" /><rect fill="rgb(255,255,255)" height="40px" width="40px" x="760px" y="520px" /><rect fill="rgb(255,255,255)" height="40px" width="40px" x="800px" y="520px" /><rect fill="rgb(207,185,153)" height="40px" width="40px" x="840px" y="520px" /><rect fill="rgb(207,185,153)" height="40px" width="40px" x="880px" y="520px" /><rect fill="rgb(207,185,153)" height="40px" width="40px" x="920px" y="520px" /><rect fill="rgb(55,45,33)" height="40px" width="40px" x="960px" y="520px" /><rect fill="rgb(55,45,33)" height="40px" width="40px" x="0px" y="560px" /><rect fill="rgb(55,45,33)" height="40px" width="40px" x="40px" y="560px" /><rect fill="rgb(55,45,33)" height="40px" width="40px" x="80px" y="560px" /><rect fill="rgb(207,185,153)" height="40px" width="40px" x="120px" y="560px" /><rect fill="rgb(207,185,153)" height="40px" width="40px" x="160px" y="560px" /><rect fill="rgb(207,185,153)" height="40px" width="40px" x="200px" y="560px" /><rect fill="rgb(255,255,255)" height="40px" width="40px" x="240px" y="560px" /><rect fill="rgb(207,185,153)" height="40px" width="40px" x="280px" y="560px" /><rect fill="rgb(55,45,33)" height="40px" width="40px" x="320px" y="560px" /><rect fill="rgb(55,45,33)" height="40px" width="40px" x="360px" y="560px" /><rect fill="rgb(55,45,33)" height="40px" width="40px" x="400px" y="560px" /><rect fill="rgb(207,185,153)" height="40px" width="40px" x="440px" y="560px" /><rect fill="rgb(207,185,153)" height="40px" width="40px" x="480px" y="560px" /><rect fill="rgb(207,185,153)" height="40px" width="40px" x="520px" y="560px" /><rect fill="rgb(55,45,33)" height="40px" width="40px" x="560px" y="560px" /><rect fill="rgb(55,45,33)" height="40px" width="40px" x="600px" y="560px" /><rect fill="rgb(55,45,33)" height="40px" width="40px" x="640px" y="560px" /><rect fill="rgb(207,185,153)" height="40px" width="40px" x="680px" y="560px" /><rect fill="rgb(255,255,255)" height="40px" width="40px" x="720px" y="560px" /><rect fill="rgb(207,185,153)" height="40px" width="40px" x="760px" y="560px" /><rect fill="rgb(207,185,153)" height="40px" width="40px" x="800px" y="560px" /><rect fill="rgb(207,185,153)" height="40px" width="40px" x="840px" y="560px" /><rect fill="rgb(55,45,33)" height="40px" width="40px" x="880px" y="560px" /><rect fill="rgb(55,45,33)" height="40px" width="40px" x="920px" y="560px" /><rect fill="rgb(55,45,33)" height="40px" width="40px" x="960px" y="560px" /><rect fill="rgb(55,45,33)" height="40px" width="40px" x="80px" y="600px" /><rect fill="rgb(55,45,33)" height="40px" width="40px" x="120px" y="600px" /><rect fill="rgb(55,45,33)" height="40px" width="40px" x="160px" y="600px" /><rect fill="rgb(207,185,153)" height="40px" width="40px" x="200px" y="600px" /><rect fill="rgb(207,185,153)" height="40px" width="40px" x="240px" y="600px" /><rect fill="rgb(207,185,153)" height="40px" width="40px" x="280px" y="600px" /><rect fill="rgb(207,185,153)" height="40px" width="40px" x="320px" y="600px" /><rect fill="rgb(207,185,153)" height="40px" width="40px" x="360px" y="600px" /><rect fill="rgb(55,45,33)" height="40px" width="40px" x="400px" y="600px" /><rect fill="rgb(55,45,33)" height="40px" width="40px" x="440px" y="600px" /><rect fill="rgb(55,45,33)" height="40px" width="40px" x="480px" y="600px" /><rect fill="rgb(55,45,33)" height="40px" width="40px" x="520px" y="600px" /><rect fill="rgb(55,45,33)" height="40px" width="40px" x="560px" y="600px" /><rect fill="rgb(207,185,153)" height="40px" width="40px" x="600px" y="600px" /><rect fill="rgb(207,185,153)" height="40px" width="40px" x="640px" y="600px" /><rect fill="rgb(207,185,153)" height="40px" width="40px" x="680px" y="600px" /><rect fill="rgb(207,185,153)" height="40px" width="40px" x="720px" y="600px" /><rect fill="rgb(207,185,153)" height="40px" width="40px" x="760px" y="600px" /><rect fill="rgb(55,45,33)" height="40px" width="40px" x="800px" y="600px" /><rect fill="rgb(55,45,33)" height="40px" width="40px" x="840px" y="600px" /><rect fill="rgb(55,45,33)" height="40px" width="40px" x="880px" y="600px" /><rect fill="rgb(55,45,33)" height="40px" width="40px" x="160px" y="640px" /><rect fill="rgb(55,45,33)" height="40px" width="40px" x="200px" y="640px" /><rect fill="rgb(55,45,33)" height="40px" width="40px" x="240px" y="640px" /><rect fill="rgb(55,45,33)" height="40px" width="40px" x="280px" y="640px" /><rect fill="rgb(207,185,153)" height="40px" width="40px" x="320px" y="640px" /><rect fill="rgb(207,185,153)" height="40px" width="40px" x="360px" y="640px" /><rect fill="rgb(207,185,153)" height="40px" width="40px" x="400px" y="640px" /><rect fill="rgb(207,185,153)" height="40px" width="40px" x="440px" y="640px" /><rect fill="rgb(207,185,153)" height="40px" width="40px" x="480px" y="640px" /><rect fill="rgb(207,185,153)" height="40px" width="40px" x="520px" y="640px" /><rect fill="rgb(207,185,153)" height="40px" width="40px" x="560px" y="640px" /><rect fill="rgb(207,185,153)" height="40px" width="40px" x="600px" y="640px" /><rect fill="rgb(207,185,153)" height="40px" width="40px" x="640px" y="640px" /><rect fill="rgb(55,45,33)" height="40px" width="40px" x="680px" y="640px" /><rect fill="rgb(55,45,33)" height="40px" width="40px" x="720px" y="640px" /><rect fill="rgb(55,45,33)" height="40px" width="40px" x="760px" y="640px" /><rect fill="rgb(55,45,33)" height="40px" width="40px" x="800px" y="640px" /><rect fill="rgb(55,45,33)" height="40px" width="40px" x="280px" y="680px" /><rect fill="rgb(55,45,33)" height="40px" width="40px" x="320px" y="680px" /><rect fill="rgb(55,45,33)" height="40px" width="40px" x="360px" y="680px" /><rect fill="rgb(207,185,153)" height="40px" width="40px" x="400px" y="680px" /><rect fill="rgb(255,255,255)" height="40px" width="40px" x="440px" y="680px" /><rect fill="rgb(255,255,255)" height="40px" width="40px" x="480px" y="680px" /><rect fill="rgb(255,255,255)" height="40px" width="40px" x="520px" y="680px" /><rect fill="rgb(207,185,153)" height="40px" width="40px" x="560px" y="680px" /><rect fill="rgb(55,45,33)" height="40px" width="40px" x="600px" y="680px" /><rect fill="rgb(55,45,33)" height="40px" width="40px" x="640px" y="680px" /><rect fill="rgb(55,45,33)" height="40px" width="40px" x="680px" y="680px" /><rect fill="rgb(55,45,33)" height="40px" width="40px" x="160px" y="720px" /><rect fill="rgb(55,45,33)" height="40px" width="40px" x="200px" y="720px" /><rect fill="rgb(55,45,33)" height="40px" width="40px" x="240px" y="720px" /><rect fill="rgb(55,45,33)" height="40px" width="40px" x="280px" y="720px" /><rect fill="rgb(255,255,255)" height="40px" width="40px" x="320px" y="720px" /><rect fill="rgb(255,255,255)" height="40px" width="40px" x="360px" y="720px" /><rect fill="rgb(255,255,255)" height="40px" width="40px" x="400px" y="720px" /><rect fill="rgb(255,255,255)" height="40px" width="40px" x="440px" y="720px" /><rect fill="rgb(255,255,255)" height="40px" width="40px" x="480px" y="720px" /><rect fill="rgb(255,255,255)" height="40px" width="40px" x="520px" y="720px" /><rect fill="rgb(255,255,255)" height="40px" width="40px" x="560px" y="720px" /><rect fill="rgb(255,255,255)" height="40px" width="40px" x="600px" y="720px" /><rect fill="rgb(255,255,255)" height="40px" width="40px" x="640px" y="720px" /><rect fill="rgb(55,45,33)" height="40px" width="40px" x="680px" y="720px" /><rect fill="rgb(55,45,33)" height="40px" width="40px" x="720px" y="720px" /><rect fill="rgb(55,45,33)" height="40px" width="40px" x="760px" y="720px" /><rect fill="rgb(55,45,33)" height="40px" width="40px" x="800px" y="720px" /><rect fill="rgb(55,45,33)" height="40px" width="40px" x="40px" y="760px" /><rect fill="rgb(55,45,33)" height="40px" width="40px" x="80px" y="760px" /><rect fill="rgb(55,45,33)" height="40px" width="40px" x="120px" y="760px" /><rect fill="rgb(55,45,33)" height="40px" width="40px" x="160px" y="760px" /><rect fill="rgb(255,255,255)" height="40px" width="40px" x="200px" y="760px" /><rect fill="rgb(255,255,255)" height="40px" width="40px" x="240px" y="760px" /><rect fill="rgb(255,255,255)" height="40px" width="40px" x="280px" y="760px" /><rect fill="rgb(255,255,255)" height="40px" width="40px" x="320px" y="760px" /><rect fill="rgb(207,185,153)" height="40px" width="40px" x="360px" y="760px" /><rect fill="rgb(207,185,153)" height="40px" width="40px" x="400px" y="760px" /><rect fill="rgb(207,185,153)" height="40px" width="40px" x="440px" y="760px" /><rect fill="rgb(207,185,153)" height="40px" width="40px" x="480px" y="760px" /><rect fill="rgb(207,185,153)" height="40px" width="40px" x="520px" y="760px" /><rect fill="rgb(207,185,153)" height="40px" width="40px" x="560px" y="760px" /><rect fill="rgb(207,185,153)" height="40px" width="40px" x="600px" y="760px" /><rect fill="rgb(255,255,255)" height="40px" width="40px" x="640px" y="760px" /><rect fill="rgb(255,255,255)" height="40px" width="40px" x="680px" y="760px" /><rect fill="rgb(255,255,255)" height="40px" width="40px" x="720px" y="760px" /><rect fill="rgb(255,255,255)" height="40px" width="40px" x="760px" y="760px" /><rect fill="rgb(55,45,33)" height="40px" width="40px" x="800px" y="760px" /><rect fill="rgb(55,45,33)" height="40px" width="40px" x="840px" y="760px" /><rect fill="rgb(55,45,33)" height="40px" width="40px" x="880px" y="760px" /><rect fill="rgb(55,45,33)" height="40px" width="40px" x="920px" y="760px" /><rect fill="rgb(55,45,33)" height="40px" width="40px" x="0px" y="800px" /><rect fill="rgb(55,45,33)" height="40px" width="40px" x="40px" y="800px" /><rect fill="rgb(255,255,255)" height="40px" width="40px" x="80px" y="800px" /><rect fill="rgb(255,255,255)" height="40px" width="40px" x="120px" y="800px" /><rect fill="rgb(255,255,255)" height="40px" width="40px" x="160px" y="800px" /><rect fill="rgb(255,255,255)" height="40px" width="40px" x="200px" y="800px" /><rect fill="rgb(255,255,255)" height="40px" width="40px" x="240px" y="800px" /><rect fill="rgb(207,185,153)" height="40px" width="40px" x="280px" y="800px" /><rect fill="rgb(207,185,153)" height="40px" width="40px" x="320px" y="800px" /><rect fill="rgb(207,185,153)" height="40px" width="40px" x="360px" y="800px" /><rect fill="rgb(55,45,33)" height="40px" width="40px" x="400px" y="800px" /><rect fill="rgb(55,45,33)" height="40px" width="40px" x="440px" y="800px" /><rect fill="rgb(55,45,33)" height="40px" width="40px" x="480px" y="800px" /><rect fill="rgb(55,45,33)" height="40px" width="40px" x="520px" y="800px" /><rect fill="rgb(55,45,33)" height="40px" width="40px" x="560px" y="800px" /><rect fill="rgb(207,185,153)" height="40px" width="40px" x="600px" y="800px" /><rect fill="rgb(207,185,153)" height="40px" width="40px" x="640px" y="800px" /><rect fill="rgb(207,185,153)" height="40px" width="40px" x="680px" y="800px" /><rect fill="rgb(255,255,255)" height="40px" width="40px" x="720px" y="800px" /><rect fill="rgb(255,255,255)" height="40px" width="40px" x="760px" y="800px" /><rect fill="rgb(255,255,255)" height="40px" width="40px" x="800px" y="800px" /><rect fill="rgb(255,255,255)" height="40px" width="40px" x="840px" y="800px" /><rect fill="rgb(255,255,255)" height="40px" width="40px" x="880px" y="800px" /><rect fill="rgb(55,45,33)" height="40px" width="40px" x="920px" y="800px" /><rect fill="rgb(55,45,33)" height="40px" width="40px" x="960px" y="800px" /><rect fill="rgb(55,45,33)" height="40px" width="40px" x="0px" y="840px" /><rect fill="rgb(255,255,255)" height="40px" width="40px" x="40px" y="840px" /><rect fill="rgb(255,255,255)" height="40px" width="40px" x="80px" y="840px" /><rect fill="rgb(255,255,255)" height="40px" width="40px" x="120px" y="840px" /><rect fill="rgb(255,255,255)" height="40px" width="40px" x="160px" y="840px" /><rect fill="rgb(207,185,153)" height="40px" width="40px" x="200px" y="840px" /><rect fill="rgb(207,185,153)" height="40px" width="40px" x="240px" y="840px" /><rect fill="rgb(207,185,153)" height="40px" width="40px" x="280px" y="840px" /><rect fill="rgb(55,45,33)" height="40px" width="40px" x="320px" y="840px" /><rect fill="rgb(55,45,33)" height="40px" width="40px" x="360px" y="840px" /><rect fill="rgb(55,45,33)" height="40px" width="40px" x="400px" y="840px" /><rect fill="rgb(55,45,33)" height="40px" width="40px" x="560px" y="840px" /><rect fill="rgb(55,45,33)" height="40px" width="40px" x="600px" y="840px" /><rect fill="rgb(55,45,33)" height="40px" width="40px" x="640px" y="840px" /><rect fill="rgb(207,185,153)" height="40px" width="40px" x="680px" y="840px" /><rect fill="rgb(207,185,153)" height="40px" width="40px" x="720px" y="840px" /><rect fill="rgb(207,185,153)" height="40px" width="40px" x="760px" y="840px" /><rect fill="rgb(255,255,255)" height="40px" width="40px" x="800px" y="840px" /><rect fill="rgb(255,255,255)" height="40px" width="40px" x="840px" y="840px" /><rect fill="rgb(255,255,255)" height="40px" width="40px" x="880px" y="840px" /><rect fill="rgb(255,255,255)" height="40px" width="40px" x="920px" y="840px" /><rect fill="rgb(55,45,33)" height="40px" width="40px" x="960px" y="840px" /><rect fill="rgb(55,45,33)" height="40px" width="40px" x="0px" y="880px" /><rect fill="rgb(255,255,255)" height="40px" width="40px" x="40px" y="880px" /><rect fill="rgb(255,255,255)" height="40px" width="40px" x="80px" y="880px" /><rect fill="rgb(207,185,153)" height="40px" width="40px" x="120px" y="880px" /><rect fill="rgb(207,185,153)" height="40px" width="40px" x="160px" y="880px" /><rect fill="rgb(207,185,153)" height="40px" width="40px" x="200px" y="880px" /><rect fill="rgb(55,45,33)" height="40px" width="40px" x="240px" y="880px" /><rect fill="rgb(55,45,33)" height="40px" width="40px" x="280px" y="880px" /><rect fill="rgb(55,45,33)" height="40px" width="40px" x="320px" y="880px" /><rect fill="rgb(55,45,33)" height="40px" width="40px" x="640px" y="880px" /><rect fill="rgb(55,45,33)" height="40px" width="40px" x="680px" y="880px" /><rect fill="rgb(55,45,33)" height="40px" width="40px" x="720px" y="880px" /><rect fill="rgb(207,185,153)" height="40px" width="40px" x="760px" y="880px" /><rect fill="rgb(207,185,153)" height="40px" width="40px" x="800px" y="880px" /><rect fill="rgb(207,185,153)" height="40px" width="40px" x="840px" y="880px" /><rect fill="rgb(255,255,255)" height="40px" width="40px" x="880px" y="880px" /><rect fill="rgb(207,185,153)" height="40px" width="40px" x="920px" y="880px" /><rect fill="rgb(55,45,33)" height="40px" width="40px" x="960px" y="880px" /><rect fill="rgb(55,45,33)" height="40px" width="40px" x="0px" y="920px" /><rect fill="rgb(55,45,33)" height="40px" width="40px" x="40px" y="920px" /><rect fill="rgb(207,185,153)" height="40px" width="40px" x="80px" y="920px" /><rect fill="rgb(207,185,153)" height="40px" width="40px" x="120px" y="920px" /><rect fill="rgb(55,45,33)" height="40px" width="40px" x="160px" y="920px" /><rect fill="rgb(55,45,33)" height="40px" width="40px" x="200px" y="920px" /><rect fill="rgb(55,45,33)" height="40px" width="40px" x="240px" y="920px" /><rect fill="rgb(55,45,33)" height="40px" width="40px" x="720px" y="920px" /><rect fill="rgb(55,45,33)" height="40px" width="40px" x="760px" y="920px" /><rect fill="rgb(55,45,33)" height="40px" width="40px" x="800px" y="920px" /><rect fill="rgb(207,185,153)" height="40px" width="40px" x="840px" y="920px" /><rect fill="rgb(207,185,153)" height="40px" width="40px" x="880px" y="920px" /><rect fill="rgb(55,45,33)" height="40px" width="40px" x="920px" y="920px" /><rect fill="rgb(55,45,33)" height="40px" width="40px" x="960px" y="920px" /><rect fill="rgb(55,45,33)" height="40px" width="40px" x="40px" y="960px" /><rect fill="rgb(55,45,33)" height="40px" width="40px" x="80px" y="960px" /><rect fill="rgb(55,45,33)" height="40px" width="40px" x="120px" y="960px" /><rect fill="rgb(55,45,33)" height="40px" width="40px" x="160px" y="960px" /><rect fill="rgb(55,45,33)" height="40px" width="40px" x="800px" y="960px" /><rect fill="rgb(55,45,33)" height="40px" width="40px" x="840px" y="960px" /><rect fill="rgb(55,45,33)" height="40px" width="40px" x="880px" y="960px" /><rect fill="rgb(55,45,33)" height="40px" width="40px" x="920px" y="960px" /></svg>