<svg xmlns="http://www.w3.org/2000/svg" width="640" height="640" baseProfile="full">
  <path d="M240 0h40v40h-40zM280 0h40v40h-40zM320 0h40v40h-40zM360 0h40v40h-40zM400 0h40v40h-40zM120 40h40v40h-40zM160 40h40v40h-40zM200 40h40v40h-40zM240 40h40v40h-40z"/>
  <path fill="#AEA805" d="M280 40h40v40h-40zM320 40h40v40h-40zM360 40h40v40h-40z"/>
  <path d="M400 40h40v40h-40zM440 40h40v40h-40zM480 40h40v40h-40zM520 40h40v40h-40zM80 80h40v40H80zM120 80h40v40h-40z"/>
  <path fill="#AEA805" d="M160 80h40v40h-40z"/>
  <path d="M200 80h40v40h-40zM240 80h40v40h-40z"/>
  <path fill="#AEA805" d="M280 80h40v40h-40z"/>
  <path fill="#DD4F01" d="M320 80h40v40h-40z"/>
  <path fill="#AEA805" d="M360 80h40v40h-40z"/>
  <path d="M400 80h40v40h-40zM440 80h40v40h-40z"/>
  <path fill="#AEA805" d="M480 80h40v40h-40z"/>
  <path d="M520 80h40v40h-40zM560 80h40v40h-40zM80 120h40v40H80z"/>
  <path fill="#AEA805" d="M120 120h40v40h-40z"/>
  <path fill="#DD4F01" d="M160 120h40v40h-40z"/>
  <path d="M200 120h40v40h-40zM240 120h40v40h-40z"/>
  <path fill="#DD4F01" d="M280 120h40v40h-40zM320 120h40v40h-40zM360 120h40v40h-40z"/>
  <path d="M400 120h40v40h-40zM440 120h40v40h-40z"/>
  <path fill="#DD4F01" d="M480 120h40v40h-40z"/>
  <path fill="#AEA805" d="M520 120h40v40h-40z"/>
  <path d="M560 120h40v40h-40zM40 160h40v40H40zM80 160h40v40H80z"/>
  <path fill="#AEA805" d="M120 160h40v40h-40z"/>
  <path fill="#DD4F01" d="M160 160h40v40h-40z"/>
  <path fill="#AEA805" d="M200 160h40v40h-40zM240 160h40v40h-40z"/>
  <path fill="#DD4F01" d="M280 160h40v40h-40z"/>
  <path fill="#B33903" d="M320 160h40v40h-40z"/>
  <path fill="#DD4F01" d="M360 160h40v40h-40z"/>
  <path fill="#AEA805" d="M400 160h40v40h-40zM440 160h40v40h-40z"/>
  <path fill="#DD4F01" d="M480 160h40v40h-40z"/>
  <path fill="#AEA805" d="M520 160h40v40h-40z"/>
  <path d="M560 160h40v40h-40zM600 160h40v40h-40zM40 200h40v40H40z"/>
  <path fill="#AEA805" d="M80 200h40v40H80z"/>
  <path fill="#DD4F01" d="M120 200h40v40h-40z"/>
  <path fill="#B33903" d="M160 200h40v40h-40z"/>
  <path fill="#AEA805" d="M200 200h40v40h-40zM240 200h40v40h-40z"/>
  <path fill="#B33903" d="M280 200h40v40h-40zM320 200h40v40h-40zM360 200h40v40h-40z"/>
  <path fill="#AEA805" d="M400 200h40v40h-40zM440 200h40v40h-40z"/>
  <path fill="#B33903" d="M480 200h40v40h-40z"/>
  <path fill="#DD4F01" d="M520 200h40v40h-40z"/>
  <path fill="#AEA805" d="M560 200h40v40h-40z"/>
  <path d="M600 200h40v40h-40zM40 240h40v40H40z"/>
  <path fill="#AEA805" d="M80 240h40v40H80z"/>
  <path fill="#B33903" d="M120 240h40v40h-40zM160 240h40v40h-40z"/>
  <path fill="#DD4F01" d="M200 240h40v40h-40zM240 240h40v40h-40z"/>
  <path fill="#B33903" d="M280 240h40v40h-40zM320 240h40v40h-40zM360 240h40v40h-40z"/>
  <path fill="#DD4F01" d="M400 240h40v40h-40z"/>
  <path fill="#AEA805" d="M440 240h40v40h-40z"/>
  <path fill="#B33903" d="M480 240h40v40h-40z"/>
  <path fill="#DD4F01" d="M520 240h40v40h-40z"/>
  <path fill="#AEA805" d="M560 240h40v40h-40z"/>
  <path d="M600 240h40v40h-40zM40 280h40v40H40z"/>
  <path fill="#AEA805" d="M80 280h40v40H80z"/>
  <path fill="#B33903" d="M120 280h40v40h-40zM160 280h40v40h-40z"/>
  <path fill="#DD4F01" d="M200 280h40v40h-40z"/>
  <path fill="#AEA805" d="M240 280h40v40h-40z"/>
  <path fill="#B33903" d="M280 280h40v40h-40zM320 280h40v40h-40zM360 280h40v40h-40z"/>
  <path fill="#AEA805" d="M400 280h40v40h-40z"/>
  <path fill="#DD4F01" d="M440 280h40v40h-40z"/>
  <path fill="#B33903" d="M480 280h40v40h-40zM520 280h40v40h-40z"/>
  <path fill="#AEA805" d="M560 280h40v40h-40z"/>
  <path d="M600 280h40v40h-40zM40 320h40v40H40zM80 320h40v40H80z"/>
  <path fill="#AEA805" d="M120 320h40v40h-40z"/>
  <path fill="#DD4F01" d="M160 320h40v40h-40z"/>
  <path d="M200 320h40v40h-40z"/>
  <path fill="#583A0C" d="M240 320h40v40h-40z"/>
  <path d="M280 320h40v40h-40z"/>
  <path fill="#DD4F01" d="M320 320h40v40h-40z"/>
  <path d="M360 320h40v40h-40z"/>
  <path fill="#583A0C" d="M400 320h40v40h-40z"/>
  <path d="M440 320h40v40h-40z"/>
  <path fill="#DD4F01" d="M480 320h40v40h-40z"/>
  <path fill="#AEA805" d="M520 320h40v40h-40z"/>
  <path d="M560 320h40v40h-40zM600 320h40v40h-40zM80 360h40v40H80zM120 360h40v40h-40zM160 360h40v40h-40z"/>
  <path fill="#583A0C" d="M200 360h40v40h-40zM240 360h40v40h-40zM280 360h40v40h-40z"/>
  <path d="M320 360h40v40h-40z"/>
  <path fill="#583A0C" d="M360 360h40v40h-40zM400 360h40v40h-40zM440 360h40v40h-40z"/>
  <path d="M480 360h40v40h-40zM520 360h40v40h-40zM560 360h40v40h-40zM0 400h40v40H0zM40 400h40v40H40zM80 400h40v40H80zM120 400h40v40h-40zM160 400h40v40h-40zM200 400h40v40h-40zM240 400h40v40h-40z"/>
  <path fill="#583A0C" d="M280 400h40v40h-40zM320 400h40v40h-40zM360 400h40v40h-40zM400 400h40v40h-40z"/>
  <path d="M440 400h40v40h-40zM480 400h40v40h-40zM520 400h40v40h-40zM560 400h40v40h-40zM600 400h40v40h-40zM0 440h40v40H0z"/>
  <path fill="#583A0C" d="M40 440h40v40H40zM80 440h40v40H80zM120 440h40v40h-40zM160 440h40v40h-40zM200 440h40v40h-40z"/>
  <path d="M240 440h40v40h-40zM280 440h40v40h-40zM320 440h40v40h-40z"/>
  <path fill="#583A0C" d="M360 440h40v40h-40zM400 440h40v40h-40zM440 440h40v40h-40zM480 440h40v40h-40zM520 440h40v40h-40zM560 440h40v40h-40z"/>
  <path d="M600 440h40v40h-40zM0 480h40v40H0z"/>
  <path fill="#583A0C" d="M40 480h40v40H40zM80 480h40v40H80zM120 480h40v40h-40zM160 480h40v40h-40z"/>
  <path d="M200 480h40v40h-40zM240 480h40v40h-40zM320 480h40v40h-40zM360 480h40v40h-40zM400 480h40v40h-40zM440 480h40v40h-40z"/>
  <path fill="#583A0C" d="M480 480h40v40h-40zM520 480h40v40h-40zM560 480h40v40h-40z"/>
  <path d="M600 480h40v40h-40zM0 520h40v40H0zM40 520h40v40H40z"/>
  <path fill="#583A0C" d="M80 520h40v40H80zM120 520h40v40h-40z"/>
  <path d="M160 520h40v40h-40zM200 520h40v40h-40zM440 520h40v40h-40zM480 520h40v40h-40z"/>
  <path fill="#583A0C" d="M520 520h40v40h-40zM560 520h40v40h-40z"/>
  <path d="M600 520h40v40h-40zM40 560h40v40H40zM80 560h40v40H80zM120 560h40v40h-40zM160 560h40v40h-40zM480 560h40v40h-40zM520 560h40v40h-40zM560 560h40v40h-40zM600 560h40v40h-40z"/>
</svg>
