<?xml version="1.0" encoding="utf-8" ?>
<svg baseProfile="full" height="640px" version="1.1" width="800px" xmlns="http://www.w3.org/2000/svg" xmlns:ev="http://www.w3.org/2001/xml-events" xmlns:xlink="http://www.w3.org/1999/xlink"><defs /><rect fill="rgb(22,22,22)" height="40px" width="40px" x="680px" y="0px" /><rect fill="rgb(22,22,22)" height="40px" width="40px" x="640px" y="40px" /><rect fill="rgb(177,87,0)" height="40px" width="40px" x="680px" y="40px" /><rect fill="rgb(22,22,22)" height="40px" width="40px" x="720px" y="40px" /><rect fill="rgb(22,22,22)" height="40px" width="40px" x="640px" y="80px" /><rect fill="rgb(177,87,0)" height="40px" width="40px" x="680px" y="80px" /><rect fill="rgb(170,84,0)" height="40px" width="40px" x="720px" y="80px" /><rect fill="rgb(22,22,22)" height="40px" width="40px" x="760px" y="80px" /><rect fill="rgb(22,22,22)" height="40px" width="40px" x="320px" y="120px" /><rect fill="rgb(22,22,22)" height="40px" width="40px" x="360px" y="120px" /><rect fill="rgb(22,22,22)" height="40px" width="40px" x="400px" y="120px" /><rect fill="rgb(22,22,22)" height="40px" width="40px" x="440px" y="120px" /><rect fill="rgb(22,22,22)" height="40px" width="40px" x="480px" y="120px" /><rect fill="rgb(22,22,22)" height="40px" width="40px" x="520px" y="120px" /><rect fill="rgb(22,22,22)" height="40px" width="40px" x="560px" y="120px" /><rect fill="rgb(22,22,22)" height="40px" width="40px" x="600px" y="120px" /><rect fill="rgb(177,87,0)" height="40px" width="40px" x="640px" y="120px" /><rect fill="rgb(177,87,0)" height="40px" width="40px" x="680px" y="120px" /><rect fill="rgb(158,78,0)" height="40px" width="40px" x="720px" y="120px" /><rect fill="rgb(22,22,22)" height="40px" width="40px" x="760px" y="120px" /><rect fill="rgb(22,22,22)" height="40px" width="40px" x="280px" y="160px" /><rect fill="rgb(184,90,0)" height="40px" width="40px" x="320px" y="160px" /><rect fill="rgb(184,90,0)" height="40px" width="40px" x="360px" y="160px" /><rect fill="rgb(184,90,0)" height="40px" width="40px" x="400px" y="160px" /><rect fill="rgb(184,90,0)" height="40px" width="40px" x="440px" y="160px" /><rect fill="rgb(184,90,0)" height="40px" width="40px" x="480px" y="160px" /><rect fill="rgb(177,87,0)" height="40px" width="40px" x="520px" y="160px" /><rect fill="rgb(177,87,0)" height="40px" width="40px" x="560px" y="160px" /><rect fill="rgb(177,87,0)" height="40px" width="40px" x="600px" y="160px" /><rect fill="rgb(177,87,0)" height="40px" width="40px" x="640px" y="160px" /><rect fill="rgb(170,84,0)" height="40px" width="40px" x="680px" y="160px" /><rect fill="rgb(158,78,0)" height="40px" width="40px" x="720px" y="160px" /><rect fill="rgb(22,22,22)" height="40px" width="40px" x="760px" y="160px" /><rect fill="rgb(22,22,22)" height="40px" width="40px" x="240px" y="200px" /><rect fill="rgb(184,90,0)" height="40px" width="40px" x="280px" y="200px" /><rect fill="rgb(184,90,0)" height="40px" width="40px" x="320px" y="200px" /><rect fill="rgb(184,90,0)" height="40px" width="40px" x="360px" y="200px" /><rect fill="rgb(50,153,0)" height="40px" width="40px" x="400px" y="200px" /><rect fill="rgb(184,90,0)" height="40px" width="40px" x="440px" y="200px" /><rect fill="rgb(184,90,0)" height="40px" width="40px" x="480px" y="200px" /><rect fill="rgb(184,90,0)" height="40px" width="40px" x="520px" y="200px" /><rect fill="rgb(170,84,0)" height="40px" width="40px" x="560px" y="200px" /><rect fill="rgb(170,84,0)" height="40px" width="40px" x="600px" y="200px" /><rect fill="rgb(170,84,0)" height="40px" width="40px" x="640px" y="200px" /><rect fill="rgb(170,84,0)" height="40px" width="40px" x="680px" y="200px" /><rect fill="rgb(158,78,0)" height="40px" width="40px" x="720px" y="200px" /><rect fill="rgb(22,22,22)" height="40px" width="40px" x="760px" y="200px" /><rect fill="rgb(22,22,22)" height="40px" width="40px" x="120px" y="240px" /><rect fill="rgb(22,22,22)" height="40px" width="40px" x="160px" y="240px" /><rect fill="rgb(22,22,22)" height="40px" width="40px" x="200px" y="240px" /><rect fill="rgb(184,90,0)" height="40px" width="40px" x="240px" y="240px" /><rect fill="rgb(184,90,0)" height="40px" width="40px" x="280px" y="240px" /><rect fill="rgb(128,64,0)" height="40px" width="40px" x="320px" y="240px" /><rect fill="rgb(50,153,0)" height="40px" width="40px" x="360px" y="240px" /><rect fill="rgb(43,132,0)" height="40px" width="40px" x="400px" y="240px" /><rect fill="rgb(128,64,0)" height="40px" width="40px" x="440px" y="240px" /><rect fill="rgb(128,64,0)" height="40px" width="40px" x="480px" y="240px" /><rect fill="rgb(184,90,0)" height="40px" width="40px" x="520px" y="240px" /><rect fill="rgb(184,90,0)" height="40px" width="40px" x="560px" y="240px" /><rect fill="rgb(170,84,0)" height="40px" width="40px" x="600px" y="240px" /><rect fill="rgb(170,84,0)" height="40px" width="40px" x="640px" y="240px" /><rect fill="rgb(158,78,0)" height="40px" width="40px" x="680px" y="240px" /><rect fill="rgb(158,78,0)" height="40px" width="40px" x="720px" y="240px" /><rect fill="rgb(22,22,22)" height="40px" width="40px" x="760px" y="240px" /><rect fill="rgb(22,22,22)" height="40px" width="40px" x="80px" y="280px" /><rect fill="rgb(50,153,0)" height="40px" width="40px" x="120px" y="280px" /><rect fill="rgb(50,153,0)" height="40px" width="40px" x="160px" y="280px" /><rect fill="rgb(22,22,22)" height="40px" width="40px" x="200px" y="280px" /><rect fill="rgb(177,87,0)" height="40px" width="40px" x="240px" y="280px" /><rect fill="rgb(191,118,0)" height="40px" width="40px" x="280px" y="280px" /><rect fill="rgb(204,127,0)" height="40px" width="40px" x="320px" y="280px" /><rect fill="rgb(43,132,0)" height="40px" width="40px" x="360px" y="280px" /><rect fill="rgb(204,127,0)" height="40px" width="40px" x="400px" y="280px" /><rect fill="rgb(191,118,0)" height="40px" width="40px" x="440px" y="280px" /><rect fill="rgb(128,64,0)" height="40px" width="40px" x="480px" y="280px" /><rect fill="rgb(128,64,0)" height="40px" width="40px" x="520px" y="280px" /><rect fill="rgb(184,90,0)" height="40px" width="40px" x="560px" y="280px" /><rect fill="rgb(184,90,0)" height="40px" width="40px" x="600px" y="280px" /><rect fill="rgb(158,78,0)" height="40px" width="40px" x="640px" y="280px" /><rect fill="rgb(158,78,0)" height="40px" width="40px" x="680px" y="280px" /><rect fill="rgb(22,22,22)" height="40px" width="40px" x="720px" y="280px" /><rect fill="rgb(22,22,22)" height="40px" width="40px" x="120px" y="320px" /><rect fill="rgb(43,132,0)" height="40px" width="40px" x="160px" y="320px" /><rect fill="rgb(43,132,0)" height="40px" width="40px" x="200px" y="320px" /><rect fill="rgb(191,118,0)" height="40px" width="40px" x="240px" y="320px" /><rect fill="rgb(204,127,0)" height="40px" width="40px" x="280px" y="320px" /><rect fill="rgb(204,127,0)" height="40px" width="40px" x="320px" y="320px" /><rect fill="rgb(191,118,0)" height="40px" width="40px" x="360px" y="320px" /><rect fill="rgb(204,127,0)" height="40px" width="40px" x="400px" y="320px" /><rect fill="rgb(204,127,0)" height="40px" width="40px" x="440px" y="320px" /><rect fill="rgb(191,118,0)" height="40px" width="40px" x="480px" y="320px" /><rect fill="rgb(128,64,0)" height="40px" width="40px" x="520px" y="320px" /><rect fill="rgb(128,64,0)" height="40px" width="40px" x="560px" y="320px" /><rect fill="rgb(50,153,0)" height="40px" width="40px" x="600px" y="320px" /><rect fill="rgb(158,78,0)" height="40px" width="40px" x="640px" y="320px" /><rect fill="rgb(158,78,0)" height="40px" width="40px" x="680px" y="320px" /><rect fill="rgb(22,22,22)" height="40px" width="40px" x="720px" y="320px" /><rect fill="rgb(22,22,22)" height="40px" width="40px" x="80px" y="360px" /><rect fill="rgb(209,188,0)" height="40px" width="40px" x="120px" y="360px" /><rect fill="rgb(209,188,0)" height="40px" width="40px" x="160px" y="360px" /><rect fill="rgb(209,188,0)" height="40px" width="40px" x="200px" y="360px" /><rect fill="rgb(191,118,0)" height="40px" width="40px" x="240px" y="360px" /><rect fill="rgb(204,127,0)" height="40px" width="40px" x="280px" y="360px" /><rect fill="rgb(191,118,0)" height="40px" width="40px" x="320px" y="360px" /><rect fill="rgb(204,127,0)" height="40px" width="40px" x="360px" y="360px" /><rect fill="rgb(191,118,0)" height="40px" width="40px" x="400px" y="360px" /><rect fill="rgb(204,127,0)" height="40px" width="40px" x="440px" y="360px" /><rect fill="rgb(50,153,0)" height="40px" width="40px" x="480px" y="360px" /><rect fill="rgb(43,132,0)" height="40px" width="40px" x="520px" y="360px" /><rect fill="rgb(191,118,0)" height="40px" width="40px" x="560px" y="360px" /><rect fill="rgb(204,127,0)" height="40px" width="40px" x="600px" y="360px" /><rect fill="rgb(191,118,0)" height="40px" width="40px" x="640px" y="360px" /><rect fill="rgb(158,78,0)" height="40px" width="40px" x="680px" y="360px" /><rect fill="rgb(22,22,22)" height="40px" width="40px" x="720px" y="360px" /><rect fill="rgb(22,22,22)" height="40px" width="40px" x="40px" y="400px" /><rect fill="rgb(229,206,0)" height="40px" width="40px" x="80px" y="400px" /><rect fill="rgb(229,206,0)" height="40px" width="40px" x="120px" y="400px" /><rect fill="rgb(209,188,0)" height="40px" width="40px" x="160px" y="400px" /><rect fill="rgb(209,188,0)" height="40px" width="40px" x="200px" y="400px" /><rect fill="rgb(191,118,0)" height="40px" width="40px" x="240px" y="400px" /><rect fill="rgb(50,153,0)" height="40px" width="40px" x="280px" y="400px" /><rect fill="rgb(50,153,0)" height="40px" width="40px" x="320px" y="400px" /><rect fill="rgb(204,127,0)" height="40px" width="40px" x="360px" y="400px" /><rect fill="rgb(50,153,0)" height="40px" width="40px" x="400px" y="400px" /><rect fill="rgb(50,153,0)" height="40px" width="40px" x="440px" y="400px" /><rect fill="rgb(43,132,0)" height="40px" width="40px" x="480px" y="400px" /><rect fill="rgb(153,0,204)" height="40px" width="40px" x="520px" y="400px" /><rect fill="rgb(204,127,0)" height="40px" width="40px" x="560px" y="400px" /><rect fill="rgb(204,127,0)" height="40px" width="40px" x="600px" y="400px" /><rect fill="rgb(204,127,0)" height="40px" width="40px" x="640px" y="400px" /><rect fill="rgb(191,118,0)" height="40px" width="40px" x="680px" y="400px" /><rect fill="rgb(22,22,22)" height="40px" width="40px" x="720px" y="400px" /><rect fill="rgb(22,22,22)" height="40px" width="40px" x="0px" y="440px" /><rect fill="rgb(50,153,0)" height="40px" width="40px" x="40px" y="440px" /><rect fill="rgb(229,206,0)" height="40px" width="40px" x="80px" y="440px" /><rect fill="rgb(229,206,0)" height="40px" width="40px" x="120px" y="440px" /><rect fill="rgb(229,206,0)" height="40px" width="40px" x="160px" y="440px" /><rect fill="rgb(229,206,0)" height="40px" width="40px" x="200px" y="440px" /><rect fill="rgb(43,132,0)" height="40px" width="40px" x="240px" y="440px" /><rect fill="rgb(216,26,0)" height="40px" width="40px" x="280px" y="440px" /><rect fill="rgb(43,132,0)" height="40px" width="40px" x="320px" y="440px" /><rect fill="rgb(204,25,0)" height="40px" width="40px" x="360px" y="440px" /><rect fill="rgb(191,118,0)" height="40px" width="40px" x="400px" y="440px" /><rect fill="rgb(43,132,0)" height="40px" width="40px" x="440px" y="440px" /><rect fill="rgb(153,0,204)" height="40px" width="40px" x="480px" y="440px" /><rect fill="rgb(166,0,221)" height="40px" width="40px" x="520px" y="440px" /><rect fill="rgb(153,0,204)" height="40px" width="40px" x="560px" y="440px" /><rect fill="rgb(204,127,0)" height="40px" width="40px" x="600px" y="440px" /><rect fill="rgb(204,127,0)" height="40px" width="40px" x="640px" y="440px" /><rect fill="rgb(191,118,0)" height="40px" width="40px" x="680px" y="440px" /><rect fill="rgb(22,22,22)" height="40px" width="40px" x="720px" y="440px" /><rect fill="rgb(22,22,22)" height="40px" width="40px" x="40px" y="480px" /><rect fill="rgb(22,22,22)" height="40px" width="40px" x="80px" y="480px" /><rect fill="rgb(50,153,0)" height="40px" width="40px" x="120px" y="480px" /><rect fill="rgb(43,132,0)" height="40px" width="40px" x="160px" y="480px" /><rect fill="rgb(43,132,0)" height="40px" width="40px" x="200px" y="480px" /><rect fill="rgb(216,26,0)" height="40px" width="40px" x="240px" y="480px" /><rect fill="rgb(216,26,0)" height="40px" width="40px" x="280px" y="480px" /><rect fill="rgb(204,25,0)" height="40px" width="40px" x="320px" y="480px" /><rect fill="rgb(204,25,0)" height="40px" width="40px" x="360px" y="480px" /><rect fill="rgb(204,25,0)" height="40px" width="40px" x="400px" y="480px" /><rect fill="rgb(43,132,0)" height="40px" width="40px" x="440px" y="480px" /><rect fill="rgb(166,0,221)" height="40px" width="40px" x="480px" y="480px" /><rect fill="rgb(153,0,204)" height="40px" width="40px" x="520px" y="480px" /><rect fill="rgb(166,0,221)" height="40px" width="40px" x="560px" y="480px" /><rect fill="rgb(153,0,204)" height="40px" width="40px" x="600px" y="480px" /><rect fill="rgb(191,118,0)" height="40px" width="40px" x="640px" y="480px" /><rect fill="rgb(22,22,22)" height="40px" width="40px" x="680px" y="480px" /><rect fill="rgb(22,22,22)" height="40px" width="40px" x="120px" y="520px" /><rect fill="rgb(22,22,22)" height="40px" width="40px" x="160px" y="520px" /><rect fill="rgb(22,22,22)" height="40px" width="40px" x="200px" y="520px" /><rect fill="rgb(216,26,0)" height="40px" width="40px" x="240px" y="520px" /><rect fill="rgb(216,26,0)" height="40px" width="40px" x="280px" y="520px" /><rect fill="rgb(204,25,0)" height="40px" width="40px" x="320px" y="520px" /><rect fill="rgb(204,25,0)" height="40px" width="40px" x="360px" y="520px" /><rect fill="rgb(204,25,0)" height="40px" width="40px" x="400px" y="520px" /><rect fill="rgb(50,153,0)" height="40px" width="40px" x="440px" y="520px" /><rect fill="rgb(43,132,0)" height="40px" width="40px" x="480px" y="520px" /><rect fill="rgb(166,0,221)" height="40px" width="40px" x="520px" y="520px" /><rect fill="rgb(166,0,221)" height="40px" width="40px" x="560px" y="520px" /><rect fill="rgb(153,0,204)" height="40px" width="40px" x="600px" y="520px" /><rect fill="rgb(166,0,221)" height="40px" width="40px" x="640px" y="520px" /><rect fill="rgb(22,22,22)" height="40px" width="40px" x="680px" y="520px" /><rect fill="rgb(22,22,22)" height="40px" width="40px" x="240px" y="560px" /><rect fill="rgb(204,25,0)" height="40px" width="40px" x="280px" y="560px" /><rect fill="rgb(216,26,0)" height="40px" width="40px" x="320px" y="560px" /><rect fill="rgb(204,25,0)" height="40px" width="40px" x="360px" y="560px" /><rect fill="rgb(22,22,22)" height="40px" width="40px" x="400px" y="560px" /><rect fill="rgb(22,22,22)" height="40px" width="40px" x="440px" y="560px" /><rect fill="rgb(22,22,22)" height="40px" width="40px" x="480px" y="560px" /><rect fill="rgb(22,22,22)" height="40px" width="40px" x="520px" y="560px" /><rect fill="rgb(153,0,204)" height="40px" width="40px" x="560px" y="560px" /><rect fill="rgb(166,0,221)" height="40px" width="40px" x="600px" y="560px" /><rect fill="rgb(22,22,22)" height="40px" width="40px" x="640px" y="560px" /><rect fill="rgb(22,22,22)" height="40px" width="40px" x="280px" y="600px" /><rect fill="rgb(22,22,22)" height="40px" width="40px" x="320px" y="600px" /><rect fill="rgb(22,22,22)" height="40px" width="40px" x="360px" y="600px" /><rect fill="rgb(22,22,22)" height="40px" width="40px" x="560px" y="600px" /><rect fill="rgb(22,22,22)" height="40px" width="40px" x="600px" y="600px" /></svg>