<svg xmlns="http://www.w3.org/2000/svg" width="640" height="640" baseProfile="full">
  <path d="M40 40h40v40H40z"/>
  <path fill="#000001" d="M80 40h40v40H80zM120 40h40v40h-40zM160 40h40v40h-40zM200 40h40v40h-40zM240 40h40v40h-40z"/>
  <path d="M280 40h40v40h-40zM360 40h40v40h-40z"/>
  <path fill="#000001" d="M400 40h40v40h-40zM440 40h40v40h-40zM480 40h40v40h-40zM520 40h40v40h-40zM560 40h40v40h-40zM40 80h40v40H40z"/>
  <path fill="#DD4F01" d="M80 80h40v40H80zM120 80h40v40h-40zM160 80h40v40h-40zM200 80h40v40h-40zM240 80h40v40h-40z"/>
  <path fill="#000001" d="M280 80h40v40h-40zM320 80h40v40h-40zM360 80h40v40h-40z"/>
  <path fill="#B33903" d="M400 80h40v40h-40zM440 80h40v40h-40z"/>
  <path fill="#7A3D09" d="M480 80h40v40h-40zM520 80h40v40h-40z"/>
  <path d="M560 80h40v40h-40z"/>
  <path fill="#000001" d="M0 120h40v40H0zM40 120h40v40H40z"/>
  <path fill="#DD4F01" d="M80 120h40v40H80zM120 120h40v40h-40zM160 120h40v40h-40zM200 120h40v40h-40zM240 120h40v40h-40zM280 120h40v40h-40z"/>
  <path d="M320 120h40v40h-40z"/>
  <path fill="#DD4F01" d="M360 120h40v40h-40z"/>
  <path fill="#B33903" d="M400 120h40v40h-40zM440 120h40v40h-40z"/>
  <path fill="#7A3D09" d="M480 120h40v40h-40zM520 120h40v40h-40z"/>
  <path d="M560 120h40v40h-40z"/>
  <path fill="#000001" d="M600 120h40v40h-40zM0 160h40v40H0z"/>
  <path fill="#DD4F01" d="M40 160h40v40H40zM80 160h40v40H80zM120 160h40v40h-40zM160 160h40v40h-40zM200 160h40v40h-40zM240 160h40v40h-40zM280 160h40v40h-40zM320 160h40v40h-40zM360 160h40v40h-40zM400 160h40v40h-40z"/>
  <path fill="#B33903" d="M440 160h40v40h-40zM480 160h40v40h-40z"/>
  <path fill="#7A3D09" d="M520 160h40v40h-40zM560 160h40v40h-40z"/>
  <path d="M600 160h40v40h-40z"/>
  <path fill="#000001" d="M0 200h40v40H0z"/>
  <path fill="#DD4F01" d="M40 200h40v40H40zM80 200h40v40H80zM120 200h40v40h-40zM160 200h40v40h-40zM200 200h40v40h-40zM240 200h40v40h-40zM280 200h40v40h-40zM320 200h40v40h-40zM360 200h40v40h-40zM400 200h40v40h-40zM440 200h40v40h-40z"/>
  <path fill="#B33903" d="M480 200h40v40h-40z"/>
  <path fill="#7A3D09" d="M520 200h40v40h-40zM560 200h40v40h-40z"/>
  <path d="M600 200h40v40h-40z"/>
  <path fill="#000001" d="M0 240h40v40H0z"/>
  <path fill="#DD4F01" d="M40 240h40v40H40zM80 240h40v40H80zM120 240h40v40h-40zM160 240h40v40h-40zM200 240h40v40h-40zM240 240h40v40h-40zM280 240h40v40h-40zM320 240h40v40h-40zM360 240h40v40h-40zM400 240h40v40h-40zM440 240h40v40h-40z"/>
  <path fill="#B33903" d="M480 240h40v40h-40z"/>
  <path fill="#7A3D09" d="M520 240h40v40h-40zM560 240h40v40h-40z"/>
  <path d="M600 240h40v40h-40z"/>
  <path fill="#000001" d="M0 280h40v40H0z"/>
  <path fill="#DD4F01" d="M40 280h40v40H40zM80 280h40v40H80zM120 280h40v40h-40zM160 280h40v40h-40zM200 280h40v40h-40zM240 280h40v40h-40zM280 280h40v40h-40zM320 280h40v40h-40zM360 280h40v40h-40zM400 280h40v40h-40zM440 280h40v40h-40z"/>
  <path fill="#B33903" d="M480 280h40v40h-40z"/>
  <path fill="#7A3D09" d="M520 280h40v40h-40zM560 280h40v40h-40z"/>
  <path d="M600 280h40v40h-40z"/>
  <path fill="#000001" d="M0 320h40v40H0zM40 320h40v40H40z"/>
  <path fill="#DD4F01" d="M80 320h40v40H80zM120 320h40v40h-40zM160 320h40v40h-40zM200 320h40v40h-40zM240 320h40v40h-40zM280 320h40v40h-40zM320 320h40v40h-40zM360 320h40v40h-40zM400 320h40v40h-40z"/>
  <path fill="#B33903" d="M440 320h40v40h-40zM480 320h40v40h-40z"/>
  <path fill="#7A3D09" d="M520 320h40v40h-40zM560 320h40v40h-40z"/>
  <path d="M600 320h40v40h-40z"/>
  <path fill="#000001" d="M40 360h40v40H40zM80 360h40v40H80z"/>
  <path fill="#B33903" d="M120 360h40v40h-40z"/>
  <path fill="#DD4F01" d="M160 360h40v40h-40zM200 360h40v40h-40zM240 360h40v40h-40zM280 360h40v40h-40zM320 360h40v40h-40zM360 360h40v40h-40z"/>
  <path fill="#B33903" d="M400 360h40v40h-40zM440 360h40v40h-40z"/>
  <path fill="#7A3D09" d="M480 360h40v40h-40zM520 360h40v40h-40z"/>
  <path fill="#000001" d="M560 360h40v40h-40zM600 360h40v40h-40zM80 400h40v40H80z"/>
  <path fill="#B33903" d="M120 400h40v40h-40zM160 400h40v40h-40z"/>
  <path fill="#DD4F01" d="M200 400h40v40h-40zM240 400h40v40h-40zM280 400h40v40h-40zM320 400h40v40h-40zM360 400h40v40h-40z"/>
  <path fill="#B33903" d="M400 400h40v40h-40zM440 400h40v40h-40z"/>
  <path fill="#7A3D09" d="M480 400h40v40h-40zM520 400h40v40h-40z"/>
  <path fill="#000001" d="M560 400h40v40h-40z"/>
  <path d="M80 440h40v40H80z"/>
  <path fill="#000001" d="M120 440h40v40h-40zM160 440h40v40h-40z"/>
  <path fill="#B33903" d="M200 440h40v40h-40zM240 440h40v40h-40zM280 440h40v40h-40zM320 440h40v40h-40zM360 440h40v40h-40z"/>
  <path fill="#7A3D09" d="M400 440h40v40h-40zM440 440h40v40h-40z"/>
  <path fill="#000001" d="M480 440h40v40h-40zM520 440h40v40h-40z"/>
  <path d="M560 440h40v40h-40z"/>
  <path fill="#000001" d="M160 480h40v40h-40z"/>
  <path fill="#B33903" d="M200 480h40v40h-40zM240 480h40v40h-40zM280 480h40v40h-40zM320 480h40v40h-40zM360 480h40v40h-40z"/>
  <path fill="#7A3D09" d="M400 480h40v40h-40zM440 480h40v40h-40z"/>
  <path fill="#000001" d="M480 480h40v40h-40z"/>
  <path d="M160 520h40v40h-40z"/>
  <path fill="#000001" d="M200 520h40v40h-40zM240 520h40v40h-40z"/>
  <path fill="#7A3D09" d="M280 520h40v40h-40zM320 520h40v40h-40zM360 520h40v40h-40z"/>
  <path fill="#000001" d="M400 520h40v40h-40zM440 520h40v40h-40z"/>
  <path d="M480 520h40v40h-40z"/>
  <path fill="#000001" d="M240 560h40v40h-40zM280 560h40v40h-40zM320 560h40v40h-40zM360 560h40v40h-40zM400 560h40v40h-40z"/>
</svg>
