<svg xmlns="http://www.w3.org/2000/svg" width="640" height="640" baseProfile="full">
  <path fill="#C6C5C6" d="M240 0h40v40h-40z"/>
  <path fill="#CDCCCC" d="M280 0h40v40h-40z"/>
  <path fill="#CCCCCB" d="M320 0h40v40h-40z"/>
  <path fill="#C3C2C2" d="M360 0h40v40h-40z"/>
  <path fill="#C2C2C1" d="M160 40h40v40h-40z"/>
  <path fill="#E3E2E1" d="M200 40h40v40h-40z"/>
  <path fill="#EEECE8" d="M240 40h40v40h-40z"/>
  <path fill="#EFEFED" d="M280 40h40v40h-40z"/>
  <path fill="#F0EFEE" d="M320 40h40v40h-40z"/>
  <path fill="#EBEBEA" d="M360 40h40v40h-40z"/>
  <path fill="#E0DFDE" d="M400 40h40v40h-40z"/>
  <path fill="#BCBCBB" d="M440 40h40v40h-40z"/>
  <path fill="#8C8C8B" d="M480 40h40v40h-40z"/>
  <path fill="#B7B7B6" d="M120 80h40v40h-40z"/>
  <path fill="#EAE9E5" d="M160 80h40v40h-40z"/>
  <path fill="#EFEFED" d="M200 80h40v40h-40zM240 80h40v40h-40z"/>
  <path fill="#F1F1F1" d="M280 80h40v40h-40z"/>
  <path fill="#F2F2F2" d="M320 80h40v40h-40z"/>
  <path fill="#F1F1F1" d="M360 80h40v40h-40z"/>
  <path fill="#F0F0EF" d="M400 80h40v40h-40z"/>
  <path fill="#EEECE8" d="M440 80h40v40h-40z"/>
  <path fill="#B9B8B7" d="M480 80h40v40h-40z"/>
  <path fill="#858585" d="M520 80h40v40h-40z"/>
  <path fill="#A4A4A3" d="M80 120h40v40H80z"/>
  <path fill="#DFDEDA" d="M120 120h40v40h-40z"/>
  <path fill="#EAE9E5" d="M160 120h40v40h-40z"/>
  <path fill="#EFEFED" d="M200 120h40v40h-40z"/>
  <path fill="#F0F0EF" d="M240 120h40v40h-40z"/>
  <path fill="#F1F1F1" d="M280 120h40v40h-40z"/>
  <path fill="#F2F2F2" d="M320 120h40v40h-40z"/>
  <path fill="#F1F1F1" d="M360 120h40v40h-40z"/>
  <path fill="#F0F0EF" d="M400 120h40v40h-40z"/>
  <path fill="#EEECE8" d="M440 120h40v40h-40z"/>
  <path fill="#E3E2DD" d="M480 120h40v40h-40z"/>
  <path fill="#9D9D9C" d="M520 120h40v40h-40z"/>
  <path fill="#757574" d="M40 160h40v40H40z"/>
  <path fill="#B9B9B6" d="M80 160h40v40H80z"/>
  <path fill="#E8E7E2" d="M120 160h40v40h-40z"/>
  <path fill="#EEECE8" d="M160 160h40v40h-40z"/>
  <path fill="#EFEFED" d="M200 160h40v40h-40zM240 160h40v40h-40z"/>
  <path fill="#F0EFEE" d="M280 160h40v40h-40z"/>
  <path fill="#F0F0EF" d="M320 160h40v40h-40zM360 160h40v40h-40zM400 160h40v40h-40z"/>
  <path fill="#F0EFEE" d="M440 160h40v40h-40z"/>
  <path fill="#EAE9E5" d="M480 160h40v40h-40z"/>
  <path fill="#B5B4B2" d="M520 160h40v40h-40z"/>
  <path fill="#717170" d="M560 160h40v40h-40z"/>
  <path fill="#606060" d="M40 200h40v40H40z"/>
  <path fill="#AEADA9" d="M80 200h40v40H80z"/>
  <path fill="#EEECE8" d="M120 200h40v40h-40z"/>
  <path fill="#FFF" d="M160 200h40v40h-40zM200 200h40v40h-40z"/>
  <path fill="#F5F4F3" d="M240 200h40v40h-40z"/>
  <path fill="#E5E5E3" d="M280 200h40v40h-40z"/>
  <path fill="#E6E6E4" d="M320 200h40v40h-40z"/>
  <path fill="#F6F6F4" d="M360 200h40v40h-40z"/>
  <path fill="#FFF" d="M400 200h40v40h-40zM440 200h40v40h-40z"/>
  <path fill="#F0F0EF" d="M480 200h40v40h-40z"/>
  <path fill="#B2B1AF" d="M520 200h40v40h-40z"/>
  <path fill="#585757" d="M560 200h40v40h-40z"/>
  <path fill="#5E5D5C" d="M40 240h40v40H40z"/>
  <path fill="#AAA8A4" d="M80 240h40v40H80z"/>
  <path fill="#DFDEDA" d="M120 240h40v40h-40z"/>
  <path fill="#8B8987" d="M160 240h40v40h-40z"/>
  <path fill="#757574" d="M200 240h40v40h-40z"/>
  <path fill="#D8D7D1" d="M240 240h40v40h-40z"/>
  <path fill="#DFDEDA" d="M280 240h40v40h-40zM320 240h40v40h-40z"/>
  <path fill="#D7D6D3" d="M360 240h40v40h-40z"/>
  <path fill="#757574" d="M400 240h40v40h-40z"/>
  <path fill="#8D8C8A" d="M440 240h40v40h-40z"/>
  <path fill="#E5E3DC" d="M480 240h40v40h-40z"/>
  <path fill="#B5B3AF" d="M520 240h40v40h-40z"/>
  <path fill="#5A5A5A" d="M560 240h40v40h-40zM40 280h40v40H40z"/>
  <path fill="#A8A7A3" d="M80 280h40v40H80z"/>
  <path fill="#3B3A38" d="M120 280h40v40h-40z"/>
  <path fill="#050405" d="M160 280h40v40h-40z"/>
  <path d="M200 280h40v40h-40z"/>
  <path fill="#737270" d="M240 280h40v40h-40z"/>
  <path fill="#F8F6F1" d="M280 280h40v40h-40z"/>
  <path fill="#F6F6F4" d="M320 280h40v40h-40z"/>
  <path fill="#71706E" d="M360 280h40v40h-40z"/>
  <path d="M400 280h40v40h-40z"/>
  <path fill="#050405" d="M440 280h40v40h-40z"/>
  <path fill="#3E3D3B" d="M480 280h40v40h-40z"/>
  <path fill="#B9B9B6" d="M520 280h40v40h-40z"/>
  <path fill="#5E5D5C" d="M560 280h40v40h-40z"/>
  <path fill="#505050" d="M40 320h40v40H40z"/>
  <path fill="#A2A19E" d="M80 320h40v40H80z"/>
  <path fill="#434243" d="M120 320h40v40h-40z"/>
  <path fill="#141415" d="M160 320h40v40h-40z"/>
  <path fill="#353536" d="M200 320h40v40h-40z"/>
  <path fill="#B5B3AF" d="M240 320h40v40h-40z"/>
  <path fill="#BCBAB5" d="M280 320h40v40h-40z"/>
  <path fill="#C3C1BC" d="M320 320h40v40h-40z"/>
  <path fill="#B1B1AD" d="M360 320h40v40h-40z"/>
  <path fill="#333334" d="M400 320h40v40h-40z"/>
  <path fill="#111212" d="M440 320h40v40h-40z"/>
  <path fill="#434243" d="M480 320h40v40h-40z"/>
  <path fill="#B8B7B2" d="M520 320h40v40h-40z"/>
  <path fill="#545454" d="M560 320h40v40h-40z"/>
  <path fill="#C1C0BC" d="M80 360h40v40H80z"/>
  <path fill="#D1D0CA" d="M120 360h40v40h-40z"/>
  <path fill="#999998" d="M160 360h40v40h-40z"/>
  <path fill="#CECDC9" d="M200 360h40v40h-40z"/>
  <path fill="#E5E3DC" d="M240 360h40v40h-40z"/>
  <path fill="#2D2B2B" d="M280 360h40v40h-40z"/>
  <path fill="#3E3D3B" d="M320 360h40v40h-40z"/>
  <path fill="#ECE9E2" d="M360 360h40v40h-40z"/>
  <path fill="#CECDC9" d="M400 360h40v40h-40z"/>
  <path fill="#989897" d="M440 360h40v40h-40z"/>
  <path fill="#CFCDC7" d="M480 360h40v40h-40z"/>
  <path fill="#D5D3CC" d="M520 360h40v40h-40z"/>
  <path fill="#757574" d="M560 360h40v40h-40z"/>
  <path fill="#717170" d="M40 400h40v40H40z"/>
  <path fill="#CAC9C4" d="M80 400h40v40H80z"/>
  <path fill="#CCC9C1" d="M120 400h40v40h-40z"/>
  <path fill="#C6C3BB" d="M160 400h40v40h-40z"/>
  <path fill="#ABA9A0" d="M200 400h40v40h-40z"/>
  <path fill="#95948E" d="M240 400h40v40h-40z"/>
  <path fill="#141415" d="M280 400h40v40h-40z"/>
  <path fill="#141314" d="M320 400h40v40h-40z"/>
  <path fill="#ABA9A0" d="M360 400h40v40h-40z"/>
  <path fill="#B4B2A9" d="M400 400h40v40h-40z"/>
  <path fill="#CCC9C1" d="M440 400h40v40h-40z"/>
  <path fill="#DCDAD0" d="M480 400h40v40h-40z"/>
  <path fill="#D8D7D1" d="M520 400h40v40h-40z"/>
  <path fill="#828281" d="M560 400h40v40h-40zM80 440h40v40H80z"/>
  <path fill="#7B7B7A" d="M120 440h40v40h-40z"/>
  <path fill="#646463" d="M160 440h40v40h-40z"/>
  <path fill="#85837D" d="M200 440h40v40h-40z"/>
  <path fill="#B4B2A9" d="M240 440h40v40h-40z"/>
  <path fill="#A3A3A1" d="M280 440h40v40h-40z"/>
  <path fill="#9D9C9B" d="M320 440h40v40h-40z"/>
  <path fill="#BEBCB3" d="M360 440h40v40h-40z"/>
  <path fill="#A8A69F" d="M400 440h40v40h-40z"/>
  <path fill="#6C6B6A" d="M440 440h40v40h-40z"/>
  <path fill="#8A8A88" d="M480 440h40v40h-40z"/>
  <path fill="#828281" d="M520 440h40v40h-40z"/>
  <path fill="#373738" d="M160 480h40v40h-40z"/>
  <path fill="#90908C" d="M200 480h40v40h-40z"/>
  <path fill="#BCBAB5" d="M240 480h40v40h-40z"/>
  <path fill="#E5E1D7" d="M280 480h40v40h-40z"/>
  <path fill="#E0DDD2" d="M320 480h40v40h-40z"/>
  <path fill="#C6C4BB" d="M360 480h40v40h-40z"/>
  <path fill="#91918D" d="M400 480h40v40h-40z"/>
  <path fill="#3B3B3C" d="M440 480h40v40h-40z"/>
  <path fill="#6B6B6B" d="M200 520h40v40h-40z"/>
  <path fill="#787777" d="M240 520h40v40h-40zM280 520h40v40h-40z"/>
  <path fill="#6D6D6D" d="M320 520h40v40h-40z"/>
  <path fill="#7A7A79" d="M360 520h40v40h-40z"/>
  <path fill="#6D6D6D" d="M400 520h40v40h-40z"/>
  <path fill="#4F4F4F" d="M440 520h40v40h-40z"/>
  <path fill="#5E5D5C" d="M200 560h40v40h-40z"/>
  <path fill="#8A8A88" d="M240 560h40v40h-40z"/>
  <path fill="#606060" d="M280 560h40v40h-40z"/>
  <path fill="#6D6D6D" d="M320 560h40v40h-40z"/>
  <path fill="#717170" d="M360 560h40v40h-40z"/>
  <path fill="#7E7E7E" d="M400 560h40v40h-40z"/>
</svg>
