<svg xmlns="http://www.w3.org/2000/svg" width="640" height="640" baseProfile="full">
  <path fill="#000001" d="M0 0h40v40H0zM40 0h40v40H40zM80 0h40v40H80z"/>
  <path d="M0 40h40v40H0z"/>
  <path fill="#757B7C" d="M40 40h40v40H40z"/>
  <path fill="#000001" d="M80 40h40v40H80z"/>
  <path d="M120 40h40v40h-40zM160 40h40v40h-40z"/>
  <path fill="#000001" d="M200 40h40v40h-40zM240 40h40v40h-40zM280 40h40v40h-40zM320 40h40v40h-40zM360 40h40v40h-40zM400 40h40v40h-40z"/>
  <path d="M440 40h40v40h-40zM0 80h40v40H0z"/>
  <path fill="#757B7C" d="M40 80h40v40H40zM80 80h40v40H80z"/>
  <path fill="#000001" d="M120 80h40v40h-40zM160 80h40v40h-40z"/>
  <path fill="#757B7C" d="M200 80h40v40h-40zM240 80h40v40h-40zM280 80h40v40h-40zM320 80h40v40h-40zM360 80h40v40h-40zM400 80h40v40h-40z"/>
  <path fill="#000001" d="M440 80h40v40h-40z"/>
  <path d="M480 80h40v40h-40zM0 120h40v40H0z"/>
  <path fill="#757B7C" d="M40 120h40v40H40zM80 120h40v40H80z"/>
  <path fill="#000001" d="M120 120h40v40h-40z"/>
  <path fill="#352F1B" d="M160 120h40v40h-40z"/>
  <path fill="#757B7C" d="M200 120h40v40h-40zM240 120h40v40h-40zM280 120h40v40h-40zM320 120h40v40h-40zM360 120h40v40h-40zM400 120h40v40h-40z"/>
  <path fill="#352F1B" d="M440 120h40v40h-40z"/>
  <path fill="#000001" d="M480 120h40v40h-40z"/>
  <path d="M520 120h40v40h-40zM0 160h40v40H0z"/>
  <path fill="#757B7C" d="M40 160h40v40H40z"/>
  <path fill="#555B5A" d="M80 160h40v40H80z"/>
  <path fill="#352F1B" d="M120 160h40v40h-40zM160 160h40v40h-40z"/>
  <path fill="#555B5A" d="M200 160h40v40h-40z"/>
  <path fill="#757B7C" d="M240 160h40v40h-40zM280 160h40v40h-40zM320 160h40v40h-40zM360 160h40v40h-40zM400 160h40v40h-40z"/>
  <path fill="#352F1B" d="M440 160h40v40h-40z"/>
  <path fill="#555B5A" d="M480 160h40v40h-40z"/>
  <path fill="#000001" d="M520 160h40v40h-40z"/>
  <path d="M560 160h40v40h-40zM0 200h40v40H0z"/>
  <path fill="#757B7C" d="M40 200h40v40H40z"/>
  <path fill="#555B5A" d="M80 200h40v40H80z"/>
  <path fill="#352F1B" d="M120 200h40v40h-40zM160 200h40v40h-40z"/>
  <path fill="#555B5A" d="M200 200h40v40h-40z"/>
  <path fill="#757B7C" d="M240 200h40v40h-40zM280 200h40v40h-40zM320 200h40v40h-40zM360 200h40v40h-40zM400 200h40v40h-40z"/>
  <path fill="#352F1B" d="M440 200h40v40h-40z"/>
  <path fill="#555B5A" d="M480 200h40v40h-40z"/>
  <path fill="#757B7C" d="M520 200h40v40h-40z"/>
  <path fill="#000001" d="M560 200h40v40h-40z"/>
  <path d="M600 200h40v40h-40zM0 240h40v40H0z"/>
  <path fill="#757B7C" d="M40 240h40v40H40z"/>
  <path fill="#352F1B" d="M80 240h40v40H80zM120 240h40v40h-40zM160 240h40v40h-40z"/>
  <path fill="#555B5A" d="M200 240h40v40h-40zM240 240h40v40h-40zM280 240h40v40h-40zM320 240h40v40h-40zM360 240h40v40h-40z"/>
  <path fill="#757B7C" d="M400 240h40v40h-40z"/>
  <path fill="#352F1B" d="M440 240h40v40h-40z"/>
  <path fill="#555B5A" d="M480 240h40v40h-40zM520 240h40v40h-40zM560 240h40v40h-40z"/>
  <path d="M600 240h40v40h-40zM0 280h40v40H0z"/>
  <path fill="#555B5A" d="M40 280h40v40H40z"/>
  <path fill="#352F1B" d="M80 280h40v40H80z"/>
  <path fill="#000001" d="M120 280h40v40h-40z"/>
  <path fill="#352F1B" d="M160 280h40v40h-40z"/>
  <path fill="#555B5A" d="M200 280h40v40h-40zM240 280h40v40h-40zM280 280h40v40h-40zM320 280h40v40h-40zM360 280h40v40h-40z"/>
  <path fill="#757B7C" d="M400 280h40v40h-40z"/>
  <path fill="#352F1B" d="M440 280h40v40h-40z"/>
  <path fill="#000001" d="M480 280h40v40h-40zM520 280h40v40h-40zM560 280h40v40h-40z"/>
  <path d="M600 280h40v40h-40zM0 320h40v40H0z"/>
  <path fill="#352F1B" d="M40 320h40v40H40zM80 320h40v40H80z"/>
  <path fill="#000001" d="M120 320h40v40h-40zM160 320h40v40h-40z"/>
  <path fill="#352F1B" d="M200 320h40v40h-40zM240 320h40v40h-40zM280 320h40v40h-40zM320 320h40v40h-40zM360 320h40v40h-40zM400 320h40v40h-40z"/>
  <path fill="#000001" d="M440 320h40v40h-40z"/>
  <path d="M480 320h40v40h-40zM0 360h40v40H0z"/>
  <path fill="#352F1B" d="M40 360h40v40H40z"/>
  <path fill="#000001" d="M80 360h40v40H80z"/>
  <path d="M120 360h40v40h-40zM160 360h40v40h-40z"/>
  <path fill="#000001" d="M200 360h40v40h-40z"/>
  <path fill="#352F1B" d="M240 360h40v40h-40zM280 360h40v40h-40zM320 360h40v40h-40zM360 360h40v40h-40z"/>
  <path fill="#000001" d="M400 360h40v40h-40z"/>
  <path d="M440 360h40v40h-40zM0 400h40v40H0z"/>
  <path fill="#000001" d="M40 400h40v40H40zM80 400h40v40H80z"/>
  <path d="M160 400h40v40h-40z"/>
  <path fill="#000001" d="M200 400h40v40h-40z"/>
  <path fill="#352F1B" d="M240 400h40v40h-40zM280 400h40v40h-40z"/>
  <path fill="#555B5A" d="M320 400h40v40h-40zM360 400h40v40h-40z"/>
  <path d="M400 400h40v40h-40zM160 440h40v40h-40z"/>
  <path fill="#352F1B" d="M200 440h40v40h-40zM240 440h40v40h-40zM280 440h40v40h-40z"/>
  <path fill="#555B5A" d="M320 440h40v40h-40zM360 440h40v40h-40z"/>
  <path fill="#000001" d="M400 440h40v40h-40z"/>
  <path d="M440 440h40v40h-40zM120 480h40v40h-40z"/>
  <path fill="#000001" d="M160 480h40v40h-40z"/>
  <path fill="#352F1B" d="M200 480h40v40h-40zM240 480h40v40h-40z"/>
  <path fill="#555B5A" d="M280 480h40v40h-40zM320 480h40v40h-40z"/>
  <path fill="#757B7C" d="M360 480h40v40h-40zM400 480h40v40h-40z"/>
  <path fill="#000001" d="M440 480h40v40h-40z"/>
  <path d="M480 480h40v40h-40zM80 520h40v40H80z"/>
  <path fill="#000001" d="M120 520h40v40h-40z"/>
  <path fill="#352F1B" d="M160 520h40v40h-40z"/>
  <path fill="#555B5A" d="M200 520h40v40h-40zM240 520h40v40h-40zM280 520h40v40h-40z"/>
  <path fill="#757B7C" d="M320 520h40v40h-40zM360 520h40v40h-40zM400 520h40v40h-40zM440 520h40v40h-40z"/>
  <path fill="#000001" d="M480 520h40v40h-40z"/>
  <path d="M520 520h40v40h-40z"/>
  <path fill="#000001" d="M80 560h40v40H80z"/>
  <path fill="#352F1B" d="M120 560h40v40h-40zM160 560h40v40h-40zM200 560h40v40h-40zM240 560h40v40h-40z"/>
  <path fill="#555B5A" d="M280 560h40v40h-40zM320 560h40v40h-40zM360 560h40v40h-40z"/>
  <path fill="#757B7C" d="M400 560h40v40h-40zM440 560h40v40h-40zM480 560h40v40h-40z"/>
  <path fill="#000001" d="M520 560h40v40h-40z"/>
  <path d="M80 600h40v40H80zM120 600h40v40h-40zM160 600h40v40h-40zM200 600h40v40h-40zM240 600h40v40h-40zM280 600h40v40h-40zM320 600h40v40h-40zM360 600h40v40h-40zM400 600h40v40h-40zM440 600h40v40h-40zM480 600h40v40h-40zM520 600h40v40h-40z"/>
</svg>
