<svg xmlns="http://www.w3.org/2000/svg" width="640" height="640" baseProfile="full">
  <path d="M160 0h40v40h-40zM200 0h40v40h-40z"/>
  <path fill="#000001" d="M240 0h40v40h-40zM280 0h40v40h-40zM320 0h40v40h-40zM360 0h40v40h-40z"/>
  <path d="M400 0h40v40h-40zM440 0h40v40h-40z"/>
  <path fill="#000001" d="M80 40h40v40H80zM120 40h40v40h-40zM160 40h40v40h-40z"/>
  <path fill="#463C2F" d="M200 40h40v40h-40zM240 40h40v40h-40zM280 40h40v40h-40zM320 40h40v40h-40zM360 40h40v40h-40zM400 40h40v40h-40z"/>
  <path fill="#000001" d="M440 40h40v40h-40zM480 40h40v40h-40zM520 40h40v40h-40zM560 40h40v40h-40z"/>
  <path d="M600 40h40v40h-40z"/>
  <path fill="#000001" d="M80 80h40v40H80z"/>
  <path fill="#463C2F" d="M120 80h40v40h-40zM160 80h40v40h-40z"/>
  <path fill="#000001" d="M200 80h40v40h-40zM240 80h40v40h-40zM280 80h40v40h-40zM320 80h40v40h-40zM360 80h40v40h-40z"/>
  <path fill="#463C2F" d="M400 80h40v40h-40zM440 80h40v40h-40zM480 80h40v40h-40zM520 80h40v40h-40z"/>
  <path fill="#555B5A" d="M560 80h40v40h-40z"/>
  <path fill="#000001" d="M600 80h40v40h-40zM80 120h40v40H80zM120 120h40v40h-40zM160 120h40v40h-40zM200 120h40v40h-40zM360 120h40v40h-40zM400 120h40v40h-40zM440 120h40v40h-40z"/>
  <path d="M480 120h40v40h-40z"/>
  <path fill="#000001" d="M520 120h40v40h-40z"/>
  <path fill="#555B5A" d="M560 120h40v40h-40z"/>
  <path fill="#000001" d="M600 120h40v40h-40z"/>
  <path d="M480 160h40v40h-40zM520 160h40v40h-40z"/>
  <path fill="#000001" d="M560 160h40v40h-40zM600 160h40v40h-40zM240 200h40v40h-40zM280 200h40v40h-40zM320 200h40v40h-40z"/>
  <path d="M360 200h40v40h-40zM400 200h40v40h-40zM440 200h40v40h-40z"/>
  <path fill="#000001" d="M480 200h40v40h-40zM520 200h40v40h-40zM560 200h40v40h-40zM600 200h40v40h-40z"/>
  <path d="M200 240h40v40h-40z"/>
  <path fill="#000001" d="M240 240h40v40h-40z"/>
  <path fill="#757B7C" d="M280 240h40v40h-40zM320 240h40v40h-40zM360 240h40v40h-40z"/>
  <path fill="#000001" d="M400 240h40v40h-40z"/>
  <path fill="#757B7C" d="M440 240h40v40h-40zM480 240h40v40h-40zM520 240h40v40h-40zM560 240h40v40h-40z"/>
  <path d="M600 240h40v40h-40z"/>
  <path fill="#000001" d="M200 280h40v40h-40z"/>
  <path fill="#757B7C" d="M240 280h40v40h-40zM280 280h40v40h-40z"/>
  <path fill="#555B5A" d="M320 280h40v40h-40zM360 280h40v40h-40z"/>
  <path fill="#757B7C" d="M400 280h40v40h-40zM440 280h40v40h-40zM480 280h40v40h-40z"/>
  <path fill="#000001" d="M520 280h40v40h-40z"/>
  <path fill="#757B7C" d="M560 280h40v40h-40z"/>
  <path d="M600 280h40v40h-40z"/>
  <path fill="#000001" d="M200 320h40v40h-40z"/>
  <path fill="#555B5A" d="M240 320h40v40h-40zM280 320h40v40h-40z"/>
  <path fill="#000001" d="M320 320h40v40h-40z"/>
  <path fill="#555B5A" d="M360 320h40v40h-40z"/>
  <path fill="#757B7C" d="M400 320h40v40h-40z"/>
  <path fill="#555B5A" d="M440 320h40v40h-40z"/>
  <path fill="#757B7C" d="M480 320h40v40h-40z"/>
  <path fill="#555B5A" d="M520 320h40v40h-40zM560 320h40v40h-40z"/>
  <path fill="#000001" d="M600 320h40v40h-40z"/>
  <path d="M200 360h40v40h-40z"/>
  <path fill="#000001" d="M240 360h40v40h-40zM280 360h40v40h-40z"/>
  <path fill="#555B5A" d="M320 360h40v40h-40z"/>
  <path fill="#757B7C" d="M360 360h40v40h-40z"/>
  <path fill="#555B5A" d="M400 360h40v40h-40zM440 360h40v40h-40zM480 360h40v40h-40zM520 360h40v40h-40z"/>
  <path fill="#757B7C" d="M560 360h40v40h-40z"/>
  <path fill="#000001" d="M600 360h40v40h-40z"/>
  <path d="M0 400h40v40H0z"/>
  <path fill="#000001" d="M40 400h40v40H40zM80 400h40v40H80zM120 400h40v40h-40z"/>
  <path d="M160 400h40v40h-40z"/>
  <path fill="#000001" d="M200 400h40v40h-40z"/>
  <path fill="#555B5A" d="M240 400h40v40h-40z"/>
  <path fill="#757B7C" d="M280 400h40v40h-40zM320 400h40v40h-40z"/>
  <path fill="#555B5A" d="M360 400h40v40h-40zM400 400h40v40h-40zM440 400h40v40h-40z"/>
  <path fill="#000001" d="M480 400h40v40h-40zM520 400h40v40h-40z"/>
  <path d="M560 400h40v40h-40zM600 400h40v40h-40zM0 440h40v40H0z"/>
  <path fill="#757B7C" d="M40 440h40v40H40zM80 440h40v40H80zM120 440h40v40h-40z"/>
  <path fill="#000001" d="M160 440h40v40h-40zM200 440h40v40h-40z"/>
  <path fill="#757B7C" d="M240 440h40v40h-40zM280 440h40v40h-40z"/>
  <path fill="#555B5A" d="M320 440h40v40h-40zM360 440h40v40h-40zM400 440h40v40h-40z"/>
  <path fill="#000001" d="M440 440h40v40h-40z"/>
  <path fill="#757B7C" d="M480 440h40v40h-40z"/>
  <path fill="#000001" d="M520 440h40v40h-40z"/>
  <path d="M0 480h40v40H0z"/>
  <path fill="#000001" d="M40 480h40v40H40z"/>
  <path fill="#757B7C" d="M80 480h40v40H80zM120 480h40v40h-40zM160 480h40v40h-40zM200 480h40v40h-40z"/>
  <path fill="#555B5A" d="M240 480h40v40h-40z"/>
  <path fill="#000001" d="M280 480h40v40h-40z"/>
  <path d="M320 480h40v40h-40zM360 480h40v40h-40z"/>
  <path fill="#000001" d="M400 480h40v40h-40z"/>
  <path fill="#555B5A" d="M440 480h40v40h-40z"/>
  <path fill="#000001" d="M480 480h40v40h-40z"/>
  <path d="M520 480h40v40h-40zM40 520h40v40H40z"/>
  <path fill="#000001" d="M80 520h40v40H80zM120 520h40v40h-40z"/>
  <path fill="#757B7C" d="M160 520h40v40h-40z"/>
  <path fill="#555B5A" d="M200 520h40v40h-40z"/>
  <path fill="#000001" d="M240 520h40v40h-40zM280 520h40v40h-40zM400 520h40v40h-40z"/>
  <path fill="#757B7C" d="M440 520h40v40h-40z"/>
  <path fill="#000001" d="M480 520h40v40h-40zM120 560h40v40h-40z"/>
  <path fill="#555B5A" d="M160 560h40v40h-40z"/>
  <path fill="#757B7C" d="M200 560h40v40h-40z"/>
  <path d="M240 560h40v40h-40zM400 560h40v40h-40zM440 560h40v40h-40zM480 560h40v40h-40zM120 600h40v40h-40z"/>
  <path fill="#000001" d="M160 600h40v40h-40zM200 600h40v40h-40z"/>
  <path d="M240 600h40v40h-40z"/>
</svg>
