<svg xmlns="http://www.w3.org/2000/svg" width="720" height="720" baseProfile="full">
  <path d="M0 40h40v40H0z"/>
  <path fill="#000001" d="M40 40h40v40H40z"/>
  <path d="M80 40h40v40H80zM160 40h40v40h-40z"/>
  <path fill="#000001" d="M200 40h40v40h-40zM240 40h40v40h-40zM280 40h40v40h-40zM320 40h40v40h-40zM360 40h40v40h-40z"/>
  <path d="M400 40h40v40h-40z"/>
  <path fill="#000001" d="M0 80h40v40H0z"/>
  <path fill="#7A3D09" d="M40 80h40v40H40z"/>
  <path fill="#000001" d="M80 80h40v40H80z"/>
  <path d="M120 80h40v40h-40z"/>
  <path fill="#000001" d="M160 80h40v40h-40z"/>
  <path fill="#7A3D09" d="M200 80h40v40h-40zM240 80h40v40h-40zM280 80h40v40h-40zM320 80h40v40h-40zM360 80h40v40h-40z"/>
  <path fill="#000001" d="M400 80h40v40h-40z"/>
  <path d="M440 80h40v40h-40z"/>
  <path fill="#000001" d="M520 80h40v40h-40zM560 80h40v40h-40zM600 80h40v40h-40zM0 120h40v40H0z"/>
  <path fill="#7A3D09" d="M40 120h40v40H40zM80 120h40v40H80z"/>
  <path fill="#000001" d="M120 120h40v40h-40z"/>
  <path fill="#7A3D09" d="M160 120h40v40h-40zM200 120h40v40h-40zM240 120h40v40h-40zM280 120h40v40h-40zM320 120h40v40h-40zM360 120h40v40h-40zM400 120h40v40h-40z"/>
  <path fill="#000001" d="M440 120h40v40h-40z"/>
  <path d="M480 120h40v40h-40z"/>
  <path fill="#000001" d="M520 120h40v40h-40z"/>
  <path fill="#7A3D09" d="M560 120h40v40h-40z"/>
  <path fill="#000001" d="M600 120h40v40h-40z"/>
  <path d="M0 160h40v40H0zM40 160h40v40H40z"/>
  <path fill="#000001" d="M80 160h40v40H80z"/>
  <path fill="#757B7C" d="M120 160h40v40h-40z"/>
  <path fill="#7A3D09" d="M160 160h40v40h-40z"/>
  <path fill="#000001" d="M200 160h40v40h-40zM240 160h40v40h-40z"/>
  <path d="M280 160h40v40h-40zM320 160h40v40h-40z"/>
  <path fill="#000001" d="M360 160h40v40h-40z"/>
  <path fill="#7A3D09" d="M400 160h40v40h-40zM440 160h40v40h-40z"/>
  <path fill="#000001" d="M480 160h40v40h-40z"/>
  <path fill="#757B7C" d="M520 160h40v40h-40z"/>
  <path fill="#000001" d="M560 160h40v40h-40zM600 160h40v40h-40z"/>
  <path d="M80 200h40v40H80z"/>
  <path fill="#757B7C" d="M120 200h40v40h-40zM160 200h40v40h-40z"/>
  <path d="M200 200h40v40h-40zM240 200h40v40h-40zM360 200h40v40h-40z"/>
  <path fill="#7A3D09" d="M400 200h40v40h-40zM440 200h40v40h-40z"/>
  <path fill="#352F1B" d="M480 200h40v40h-40z"/>
  <path fill="#000001" d="M520 200h40v40h-40z"/>
  <path d="M560 200h40v40h-40zM80 240h40v40H80zM120 240h40v40h-40z"/>
  <path fill="#757B7C" d="M160 240h40v40h-40zM200 240h40v40h-40z"/>
  <path fill="#000001" d="M240 240h40v40h-40z"/>
  <path d="M280 240h40v40h-40zM360 240h40v40h-40z"/>
  <path fill="#000001" d="M400 240h40v40h-40z"/>
  <path fill="#352F1B" d="M440 240h40v40h-40z"/>
  <path fill="#7A3D09" d="M480 240h40v40h-40zM520 240h40v40h-40z"/>
  <path fill="#000001" d="M560 240h40v40h-40z"/>
  <path d="M600 240h40v40h-40zM120 280h40v40h-40zM160 280h40v40h-40z"/>
  <path fill="#757B7C" d="M200 280h40v40h-40zM240 280h40v40h-40z"/>
  <path d="M280 280h40v40h-40zM320 280h40v40h-40zM360 280h40v40h-40z"/>
  <path fill="#352F1B" d="M400 280h40v40h-40z"/>
  <path fill="#000001" d="M440 280h40v40h-40z"/>
  <path fill="#7A3D09" d="M480 280h40v40h-40zM520 280h40v40h-40zM560 280h40v40h-40z"/>
  <path fill="#000001" d="M600 280h40v40h-40z"/>
  <path d="M640 280h40v40h-40zM160 320h40v40h-40zM200 320h40v40h-40z"/>
  <path fill="#757B7C" d="M240 320h40v40h-40zM280 320h40v40h-40z"/>
  <path fill="#000001" d="M320 320h40v40h-40z"/>
  <path fill="#352F1B" d="M360 320h40v40h-40z"/>
  <path d="M400 320h40v40h-40zM440 320h40v40h-40zM480 320h40v40h-40z"/>
  <path fill="#000001" d="M520 320h40v40h-40z"/>
  <path fill="#7A3D09" d="M560 320h40v40h-40zM600 320h40v40h-40z"/>
  <path d="M640 320h40v40h-40zM240 360h40v40h-40z"/>
  <path fill="#757B7C" d="M280 360h40v40h-40z"/>
  <path fill="#352F1B" d="M320 360h40v40h-40z"/>
  <path fill="#000001" d="M360 360h40v40h-40z"/>
  <path d="M400 360h40v40h-40zM520 360h40v40h-40z"/>
  <path fill="#7A3D09" d="M560 360h40v40h-40zM600 360h40v40h-40z"/>
  <path d="M640 360h40v40h-40zM120 400h40v40h-40zM160 400h40v40h-40zM200 400h40v40h-40zM240 400h40v40h-40z"/>
  <path fill="#352F1B" d="M280 400h40v40h-40z"/>
  <path fill="#757B7C" d="M320 400h40v40h-40zM360 400h40v40h-40z"/>
  <path d="M400 400h40v40h-40zM440 400h40v40h-40zM520 400h40v40h-40z"/>
  <path fill="#7A3D09" d="M560 400h40v40h-40zM600 400h40v40h-40z"/>
  <path d="M640 400h40v40h-40zM80 440h40v40H80z"/>
  <path fill="#000001" d="M120 440h40v40h-40z"/>
  <path fill="#096C02" d="M160 440h40v40h-40zM200 440h40v40h-40z"/>
  <path fill="#352F1B" d="M240 440h40v40h-40z"/>
  <path d="M280 440h40v40h-40zM320 440h40v40h-40z"/>
  <path fill="#757B7C" d="M360 440h40v40h-40zM400 440h40v40h-40z"/>
  <path fill="#000001" d="M440 440h40v40h-40z"/>
  <path d="M480 440h40v40h-40z"/>
  <path fill="#000001" d="M520 440h40v40h-40z"/>
  <path fill="#7A3D09" d="M560 440h40v40h-40zM600 440h40v40h-40z"/>
  <path d="M640 440h40v40h-40zM80 480h40v40H80z"/>
  <path fill="#096C02" d="M120 480h40v40h-40zM160 480h40v40h-40z"/>
  <path fill="#352F1B" d="M200 480h40v40h-40z"/>
  <path fill="#096C02" d="M240 480h40v40h-40z"/>
  <path d="M280 480h40v40h-40zM320 480h40v40h-40zM360 480h40v40h-40z"/>
  <path fill="#757B7C" d="M400 480h40v40h-40zM440 480h40v40h-40z"/>
  <path d="M480 480h40v40h-40z"/>
  <path fill="#000001" d="M520 480h40v40h-40z"/>
  <path fill="#7A3D09" d="M560 480h40v40h-40zM600 480h40v40h-40z"/>
  <path d="M640 480h40v40h-40z"/>
  <path fill="#000001" d="M80 520h40v40H80zM120 520h40v40h-40z"/>
  <path fill="#352F1B" d="M160 520h40v40h-40z"/>
  <path fill="#096C02" d="M200 520h40v40h-40zM240 520h40v40h-40z"/>
  <path d="M280 520h40v40h-40zM360 520h40v40h-40zM400 520h40v40h-40z"/>
  <path fill="#757B7C" d="M440 520h40v40h-40zM480 520h40v40h-40z"/>
  <path fill="#7A3D09" d="M520 520h40v40h-40zM560 520h40v40h-40z"/>
  <path fill="#000001" d="M600 520h40v40h-40z"/>
  <path d="M640 520h40v40h-40z"/>
  <path fill="#000001" d="M120 560h40v40h-40zM160 560h40v40h-40z"/>
  <path fill="#096C02" d="M200 560h40v40h-40z"/>
  <path fill="#000001" d="M240 560h40v40h-40z"/>
  <path d="M280 560h40v40h-40zM400 560h40v40h-40zM440 560h40v40h-40z"/>
  <path fill="#757B7C" d="M480 560h40v40h-40zM520 560h40v40h-40z"/>
  <path fill="#000001" d="M560 560h40v40h-40z"/>
  <path d="M600 560h40v40h-40z"/>
  <path fill="#000001" d="M160 600h40v40h-40z"/>
  <path d="M200 600h40v40h-40zM240 600h40v40h-40zM440 600h40v40h-40zM480 600h40v40h-40z"/>
  <path fill="#000001" d="M520 600h40v40h-40z"/>
  <path fill="#7A3D09" d="M560 600h40v40h-40z"/>
  <path fill="#000001" d="M600 600h40v40h-40z"/>
  <path d="M640 600h40v40h-40zM520 640h40v40h-40z"/>
  <path fill="#7A3D09" d="M560 640h40v40h-40zM600 640h40v40h-40z"/>
  <path d="M640 640h40v40h-40zM520 680h40v40h-40zM560 680h40v40h-40zM600 680h40v40h-40zM640 680h40v40h-40z"/>
</svg>
